<?xml version="1.0" encoding="utf-8"?>
<!-- Generator: Adobe Illustrator 16.0.4, SVG Export Plug-In . SVG Version: 6.00 Build 0)  -->
<!DOCTYPE svg PUBLIC "-//W3C//DTD SVG 1.1//EN" "http://www.w3.org/Graphics/SVG/1.1/DTD/svg11.dtd">
<svg version="1.1" id="Layer_1" xmlns="http://www.w3.org/2000/svg" xmlns:xlink="http://www.w3.org/1999/xlink" x="0px" y="0px"
	 width="367.57px" height="150px" viewBox="0 0 367.57 150" enable-background="new 0 0 367.57 150" xml:space="preserve">
<g>
	<g>
		<path fill="#00AEEF" d="M69.192,72.49h15.959l6.093,23.339l7.122-23.513h13.475l7.213,23.689l6.266-23.516h15.703l-14.336,46.768
			h-14.073l-7.552-24.112l-7.722,24.112H83.349L69.192,72.49z"/>
		<path fill="#00AEEF" d="M146.296,56.266h16.302v62.648h-16.302V56.266z"/>
		<path fill="#2A2E7B" d="M173.395,58.842h15.539l24.712,31.757V58.842h16.477v60.072h-14.581l-25.669-32.951v32.951h-16.478V58.842
			z"/>
		<path fill="#2A2E7B" d="M238.786,95.916v-0.173c0-13.558,9.7-24.286,23.438-24.286c16.048,0,23.426,11.76,23.426,25.402
			c0,1.03,0,2.232-0.091,3.347h-31.062c1.286,5.063,4.977,7.64,10.04,7.64c3.859,0,6.949-1.46,10.302-4.718l9.012,7.463
			c-4.465,5.663-10.904,9.443-20.17,9.443C249.088,120.034,238.786,110.333,238.786,95.916z M270.373,91.881
			c-0.602-5.146-3.605-8.406-8.068-8.406c-4.289,0-7.205,3.343-8.072,8.406H270.373z"/>
		<path fill="#2A2E7B" d="M289.207,113.08l6.093-9.867c5.327,3.515,11.159,5.322,15.971,5.322c2.829,0,4.111-0.864,4.111-2.493
			v-0.167c0-1.806-2.575-2.578-7.464-3.951c-9.183-2.404-16.479-5.489-16.479-14.848v-0.171c0-9.87,7.896-15.363,18.627-15.363
			c6.774,0,13.814,1.975,19.137,5.406l-5.578,10.301c-4.81-2.661-10.042-4.295-13.734-4.295c-2.484,0-3.77,0.95-3.77,2.231v0.175
			c0,1.806,2.66,2.661,7.551,4.122c9.184,2.573,16.479,5.748,16.479,14.762v0.167c0,10.214-7.643,15.533-18.973,15.533
			C303.371,119.944,295.645,117.715,289.207,113.08z"/>
		<path fill="#2A2E7B" d="M339.455,104.498V85.62h-5.491V72.49h5.491V60.732h16.307V72.49h10.81v13.13h-10.81v15.703
			c0,3.263,1.462,4.635,4.461,4.635c2.15,0,4.207-0.602,6.184-1.547v12.788c-2.922,1.63-6.786,2.662-11.33,2.662
			C345.294,119.861,339.455,115.568,339.455,104.498z"/>
		<g>
			<path fill="#00AEEF" d="M56.116,66.328c-3.304,5.002-6.763,9.683-9.851,13.621c1.577,2.594,2.453,5.681,2.453,8.923v0.17
				c0,8.669-6.094,16.051-15.278,16.051c-9.091,0-15.358-7.553-15.358-16.221v-0.171c0-3.274,0.873-6.365,2.444-8.946
				c-3.032-3.942-6.417-8.571-9.665-13.498c-6.135,5.69-9.862,13.71-9.862,22.615v0.17c0,17.251,13.731,31.072,32.27,31.072
				c18.549,0,32.45-13.991,32.45-31.242v-0.171C65.719,79.875,62.109,71.967,56.116,66.328z"/>
		</g>
		<g>
			<path fill="#2A2E7B" d="M33.36,0.5C15.49,0.5,0.999,14.987,0.999,32.86c0,19.105,32.361,56.012,32.361,56.012
				S65.72,53.385,65.72,32.86C65.72,14.987,51.231,0.5,33.36,0.5z M33.36,59.906c-14.938,0-27.049-12.109-27.049-27.048
				c0-14.938,12.11-27.048,27.049-27.048s27.048,12.11,27.048,27.048C60.408,47.797,48.299,59.906,33.36,59.906z"/>
			<circle fill="#2A2E7B" cx="23.852" cy="31.954" r="3.035"/>
			<path fill="#2A2E7B" d="M42.87,28.919c-1.679,0-3.034,1.358-3.034,3.037c0,1.675,1.355,3.032,3.034,3.032
				c1.676,0,3.033-1.357,3.033-3.032C45.903,30.277,44.546,28.919,42.87,28.919z"/>
			<path fill="#2A2E7B" d="M54.563,20.837H42.872c-4.025,0-7.562,2.148-9.509,5.363c-1.952-3.215-5.484-5.363-9.512-5.363H12.158
				l2.485,4.896h0.002c-1.205,1.775-1.907,3.919-1.907,6.223c0,6.128,4.983,11.112,11.113,11.112c2.346,0,4.525-0.73,6.319-1.974
				l3.189,3.783l3.188-3.788c1.794,1.248,3.975,1.979,6.323,1.979c6.126,0,11.112-4.984,11.112-11.112
				c0-2.304-0.702-4.447-1.907-6.223L54.563,20.837z M31.753,31.956v0.004c-0.004,4.362-3.538,7.896-7.901,7.896
				s-7.901-3.539-7.901-7.9c0-4.365,3.538-7.901,7.901-7.901s7.897,3.534,7.901,7.892C31.753,31.951,31.753,31.951,31.753,31.956z
				 M42.87,39.856c-4.366,0-7.899-3.537-7.904-7.9l0,0v-0.005c0.005-4.362,3.538-7.896,7.904-7.896c4.363,0,7.901,3.536,7.901,7.901
				C50.771,36.317,47.233,39.856,42.87,39.856z"/>
		</g>
	</g>
	<g>
		<path fill="#00AEEF" d="M83.383,131.532h5.44c4.588,0,7.756,3.149,7.756,7.255v0.044c0,4.105-3.168,7.291-7.756,7.291h-5.44
			V131.532z M88.823,143.79c3.066,0,5.066-2.064,5.066-4.92v-0.039c0-2.855-2-4.965-5.066-4.965h-2.877v9.924H88.823z"/>
		<path fill="#00AEEF" d="M99.44,131.032h2.711v2.397H99.44V131.032z M99.545,135.118h2.522v11.004h-2.522V135.118z"/>
		<path fill="#00AEEF" d="M104.381,144.685l1.126-1.709c1.188,0.898,2.48,1.354,3.606,1.354c1.084,0,1.709-0.456,1.709-1.186v-0.043
			c0-0.855-1.167-1.145-2.459-1.542c-1.626-0.46-3.44-1.126-3.44-3.232v-0.043c0-2.082,1.73-3.354,3.919-3.354
			c1.376,0,2.877,0.481,4.045,1.252l-1.001,1.792c-1.063-0.646-2.188-1.044-3.106-1.044c-0.979,0-1.542,0.46-1.542,1.108v0.038
			c0,0.794,1.188,1.128,2.48,1.543c1.604,0.5,3.418,1.231,3.418,3.213v0.041c0,2.312-1.793,3.459-4.085,3.459
			C107.486,146.332,105.758,145.768,104.381,144.685z"/>
		<path fill="#00AEEF" d="M114.971,140.683v-0.041c0-3.128,2.418-5.755,5.712-5.755c2.084,0,3.377,0.772,4.398,1.897l-1.562,1.69
			c-0.772-0.815-1.586-1.378-2.857-1.378c-1.833,0-3.168,1.587-3.168,3.502v0.043c0,1.961,1.355,3.545,3.294,3.545
			c1.188,0,2.064-0.565,2.856-1.378l1.52,1.5c-1.083,1.21-2.354,2.065-4.502,2.065C117.389,146.374,114.971,143.808,114.971,140.683
			z"/>
		<path fill="#00AEEF" d="M126.48,140.683v-0.041c0-3.147,2.502-5.755,5.877-5.755c3.377,0,5.858,2.563,5.858,5.712v0.043
			c0,3.127-2.501,5.732-5.899,5.732C128.962,146.374,126.48,143.808,126.48,140.683z M135.693,140.683v-0.041
			c0-1.938-1.396-3.545-3.377-3.545c-2.021,0-3.313,1.587-3.313,3.502v0.043c0,1.917,1.396,3.545,3.354,3.545
			C134.401,144.187,135.693,142.58,135.693,140.683z"/>
		<path fill="#00AEEF" d="M139.132,135.118h2.71l2.961,8.088l2.979-8.088h2.648l-4.503,11.088h-2.271L139.132,135.118z"/>
		<path fill="#00AEEF" d="M151.384,140.663v-0.041c0-3.148,2.229-5.735,5.378-5.735c3.501,0,5.272,2.754,5.272,5.924
			c0,0.227-0.021,0.458-0.04,0.706h-8.088c0.271,1.793,1.543,2.792,3.168,2.792c1.23,0,2.105-0.456,2.98-1.31l1.479,1.31
			c-1.041,1.253-2.479,2.065-4.502,2.065C153.843,146.374,151.384,144.058,151.384,140.663z M159.534,139.85
			c-0.167-1.625-1.126-2.9-2.794-2.9c-1.541,0-2.626,1.191-2.855,2.9H159.534z"/>
		<path fill="#00AEEF" d="M164.606,135.118h2.522v2.479c0.688-1.647,1.959-2.771,3.898-2.688v2.666h-0.146
			c-2.21,0-3.753,1.441-3.753,4.359v4.187h-2.522V135.118z"/>
		<path fill="#00AEEF" d="M171.802,143.269h2.773v2.854h-2.773V143.269z"/>
		<path fill="#00AEEF" d="M184.125,131.532h10.819v2.292h-8.257v3.797h7.318v2.291h-7.318v3.921h8.361v2.289h-10.924V131.532z"/>
		<path fill="#00AEEF" d="M197.853,135.118h2.521v1.709c0.71-1.042,1.731-1.94,3.439-1.94c2.481,0,3.917,1.671,3.917,4.233v7.002
			h-2.521v-6.253c0-1.709-0.854-2.688-2.353-2.688c-1.461,0-2.482,1.024-2.482,2.731v6.21h-2.521V135.118z"/>
		<path fill="#00AEEF" d="M210.74,148.188l0.938-1.897c1.168,0.729,2.418,1.166,3.917,1.166c2.252,0,3.481-1.166,3.481-3.38v-0.85
			c-0.917,1.184-2.062,2.021-3.877,2.021c-2.584,0-5.002-1.917-5.002-5.148v-0.045c0-3.25,2.439-5.169,5.002-5.169
			c1.855,0,3.002,0.858,3.855,1.877v-1.646h2.523v8.756c0,1.854-0.479,3.229-1.398,4.147c-0.999,0.999-2.541,1.479-4.521,1.479
			C213.845,149.5,212.156,149.044,210.74,148.188z M219.099,140.101v-0.045c0-1.812-1.481-3.042-3.233-3.042
			c-1.751,0-3.125,1.211-3.125,3.022v0.043c0,1.813,1.396,3.044,3.125,3.044C217.617,143.123,219.099,141.871,219.099,140.101z"/>
		<path fill="#00AEEF" d="M231.535,146.122v-1.354c-0.748,0.896-1.896,1.585-3.564,1.585c-2.084,0-3.917-1.188-3.917-3.397v-0.043
			c0-2.437,1.897-3.606,4.46-3.606c1.333,0,2.19,0.188,3.043,0.46v-0.21c0-1.519-0.959-2.356-2.709-2.356
			c-1.229,0-2.146,0.273-3.148,0.69l-0.686-2.021c1.207-0.542,2.396-0.918,4.188-0.918c3.253,0,4.837,1.709,4.837,4.648v6.522
			H231.535z M231.6,141.517c-0.646-0.248-1.542-0.437-2.525-0.437c-1.58,0-2.519,0.646-2.519,1.709v0.043
			c0,1.042,0.938,1.624,2.126,1.624c1.668,0,2.918-0.938,2.918-2.312V141.517z"/>
		<path fill="#00AEEF" d="M236.983,148.188l0.938-1.897c1.166,0.729,2.42,1.166,3.92,1.166c2.249,0,3.48-1.166,3.48-3.38v-0.85
			c-0.92,1.184-2.066,2.021-3.877,2.021c-2.585,0-5.004-1.917-5.004-5.148v-0.045c0-3.25,2.441-5.169,5.004-5.169
			c1.854,0,3,0.858,3.855,1.877v-1.646h2.521v8.756c0,1.854-0.477,3.229-1.394,4.147c-1.001,0.999-2.546,1.479-4.523,1.479
			C240.09,149.5,238.402,149.044,236.983,148.188z M245.344,140.101v-0.045c0-1.812-1.48-3.042-3.23-3.042
			c-1.753,0-3.129,1.211-3.129,3.022v0.043c0,1.813,1.396,3.044,3.129,3.044C243.863,143.123,245.344,141.871,245.344,140.101z"/>
		<path fill="#00AEEF" d="M250.404,140.663v-0.041c0-3.148,2.232-5.735,5.381-5.735c3.5,0,5.271,2.754,5.271,5.924
			c0,0.227-0.018,0.458-0.04,0.706h-8.087c0.27,1.793,1.541,2.792,3.167,2.792c1.229,0,2.104-0.456,2.98-1.31l1.479,1.31
			c-1.043,1.253-2.479,2.065-4.502,2.065C252.865,146.374,250.404,144.058,250.404,140.663z M258.556,139.85
			c-0.165-1.625-1.124-2.9-2.792-2.9c-1.543,0-2.627,1.191-2.856,2.9H258.556z"/>
		<path fill="#00AEEF" d="M263.406,143.269h2.771v2.854h-2.771V143.269z"/>
		<path fill="#00AEEF" d="M275.084,138.87v-0.039c0-4.149,3.107-7.549,7.523-7.549c2.688,0,4.316,0.939,5.714,2.272l-1.646,1.897
			c-1.172-1.085-2.418-1.814-4.086-1.814c-2.793,0-4.815,2.293-4.815,5.149v0.044c0,2.854,2.022,5.188,4.815,5.188
			c1.791,0,2.936-0.729,4.188-1.897l1.646,1.668c-1.523,1.581-3.189,2.584-5.917,2.584
			C278.252,146.374,275.084,143.061,275.084,138.87z"/>
		<path fill="#00AEEF" d="M290.048,140.683v-0.041c0-3.147,2.499-5.755,5.878-5.755c3.375,0,5.857,2.563,5.857,5.712v0.043
			c0,3.127-2.504,5.732-5.901,5.732C292.525,146.374,290.048,143.808,290.048,140.683z M299.26,140.683v-0.041
			c0-1.938-1.397-3.545-3.378-3.545c-2.022,0-3.312,1.587-3.312,3.502v0.043c0,1.917,1.396,3.545,3.355,3.545
			C297.969,144.187,299.26,142.58,299.26,140.683z"/>
		<path fill="#00AEEF" d="M304.336,135.118h2.523v1.709c0.709-1.042,1.729-1.94,3.441-1.94c2.479,0,3.915,1.671,3.915,4.233v7.002
			h-2.521v-6.253c0-1.709-0.855-2.688-2.355-2.688c-1.461,0-2.48,1.024-2.48,2.731v6.21h-2.523V135.118z"/>
		<path fill="#00AEEF" d="M317.326,135.118h2.521v1.709c0.708-1.042,1.73-1.94,3.439-1.94c2.48,0,3.92,1.671,3.92,4.233v7.002
			h-2.522v-6.253c0-1.709-0.857-2.688-2.357-2.688c-1.457,0-2.479,1.024-2.479,2.731v6.21h-2.521V135.118z"/>
		<path fill="#00AEEF" d="M329.689,140.663v-0.041c0-3.148,2.231-5.735,5.381-5.735c3.498,0,5.271,2.754,5.271,5.924
			c0,0.227-0.02,0.458-0.041,0.706h-8.085c0.269,1.793,1.54,2.792,3.163,2.792c1.231,0,2.104-0.456,2.985-1.31l1.478,1.31
			c-1.043,1.253-2.48,2.065-4.502,2.065C332.148,146.374,329.689,144.058,329.689,140.663z M337.84,139.85
			c-0.166-1.625-1.125-2.9-2.793-2.9c-1.543,0-2.627,1.191-2.854,2.9H337.84z"/>
		<path fill="#00AEEF" d="M342.262,140.683v-0.041c0-3.128,2.414-5.755,5.708-5.755c2.085,0,3.38,0.772,4.401,1.897l-1.564,1.69
			c-0.771-0.815-1.586-1.378-2.856-1.378c-1.831,0-3.166,1.587-3.166,3.502v0.043c0,1.961,1.354,3.545,3.294,3.545
			c1.188,0,2.061-0.565,2.854-1.378l1.521,1.5c-1.082,1.21-2.355,2.065-4.503,2.065
			C344.676,146.374,342.262,143.808,342.262,140.683z"/>
		<path fill="#00AEEF" d="M355.478,143.082v-5.797h-1.396v-2.167h1.396v-3.022H358v3.022h2.965v2.167H358v5.401
			c0,0.978,0.502,1.371,1.355,1.371c0.562,0,1.066-0.122,1.562-0.372v2.062c-0.623,0.353-1.331,0.562-2.27,0.562
			C356.793,146.311,355.478,145.498,355.478,143.082z"/>
		<path fill="#00AEEF" d="M363.766,143.269h2.772v2.854h-2.772V143.269z"/>
	</g>
</g>
</svg>
