<svg xmlns="http://www.w3.org/2000/svg" xmlns:xlink="http://www.w3.org/1999/xlink" width="110" zoomAndPan="magnify" viewBox="0 0 82.5 83.249999" height="111" preserveAspectRatio="xMidYMid meet" version="1.0"><defs><clipPath id="7b49b0b966"><path d="M 65.660156 33.039062 L 78.253906 33.039062 L 78.253906 80.960938 L 65.660156 80.960938 Z M 65.660156 33.039062 " clip-rule="nonzero"/></clipPath><clipPath id="b15a2503a9"><path d="M 0.660156 0.0390625 L 13.253906 0.0390625 L 13.253906 47.960938 L 0.660156 47.960938 Z M 0.660156 0.0390625 " clip-rule="nonzero"/></clipPath><clipPath id="5485f8d8e4"><rect x="0" width="14" y="0" height="48"/></clipPath><clipPath id="27e12ce42c"><path d="M 7 0 L 23.164062 0 L 23.164062 81 L 7 81 Z M 7 0 " clip-rule="nonzero"/></clipPath><clipPath id="646eb31ee6"><path d="M 58 15.402344 L 81.882812 15.402344 L 81.882812 44.402344 L 58 44.402344 Z M 58 15.402344 " clip-rule="nonzero"/></clipPath><clipPath id="1f30188de0"><path d="M 58.542969 30.390625 L 76.582031 10.882812 L 91.566406 24.5625 L 73.527344 44.070312 Z M 58.542969 30.390625 " clip-rule="nonzero"/></clipPath><clipPath id="c020c1de28"><path d="M 16.125 29.8125 L 69.289062 -27.691406 L 107.527344 7.207031 L 54.363281 64.710938 Z M 16.125 29.8125 " clip-rule="nonzero"/></clipPath><clipPath id="79aa4fe65b"><path d="M 1 15.402344 L 70.785156 15.402344 L 70.785156 47.867188 L 1 47.867188 Z M 1 15.402344 " clip-rule="nonzero"/></clipPath><clipPath id="ae41ddb0cf"><path d="M -9.628906 32.410156 L 66.363281 9.933594 L 70.769531 24.636719 L -5.226562 47.105469 Z M -9.628906 32.410156 " clip-rule="nonzero"/></clipPath><clipPath id="373b3a5058"><path d="M -10.007812 32.519531 L 67.328125 9.648438 L 71.730469 24.347656 L -5.605469 47.222656 Z M -10.007812 32.519531 " clip-rule="nonzero"/></clipPath><clipPath id="3ba873b313"><path d="M -12.699219 33.316406 L 83.46875 4.875 L 99.882812 59.664062 L 3.71875 88.105469 Z M -12.699219 33.316406 " clip-rule="nonzero"/></clipPath><clipPath id="f558fff6f8"><path d="M -6.453125 38.324219 L 83.53125 11.710938 L 93.34375 44.460938 L 3.359375 71.070312 Z M -6.453125 38.324219 " clip-rule="nonzero"/></clipPath><clipPath id="9598d2fe94"><path d="M -5.351562 53.859375 L 73.246094 7.917969 L 91.144531 38.15625 L 12.546875 84.097656 Z M -5.351562 53.859375 " clip-rule="nonzero"/></clipPath><clipPath id="f9685ef531"><path d="M -12.894531 30.632812 L 91.03125 -0.101562 L 108.011719 56.578125 L 4.085938 87.3125 Z M -12.894531 30.632812 " clip-rule="nonzero"/></clipPath><clipPath id="c1ff50a9b2"><path d="M -5.351562 53.859375 L 82.542969 2.488281 L 100.4375 32.71875 L 12.546875 84.097656 Z M -5.351562 53.859375 " clip-rule="nonzero"/></clipPath><clipPath id="f7ff3912b3"><path d="M -12.894531 30.632812 L 91.03125 -0.101562 L 108.011719 56.578125 L 4.085938 87.3125 Z M -12.894531 30.632812 " clip-rule="nonzero"/></clipPath><clipPath id="3353cebc46"><path d="M -5.351562 53.859375 L 82.542969 2.488281 L 100.4375 32.71875 L 12.546875 84.097656 Z M -5.351562 53.859375 " clip-rule="nonzero"/></clipPath><clipPath id="98dfee5a39"><path d="M 61 26.199219 L 70.785156 26.199219 L 70.785156 35.734375 L 61 35.734375 Z M 61 26.199219 " clip-rule="nonzero"/></clipPath><clipPath id="b63002ef8d"><path d="M -9.628906 32.410156 L 66.363281 9.933594 L 70.769531 24.636719 L -5.226562 47.105469 Z M -9.628906 32.410156 " clip-rule="nonzero"/></clipPath><clipPath id="44733b817b"><path d="M -10.007812 32.519531 L 67.328125 9.648438 L 71.730469 24.347656 L -5.605469 47.222656 Z M -10.007812 32.519531 " clip-rule="nonzero"/></clipPath><clipPath id="41dfe00ca6"><path d="M -12.699219 33.316406 L 83.46875 4.875 L 99.882812 59.664062 L 3.71875 88.105469 Z M -12.699219 33.316406 " clip-rule="nonzero"/></clipPath><clipPath id="cef1d63451"><path d="M 59.179688 27.140625 L 80.730469 20.769531 L 84.878906 34.625 L 63.332031 40.996094 Z M 59.179688 27.140625 " clip-rule="nonzero"/></clipPath><clipPath id="4ac12c0579"><path d="M -5.351562 53.859375 L 73.246094 7.917969 L 91.144531 38.15625 L 12.546875 84.097656 Z M -5.351562 53.859375 " clip-rule="nonzero"/></clipPath><clipPath id="cb46bfd4c0"><path d="M -12.894531 30.632812 L 91.03125 -0.101562 L 108.011719 56.578125 L 4.085938 87.3125 Z M -12.894531 30.632812 " clip-rule="nonzero"/></clipPath><clipPath id="2ea2954441"><path d="M -5.351562 53.859375 L 82.542969 2.488281 L 100.4375 32.71875 L 12.546875 84.097656 Z M -5.351562 53.859375 " clip-rule="nonzero"/></clipPath><clipPath id="a407edabc6"><path d="M -12.894531 30.632812 L 91.03125 -0.101562 L 108.011719 56.578125 L 4.085938 87.3125 Z M -12.894531 30.632812 " clip-rule="nonzero"/></clipPath><clipPath id="4208391ebf"><path d="M -5.351562 53.859375 L 82.542969 2.488281 L 100.4375 32.71875 L 12.546875 84.097656 Z M -5.351562 53.859375 " clip-rule="nonzero"/></clipPath><clipPath id="b1245b87cf"><path d="M 1 15.402344 L 70.785156 15.402344 L 70.785156 47.867188 L 1 47.867188 Z M 1 15.402344 " clip-rule="nonzero"/></clipPath><clipPath id="ba63cbdebd"><path d="M -9.628906 32.410156 L 66.363281 9.933594 L 70.769531 24.636719 L -5.226562 47.105469 Z M -9.628906 32.410156 " clip-rule="nonzero"/></clipPath><clipPath id="fca6f552d6"><path d="M -10.007812 32.519531 L 67.328125 9.648438 L 71.730469 24.347656 L -5.605469 47.222656 Z M -10.007812 32.519531 " clip-rule="nonzero"/></clipPath><clipPath id="4766ca6cb6"><path d="M -12.699219 33.316406 L 83.46875 4.875 L 99.882812 59.664062 L 3.71875 88.105469 Z M -12.699219 33.316406 " clip-rule="nonzero"/></clipPath><clipPath id="5a46a36850"><path d="M -6.453125 38.324219 L 83.53125 11.710938 L 93.34375 44.460938 L 3.359375 71.070312 Z M -6.453125 38.324219 " clip-rule="nonzero"/></clipPath><clipPath id="49b9fdf0f0"><path d="M -5.351562 53.859375 L 73.246094 7.917969 L 91.144531 38.15625 L 12.546875 84.097656 Z M -5.351562 53.859375 " clip-rule="nonzero"/></clipPath><clipPath id="298a3b3217"><path d="M -12.894531 30.632812 L 91.03125 -0.101562 L 108.011719 56.578125 L 4.085938 87.3125 Z M -12.894531 30.632812 " clip-rule="nonzero"/></clipPath><clipPath id="8e74554779"><path d="M -5.351562 53.859375 L 82.542969 2.488281 L 100.4375 32.71875 L 12.546875 84.097656 Z M -5.351562 53.859375 " clip-rule="nonzero"/></clipPath><clipPath id="f9d3046370"><path d="M -12.894531 30.632812 L 91.03125 -0.101562 L 108.011719 56.578125 L 4.085938 87.3125 Z M -12.894531 30.632812 " clip-rule="nonzero"/></clipPath><clipPath id="a70a897a12"><path d="M -5.351562 53.859375 L 82.542969 2.488281 L 100.4375 32.71875 L 12.546875 84.097656 Z M -5.351562 53.859375 " clip-rule="nonzero"/></clipPath><clipPath id="eb01904fcd"><path d="M 61 26.199219 L 70.785156 26.199219 L 70.785156 35.734375 L 61 35.734375 Z M 61 26.199219 " clip-rule="nonzero"/></clipPath><clipPath id="a427b22ca9"><path d="M -9.628906 32.410156 L 66.363281 9.933594 L 70.769531 24.636719 L -5.226562 47.105469 Z M -9.628906 32.410156 " clip-rule="nonzero"/></clipPath><clipPath id="b613b3b544"><path d="M -10.007812 32.519531 L 67.328125 9.648438 L 71.730469 24.347656 L -5.605469 47.222656 Z M -10.007812 32.519531 " clip-rule="nonzero"/></clipPath><clipPath id="9ae0209d17"><path d="M -12.699219 33.316406 L 83.46875 4.875 L 99.882812 59.664062 L 3.71875 88.105469 Z M -12.699219 33.316406 " clip-rule="nonzero"/></clipPath><clipPath id="3c5f8a8f91"><path d="M 59.179688 27.140625 L 80.730469 20.769531 L 84.878906 34.625 L 63.332031 40.996094 Z M 59.179688 27.140625 " clip-rule="nonzero"/></clipPath><clipPath id="a8d55bb630"><path d="M -5.351562 53.859375 L 73.246094 7.917969 L 91.144531 38.15625 L 12.546875 84.097656 Z M -5.351562 53.859375 " clip-rule="nonzero"/></clipPath><clipPath id="367c85969a"><path d="M -12.894531 30.632812 L 91.03125 -0.101562 L 108.011719 56.578125 L 4.085938 87.3125 Z M -12.894531 30.632812 " clip-rule="nonzero"/></clipPath><clipPath id="a23e19e617"><path d="M -5.351562 53.859375 L 82.542969 2.488281 L 100.4375 32.71875 L 12.546875 84.097656 Z M -5.351562 53.859375 " clip-rule="nonzero"/></clipPath><clipPath id="4d61349b8d"><path d="M -12.894531 30.632812 L 91.03125 -0.101562 L 108.011719 56.578125 L 4.085938 87.3125 Z M -12.894531 30.632812 " clip-rule="nonzero"/></clipPath><clipPath id="96ecfa9a25"><path d="M -5.351562 53.859375 L 82.542969 2.488281 L 100.4375 32.71875 L 12.546875 84.097656 Z M -5.351562 53.859375 " clip-rule="nonzero"/></clipPath><clipPath id="0ce0fe4f91"><path d="M 1 18.398438 L 44 18.398438 L 44 66 L 1 66 Z M 1 18.398438 " clip-rule="nonzero"/></clipPath><clipPath id="f4c8b123e3"><path d="M -9.289062 30.167969 L 29.042969 18.832031 L 43.855469 68.277344 L 5.523438 79.613281 Z M -9.289062 30.167969 " clip-rule="nonzero"/></clipPath><clipPath id="4d70c94a42"><path d="M -9.679688 30.285156 L 29.328125 18.746094 L 44.339844 68.859375 L 5.335938 80.394531 Z M -9.679688 30.285156 " clip-rule="nonzero"/></clipPath><clipPath id="e0b5b0dc76"><path d="M -12.378906 31.082031 L 83.792969 2.640625 L 100.207031 57.429688 L 4.039062 85.871094 Z M -12.378906 31.082031 " clip-rule="nonzero"/></clipPath><clipPath id="63ba29393b"><path d="M -6.132812 36.09375 L 83.859375 9.476562 L 93.671875 42.222656 L 3.675781 68.839844 Z M -6.132812 36.09375 " clip-rule="nonzero"/></clipPath><clipPath id="29b218c655"><path d="M -5.035156 51.625 L 73.570312 5.683594 L 91.46875 35.921875 L 12.863281 81.863281 Z M -5.035156 51.625 " clip-rule="nonzero"/></clipPath><clipPath id="b44ab6a148"><path d="M -12.578125 28.398438 L 91.355469 -2.339844 L 108.339844 54.339844 L 4.402344 85.078125 Z M -12.578125 28.398438 " clip-rule="nonzero"/></clipPath><clipPath id="42805ba35f"><path d="M -5.035156 51.625 L 82.867188 0.25 L 100.765625 30.484375 L 12.863281 81.863281 Z M -5.035156 51.625 " clip-rule="nonzero"/></clipPath><clipPath id="b04b68ca6e"><path d="M -12.578125 28.398438 L 91.355469 -2.339844 L 108.339844 54.339844 L 4.402344 85.078125 Z M -12.578125 28.398438 " clip-rule="nonzero"/></clipPath><clipPath id="ae0ba21058"><path d="M -5.035156 51.625 L 82.867188 0.25 L 100.765625 30.484375 L 12.863281 81.863281 Z M -5.035156 51.625 " clip-rule="nonzero"/></clipPath><clipPath id="ee154e0f4a"><path d="M 29 15.402344 L 71.65625 15.402344 L 71.65625 34.867188 L 29 34.867188 Z M 29 15.402344 " clip-rule="nonzero"/></clipPath><clipPath id="7d898fc15b"><path d="M 29.375 19.742188 L 67.328125 9.644531 L 71.324219 24.457031 L 33.367188 34.558594 Z M 29.375 19.742188 " clip-rule="nonzero"/></clipPath><clipPath id="643612d052"><path d="M -17.621094 32.246094 L 81.332031 5.917969 L 96.578125 62.484375 L -2.378906 88.8125 Z M -17.621094 32.246094 " clip-rule="nonzero"/></clipPath><clipPath id="daa683d4e2"><path d="M -17.621094 32.246094 L 81.332031 5.917969 L 96.578125 62.484375 L -2.378906 88.8125 Z M -17.621094 32.246094 " clip-rule="nonzero"/></clipPath><clipPath id="c4f28b78a2"><path d="M -11.390625 37.554688 L 81.210938 12.921875 L 90.324219 46.730469 L -2.277344 71.367188 Z M -11.390625 37.554688 " clip-rule="nonzero"/></clipPath><clipPath id="4618c9b1be"><path d="M -10.691406 53.488281 L 70.816406 8.738281 L 88.25 40.214844 L 6.742188 84.964844 Z M -10.691406 53.488281 " clip-rule="nonzero"/></clipPath><clipPath id="0e81235ca6"><path d="M -17.753906 29.492188 L 89.195312 1.039062 L 104.960938 59.558594 L -1.984375 88.011719 Z M -17.753906 29.492188 " clip-rule="nonzero"/></clipPath><clipPath id="62148d75ab"><path d="M -10.691406 53.488281 L 80.457031 3.445312 L 97.890625 34.917969 L 6.742188 84.964844 Z M -10.691406 53.488281 " clip-rule="nonzero"/></clipPath><clipPath id="348962a31b"><path d="M -17.753906 29.492188 L 89.195312 1.039062 L 104.960938 59.558594 L -1.984375 88.011719 Z M -17.753906 29.492188 " clip-rule="nonzero"/></clipPath><clipPath id="e745f08db1"><path d="M -10.691406 53.488281 L 80.457031 3.445312 L 97.890625 34.917969 L 6.742188 84.964844 Z M -10.691406 53.488281 " clip-rule="nonzero"/></clipPath><clipPath id="13c6f988ae"><path d="M 65 28 L 71.65625 28 L 71.65625 34.867188 L 65 34.867188 Z M 65 28 " clip-rule="nonzero"/></clipPath><clipPath id="15a8455e2b"><path d="M 29.375 19.742188 L 67.328125 9.644531 L 71.324219 24.457031 L 33.367188 34.558594 Z M 29.375 19.742188 " clip-rule="nonzero"/></clipPath><clipPath id="27572918c7"><path d="M -17.621094 32.246094 L 81.332031 5.917969 L 96.578125 62.484375 L -2.378906 88.8125 Z M -17.621094 32.246094 " clip-rule="nonzero"/></clipPath><clipPath id="cc7d59dd44"><path d="M -17.621094 32.246094 L 81.332031 5.917969 L 96.578125 62.484375 L -2.378906 88.8125 Z M -17.621094 32.246094 " clip-rule="nonzero"/></clipPath><clipPath id="944d9dd8bf"><path d="M 60.890625 30.867188 L 79.148438 26.007812 L 84.40625 45.515625 L 66.148438 50.375 Z M 60.890625 30.867188 " clip-rule="nonzero"/></clipPath><clipPath id="1f1ab1327e"><path d="M -10.691406 53.488281 L 70.816406 8.738281 L 88.25 40.214844 L 6.742188 84.964844 Z M -10.691406 53.488281 " clip-rule="nonzero"/></clipPath><clipPath id="735cb89dcd"><path d="M -17.753906 29.492188 L 89.195312 1.039062 L 104.960938 59.558594 L -1.984375 88.011719 Z M -17.753906 29.492188 " clip-rule="nonzero"/></clipPath><clipPath id="5009d23705"><path d="M -10.691406 53.488281 L 80.457031 3.445312 L 97.890625 34.917969 L 6.742188 84.964844 Z M -10.691406 53.488281 " clip-rule="nonzero"/></clipPath><clipPath id="3163e309a9"><path d="M -17.753906 29.492188 L 89.195312 1.039062 L 104.960938 59.558594 L -1.984375 88.011719 Z M -17.753906 29.492188 " clip-rule="nonzero"/></clipPath><clipPath id="f9e4854d5a"><path d="M -10.691406 53.488281 L 80.457031 3.445312 L 97.890625 34.917969 L 6.742188 84.964844 Z M -10.691406 53.488281 " clip-rule="nonzero"/></clipPath><clipPath id="f6f9345518"><path d="M 57.699219 27.066406 L 71.65625 27.066406 L 71.65625 34.867188 L 57.699219 34.867188 Z M 57.699219 27.066406 " clip-rule="nonzero"/></clipPath><clipPath id="8721c86d06"><path d="M 29.375 19.742188 L 67.328125 9.644531 L 71.324219 24.457031 L 33.367188 34.558594 Z M 29.375 19.742188 " clip-rule="nonzero"/></clipPath><clipPath id="8cc037f847"><path d="M -17.621094 32.246094 L 81.332031 5.917969 L 96.578125 62.484375 L -2.378906 88.8125 Z M -17.621094 32.246094 " clip-rule="nonzero"/></clipPath><clipPath id="ef0ba23c44"><path d="M -17.621094 32.246094 L 81.332031 5.917969 L 96.578125 62.484375 L -2.378906 88.8125 Z M -17.621094 32.246094 " clip-rule="nonzero"/></clipPath><clipPath id="65319d8ab9"><path d="M 55.925781 28.007812 L 78.097656 22.109375 L 81.953125 36.414062 L 59.78125 42.3125 Z M 55.925781 28.007812 " clip-rule="nonzero"/></clipPath><clipPath id="bbfe90505c"><path d="M -10.691406 53.488281 L 70.816406 8.738281 L 88.25 40.214844 L 6.742188 84.964844 Z M -10.691406 53.488281 " clip-rule="nonzero"/></clipPath><clipPath id="db6b325a53"><path d="M -17.753906 29.492188 L 89.195312 1.039062 L 104.960938 59.558594 L -1.984375 88.011719 Z M -17.753906 29.492188 " clip-rule="nonzero"/></clipPath><clipPath id="99af2416b2"><path d="M -10.691406 53.488281 L 80.457031 3.445312 L 97.890625 34.917969 L 6.742188 84.964844 Z M -10.691406 53.488281 " clip-rule="nonzero"/></clipPath><clipPath id="f9b3c50426"><path d="M -17.753906 29.492188 L 89.195312 1.039062 L 104.960938 59.558594 L -1.984375 88.011719 Z M -17.753906 29.492188 " clip-rule="nonzero"/></clipPath><clipPath id="72082a3fc5"><path d="M -10.691406 53.488281 L 80.457031 3.445312 L 97.890625 34.917969 L 6.742188 84.964844 Z M -10.691406 53.488281 " clip-rule="nonzero"/></clipPath><clipPath id="76d6175907"><path d="M 29 15.402344 L 71.65625 15.402344 L 71.65625 34.867188 L 29 34.867188 Z M 29 15.402344 " clip-rule="nonzero"/></clipPath><clipPath id="71efeecea8"><path d="M 29.375 19.742188 L 67.328125 9.644531 L 71.324219 24.457031 L 33.367188 34.558594 Z M 29.375 19.742188 " clip-rule="nonzero"/></clipPath><clipPath id="2f6bbf0ee4"><path d="M -17.621094 32.246094 L 81.332031 5.917969 L 96.578125 62.484375 L -2.378906 88.8125 Z M -17.621094 32.246094 " clip-rule="nonzero"/></clipPath><clipPath id="e255b8f020"><path d="M -17.621094 32.246094 L 81.332031 5.917969 L 96.578125 62.484375 L -2.378906 88.8125 Z M -17.621094 32.246094 " clip-rule="nonzero"/></clipPath><clipPath id="ee62bd74ce"><path d="M -11.390625 37.554688 L 81.210938 12.921875 L 90.324219 46.730469 L -2.277344 71.367188 Z M -11.390625 37.554688 " clip-rule="nonzero"/></clipPath><clipPath id="af29eeea87"><path d="M -10.691406 53.488281 L 70.816406 8.738281 L 88.25 40.214844 L 6.742188 84.964844 Z M -10.691406 53.488281 " clip-rule="nonzero"/></clipPath><clipPath id="d04d1a8164"><path d="M -17.753906 29.492188 L 89.195312 1.039062 L 104.960938 59.558594 L -1.984375 88.011719 Z M -17.753906 29.492188 " clip-rule="nonzero"/></clipPath><clipPath id="12e9b193fc"><path d="M -10.691406 53.488281 L 80.457031 3.445312 L 97.890625 34.917969 L 6.742188 84.964844 Z M -10.691406 53.488281 " clip-rule="nonzero"/></clipPath><clipPath id="8db041d987"><path d="M -17.753906 29.492188 L 89.195312 1.039062 L 104.960938 59.558594 L -1.984375 88.011719 Z M -17.753906 29.492188 " clip-rule="nonzero"/></clipPath><clipPath id="5c914c104f"><path d="M -10.691406 53.488281 L 80.457031 3.445312 L 97.890625 34.917969 L 6.742188 84.964844 Z M -10.691406 53.488281 " clip-rule="nonzero"/></clipPath><clipPath id="f80649234f"><path d="M 65 28 L 71.65625 28 L 71.65625 34.867188 L 65 34.867188 Z M 65 28 " clip-rule="nonzero"/></clipPath><clipPath id="ff9d8624d9"><path d="M 29.375 19.742188 L 67.328125 9.644531 L 71.324219 24.457031 L 33.367188 34.558594 Z M 29.375 19.742188 " clip-rule="nonzero"/></clipPath><clipPath id="dfb8fef5b1"><path d="M -17.621094 32.246094 L 81.332031 5.917969 L 96.578125 62.484375 L -2.378906 88.8125 Z M -17.621094 32.246094 " clip-rule="nonzero"/></clipPath><clipPath id="ff24c5b9dc"><path d="M -17.621094 32.246094 L 81.332031 5.917969 L 96.578125 62.484375 L -2.378906 88.8125 Z M -17.621094 32.246094 " clip-rule="nonzero"/></clipPath><clipPath id="7b931ba75a"><path d="M 60.890625 30.867188 L 79.148438 26.007812 L 84.40625 45.515625 L 66.148438 50.375 Z M 60.890625 30.867188 " clip-rule="nonzero"/></clipPath><clipPath id="ab6e8f9b7d"><path d="M -10.691406 53.488281 L 70.816406 8.738281 L 88.25 40.214844 L 6.742188 84.964844 Z M -10.691406 53.488281 " clip-rule="nonzero"/></clipPath><clipPath id="b55f7b0e9e"><path d="M -17.753906 29.492188 L 89.195312 1.039062 L 104.960938 59.558594 L -1.984375 88.011719 Z M -17.753906 29.492188 " clip-rule="nonzero"/></clipPath><clipPath id="0957293dcb"><path d="M -10.691406 53.488281 L 80.457031 3.445312 L 97.890625 34.917969 L 6.742188 84.964844 Z M -10.691406 53.488281 " clip-rule="nonzero"/></clipPath><clipPath id="9bccfa7d7c"><path d="M -17.753906 29.492188 L 89.195312 1.039062 L 104.960938 59.558594 L -1.984375 88.011719 Z M -17.753906 29.492188 " clip-rule="nonzero"/></clipPath><clipPath id="6bd189acc9"><path d="M -10.691406 53.488281 L 80.457031 3.445312 L 97.890625 34.917969 L 6.742188 84.964844 Z M -10.691406 53.488281 " clip-rule="nonzero"/></clipPath><clipPath id="1252fbf990"><path d="M 57.699219 27.066406 L 71.65625 27.066406 L 71.65625 34.867188 L 57.699219 34.867188 Z M 57.699219 27.066406 " clip-rule="nonzero"/></clipPath><clipPath id="d3ab9128ae"><path d="M 29.375 19.742188 L 67.328125 9.644531 L 71.324219 24.457031 L 33.367188 34.558594 Z M 29.375 19.742188 " clip-rule="nonzero"/></clipPath><clipPath id="77d9d5e294"><path d="M -17.621094 32.246094 L 81.332031 5.917969 L 96.578125 62.484375 L -2.378906 88.8125 Z M -17.621094 32.246094 " clip-rule="nonzero"/></clipPath><clipPath id="d1274a7400"><path d="M -17.621094 32.246094 L 81.332031 5.917969 L 96.578125 62.484375 L -2.378906 88.8125 Z M -17.621094 32.246094 " clip-rule="nonzero"/></clipPath><clipPath id="0724897bee"><path d="M 55.925781 28.007812 L 78.097656 22.109375 L 81.953125 36.414062 L 59.78125 42.3125 Z M 55.925781 28.007812 " clip-rule="nonzero"/></clipPath><clipPath id="f6875db22e"><path d="M -10.691406 53.488281 L 70.816406 8.738281 L 88.25 40.214844 L 6.742188 84.964844 Z M -10.691406 53.488281 " clip-rule="nonzero"/></clipPath><clipPath id="3b1ba9ed52"><path d="M -17.753906 29.492188 L 89.195312 1.039062 L 104.960938 59.558594 L -1.984375 88.011719 Z M -17.753906 29.492188 " clip-rule="nonzero"/></clipPath><clipPath id="c422cdd3c8"><path d="M -10.691406 53.488281 L 80.457031 3.445312 L 97.890625 34.917969 L 6.742188 84.964844 Z M -10.691406 53.488281 " clip-rule="nonzero"/></clipPath><clipPath id="dbc0ce0028"><path d="M -17.753906 29.492188 L 89.195312 1.039062 L 104.960938 59.558594 L -1.984375 88.011719 Z M -17.753906 29.492188 " clip-rule="nonzero"/></clipPath><clipPath id="bd31a90bf4"><path d="M -10.691406 53.488281 L 80.457031 3.445312 L 97.890625 34.917969 L 6.742188 84.964844 Z M -10.691406 53.488281 " clip-rule="nonzero"/></clipPath><clipPath id="94cb099c1d"><path d="M 34.144531 31.398438 L 73.402344 31.398438 L 73.402344 62 L 34.144531 62 Z M 34.144531 31.398438 " clip-rule="nonzero"/></clipPath><clipPath id="c727d264e6"><path d="M 34.800781 41.769531 L 66.976562 31.890625 L 73.195312 51.875 L 41.015625 61.75 Z M 34.800781 41.769531 " clip-rule="nonzero"/></clipPath><clipPath id="09528525be"><path d="M 34.601562 41.257812 L 68.121094 30.96875 L 74.75 52.285156 L 41.230469 62.574219 Z M 34.601562 41.257812 " clip-rule="nonzero"/></clipPath><clipPath id="fdb95f3eb4"><path d="M -7.214844 30.023438 L 85.96875 1.417969 L 102.542969 54.703125 L 9.355469 83.3125 Z M -7.214844 30.023438 " clip-rule="nonzero"/></clipPath><clipPath id="41602674d2"><path d="M -1.085938 34.855469 L 86.109375 8.085938 L 96.015625 39.9375 L 8.820312 66.703125 Z M -1.085938 34.855469 " clip-rule="nonzero"/></clipPath><clipPath id="ac033c3963"><path d="M 0.15625 49.996094 L 76.0625 4.480469 L 93.804688 33.8125 L 17.898438 79.324219 Z M 0.15625 49.996094 " clip-rule="nonzero"/></clipPath><clipPath id="54d674b0df"><path d="M -7.441406 27.410156 L 93.269531 -3.503906 L 110.410156 51.617188 L 9.703125 82.535156 Z M -7.441406 27.410156 " clip-rule="nonzero"/></clipPath><clipPath id="c587dc4f69"><path d="M 0.15625 49.996094 L 85.042969 -0.902344 L 102.785156 28.421875 L 17.898438 79.324219 Z M 0.15625 49.996094 " clip-rule="nonzero"/></clipPath><clipPath id="824eedf9a3"><path d="M -7.441406 27.410156 L 93.269531 -3.503906 L 110.410156 51.617188 L 9.703125 82.535156 Z M -7.441406 27.410156 " clip-rule="nonzero"/></clipPath><clipPath id="1aebd9b0fa"><path d="M 0.15625 49.996094 L 85.042969 -0.902344 L 102.785156 28.421875 L 17.898438 79.324219 Z M 0.15625 49.996094 " clip-rule="nonzero"/></clipPath><clipPath id="8189b83001"><path d="M 1 27.066406 L 70.785156 27.066406 L 70.785156 67.804688 L 1 67.804688 Z M 1 27.066406 " clip-rule="nonzero"/></clipPath><clipPath id="32b84d8c47"><path d="M -5.144531 46.320312 L 59.414062 27.226562 L 70.222656 63.308594 L 5.664062 82.402344 Z M -5.144531 46.320312 " clip-rule="nonzero"/></clipPath><clipPath id="08ba0cd70f"><path d="M -5.542969 46.382812 L 59.6875 27.089844 L 70.699219 63.839844 L 5.46875 83.132812 Z M -5.542969 46.382812 " clip-rule="nonzero"/></clipPath><clipPath id="8ded8b6e82"><path d="M -12.433594 33.152344 L 83.734375 4.710938 L 100.148438 59.503906 L 3.984375 87.941406 Z M -12.433594 33.152344 " clip-rule="nonzero"/></clipPath><clipPath id="16285be75e"><path d="M -6.1875 38.164062 L 83.800781 11.550781 L 93.609375 44.300781 L 3.625 70.914062 Z M -6.1875 38.164062 " clip-rule="nonzero"/></clipPath><clipPath id="9450a816d8"><path d="M -5.085938 53.695312 L 73.511719 7.761719 L 91.410156 38 L 12.8125 83.933594 Z M -5.085938 53.695312 " clip-rule="nonzero"/></clipPath><clipPath id="4b2f6f43ad"><path d="M -12.628906 30.472656 L 91.296875 -0.265625 L 108.277344 56.414062 L 4.351562 87.152344 Z M -12.628906 30.472656 " clip-rule="nonzero"/></clipPath><clipPath id="82022f70e1"><path d="M -5.085938 53.695312 L 82.808594 2.324219 L 100.703125 32.558594 L 12.8125 83.933594 Z M -5.085938 53.695312 " clip-rule="nonzero"/></clipPath><clipPath id="b82d93007f"><path d="M -12.628906 30.472656 L 91.296875 -0.265625 L 108.277344 56.414062 L 4.351562 87.152344 Z M -12.628906 30.472656 " clip-rule="nonzero"/></clipPath><clipPath id="8ddd515554"><path d="M -5.085938 53.695312 L 82.808594 2.324219 L 100.703125 32.558594 L 12.8125 83.933594 Z M -5.085938 53.695312 " clip-rule="nonzero"/></clipPath><clipPath id="277bf201cf"><path d="M 61.1875 27.066406 L 70.785156 27.066406 L 70.785156 35.734375 L 61.1875 35.734375 Z M 61.1875 27.066406 " clip-rule="nonzero"/></clipPath><clipPath id="f27b1ffe51"><path d="M -5.144531 46.320312 L 59.414062 27.226562 L 70.222656 63.308594 L 5.664062 82.402344 Z M -5.144531 46.320312 " clip-rule="nonzero"/></clipPath><clipPath id="0eb0d693f5"><path d="M -5.542969 46.382812 L 59.6875 27.089844 L 70.699219 63.839844 L 5.46875 83.132812 Z M -5.542969 46.382812 " clip-rule="nonzero"/></clipPath><clipPath id="c743ccd92f"><path d="M -12.433594 33.152344 L 83.734375 4.710938 L 100.148438 59.503906 L 3.984375 87.941406 Z M -12.433594 33.152344 " clip-rule="nonzero"/></clipPath><clipPath id="6054503dd6"><path d="M 59.449219 26.976562 L 80.992188 20.605469 L 85.144531 34.460938 L 63.597656 40.832031 Z M 59.449219 26.976562 " clip-rule="nonzero"/></clipPath><clipPath id="7d69238d92"><path d="M -5.085938 53.695312 L 73.511719 7.761719 L 91.410156 38 L 12.8125 83.933594 Z M -5.085938 53.695312 " clip-rule="nonzero"/></clipPath><clipPath id="dffae11411"><path d="M -12.628906 30.472656 L 91.296875 -0.265625 L 108.277344 56.414062 L 4.351562 87.152344 Z M -12.628906 30.472656 " clip-rule="nonzero"/></clipPath><clipPath id="b1fab50ca6"><path d="M -5.085938 53.695312 L 82.808594 2.324219 L 100.703125 32.558594 L 12.8125 83.933594 Z M -5.085938 53.695312 " clip-rule="nonzero"/></clipPath><clipPath id="c4b052d3d4"><path d="M -12.628906 30.472656 L 91.296875 -0.265625 L 108.277344 56.414062 L 4.351562 87.152344 Z M -12.628906 30.472656 " clip-rule="nonzero"/></clipPath><clipPath id="77e37311b6"><path d="M -5.085938 53.695312 L 82.808594 2.324219 L 100.703125 32.558594 L 12.8125 83.933594 Z M -5.085938 53.695312 " clip-rule="nonzero"/></clipPath><clipPath id="48c64c3d16"><path d="M 1 27.066406 L 70.785156 27.066406 L 70.785156 67.804688 L 1 67.804688 Z M 1 27.066406 " clip-rule="nonzero"/></clipPath><clipPath id="5d142f7441"><path d="M -5.144531 46.320312 L 59.414062 27.226562 L 70.222656 63.308594 L 5.664062 82.402344 Z M -5.144531 46.320312 " clip-rule="nonzero"/></clipPath><clipPath id="d9ba4a042b"><path d="M -5.542969 46.382812 L 59.6875 27.089844 L 70.699219 63.839844 L 5.46875 83.132812 Z M -5.542969 46.382812 " clip-rule="nonzero"/></clipPath><clipPath id="6701a00bdb"><path d="M -12.433594 33.152344 L 83.734375 4.710938 L 100.148438 59.503906 L 3.984375 87.941406 Z M -12.433594 33.152344 " clip-rule="nonzero"/></clipPath><clipPath id="3465ebf989"><path d="M -6.1875 38.164062 L 83.800781 11.550781 L 93.609375 44.300781 L 3.625 70.914062 Z M -6.1875 38.164062 " clip-rule="nonzero"/></clipPath><clipPath id="4d6730a4e9"><path d="M -5.085938 53.695312 L 73.511719 7.761719 L 91.410156 38 L 12.8125 83.933594 Z M -5.085938 53.695312 " clip-rule="nonzero"/></clipPath><clipPath id="3fbc7b73c1"><path d="M -12.628906 30.472656 L 91.296875 -0.265625 L 108.277344 56.414062 L 4.351562 87.152344 Z M -12.628906 30.472656 " clip-rule="nonzero"/></clipPath><clipPath id="f27e74e96f"><path d="M -5.085938 53.695312 L 82.808594 2.324219 L 100.703125 32.558594 L 12.8125 83.933594 Z M -5.085938 53.695312 " clip-rule="nonzero"/></clipPath><clipPath id="4de2735a29"><path d="M -12.628906 30.472656 L 91.296875 -0.265625 L 108.277344 56.414062 L 4.351562 87.152344 Z M -12.628906 30.472656 " clip-rule="nonzero"/></clipPath><clipPath id="c163e16a80"><path d="M -5.085938 53.695312 L 82.808594 2.324219 L 100.703125 32.558594 L 12.8125 83.933594 Z M -5.085938 53.695312 " clip-rule="nonzero"/></clipPath><clipPath id="15573872af"><path d="M 61.1875 27.066406 L 70.785156 27.066406 L 70.785156 35.734375 L 61.1875 35.734375 Z M 61.1875 27.066406 " clip-rule="nonzero"/></clipPath><clipPath id="45fc7ff8e0"><path d="M -5.144531 46.320312 L 59.414062 27.226562 L 70.222656 63.308594 L 5.664062 82.402344 Z M -5.144531 46.320312 " clip-rule="nonzero"/></clipPath><clipPath id="0b78d22e2a"><path d="M -5.542969 46.382812 L 59.6875 27.089844 L 70.699219 63.839844 L 5.46875 83.132812 Z M -5.542969 46.382812 " clip-rule="nonzero"/></clipPath><clipPath id="2996f11a6b"><path d="M -12.433594 33.152344 L 83.734375 4.710938 L 100.148438 59.503906 L 3.984375 87.941406 Z M -12.433594 33.152344 " clip-rule="nonzero"/></clipPath><clipPath id="2e18580c5f"><path d="M 59.449219 26.976562 L 80.992188 20.605469 L 85.144531 34.460938 L 63.597656 40.832031 Z M 59.449219 26.976562 " clip-rule="nonzero"/></clipPath><clipPath id="5ded119667"><path d="M -5.085938 53.695312 L 73.511719 7.761719 L 91.410156 38 L 12.8125 83.933594 Z M -5.085938 53.695312 " clip-rule="nonzero"/></clipPath><clipPath id="da3d8c22f8"><path d="M -12.628906 30.472656 L 91.296875 -0.265625 L 108.277344 56.414062 L 4.351562 87.152344 Z M -12.628906 30.472656 " clip-rule="nonzero"/></clipPath><clipPath id="d3b0d800c1"><path d="M -5.085938 53.695312 L 82.808594 2.324219 L 100.703125 32.558594 L 12.8125 83.933594 Z M -5.085938 53.695312 " clip-rule="nonzero"/></clipPath><clipPath id="cded01a180"><path d="M -12.628906 30.472656 L 91.296875 -0.265625 L 108.277344 56.414062 L 4.351562 87.152344 Z M -12.628906 30.472656 " clip-rule="nonzero"/></clipPath><clipPath id="8940e3824d"><path d="M -5.085938 53.695312 L 82.808594 2.324219 L 100.703125 32.558594 L 12.8125 83.933594 Z M -5.085938 53.695312 " clip-rule="nonzero"/></clipPath><clipPath id="76aa3c5c3d"><path d="M 53.335938 19.265625 L 80 19.265625 L 80 53.9375 L 53.335938 53.9375 Z M 53.335938 19.265625 " clip-rule="nonzero"/></clipPath><clipPath id="a06181deae"><path d="M 53.375 25.933594 L 68.3125 19.875 L 79.714844 47.628906 L 64.777344 53.6875 Z M 53.375 25.933594 " clip-rule="nonzero"/></clipPath><clipPath id="a818422b91"><path d="M 53.121094 25.984375 L 68.714844 19.65625 L 80.382812 48.058594 L 64.789062 54.378906 Z M 53.121094 25.984375 " clip-rule="nonzero"/></clipPath><clipPath id="4dabfb558f"><path d="M -2.449219 32.71875 L 90.449219 -4.960938 L 112.195312 47.964844 L 19.296875 85.640625 Z M -2.449219 32.71875 " clip-rule="nonzero"/></clipPath><clipPath id="9b7a05eb8d"><path d="M 4.261719 37.089844 L 91.1875 1.835938 L 104.183594 33.46875 L 17.257812 68.726562 Z M 4.261719 37.089844 " clip-rule="nonzero"/></clipPath><clipPath id="267d12a303"><path d="M 6.894531 52.441406 L 80.574219 -0.933594 L 101.371094 27.414062 L 27.691406 80.792969 Z M 6.894531 52.441406 " clip-rule="nonzero"/></clipPath><clipPath id="42402c7c49"><path d="M -2.90625 30.0625 L 97.480469 -10.652344 L 119.976562 44.097656 L 19.585938 84.816406 Z M -2.90625 30.0625 " clip-rule="nonzero"/></clipPath><clipPath id="a82dae636e"><path d="M 6.894531 52.441406 L 89.289062 -7.246094 L 110.085938 21.097656 L 27.691406 80.792969 Z M 6.894531 52.441406 " clip-rule="nonzero"/></clipPath><clipPath id="a98d9951ec"><path d="M -2.90625 30.0625 L 97.480469 -10.652344 L 119.976562 44.097656 L 19.585938 84.816406 Z M -2.90625 30.0625 " clip-rule="nonzero"/></clipPath><clipPath id="2166f1e393"><path d="M 6.894531 52.441406 L 89.289062 -7.246094 L 110.085938 21.097656 L 27.691406 80.792969 Z M 6.894531 52.441406 " clip-rule="nonzero"/></clipPath><clipPath id="8cffa96cfb"><path d="M 70 19.265625 L 80 19.265625 L 80 27 L 70 27 Z M 70 19.265625 " clip-rule="nonzero"/></clipPath><clipPath id="a629368567"><path d="M 53.375 25.933594 L 68.3125 19.875 L 79.714844 47.628906 L 64.777344 53.6875 Z M 53.375 25.933594 " clip-rule="nonzero"/></clipPath><clipPath id="91d9d192a5"><path d="M 53.121094 25.984375 L 68.714844 19.65625 L 80.382812 48.058594 L 64.789062 54.378906 Z M 53.121094 25.984375 " clip-rule="nonzero"/></clipPath><clipPath id="6c7714964b"><path d="M -2.449219 32.71875 L 90.449219 -4.960938 L 112.195312 47.964844 L 19.296875 85.640625 Z M -2.449219 32.71875 " clip-rule="nonzero"/></clipPath><clipPath id="da922eace5"><path d="M 68.476562 19.5625 L 89.289062 11.121094 L 94.789062 24.507812 L 73.972656 32.945312 Z M 68.476562 19.5625 " clip-rule="nonzero"/></clipPath><clipPath id="3f7417d2a9"><path d="M 6.894531 52.441406 L 80.574219 -0.933594 L 101.371094 27.414062 L 27.691406 80.792969 Z M 6.894531 52.441406 " clip-rule="nonzero"/></clipPath><clipPath id="79293a0aab"><path d="M -2.90625 30.0625 L 97.480469 -10.652344 L 119.976562 44.097656 L 19.585938 84.816406 Z M -2.90625 30.0625 " clip-rule="nonzero"/></clipPath><clipPath id="0a0225c13a"><path d="M 6.894531 52.441406 L 89.289062 -7.246094 L 110.085938 21.097656 L 27.691406 80.792969 Z M 6.894531 52.441406 " clip-rule="nonzero"/></clipPath><clipPath id="a07c4216fe"><path d="M -2.90625 30.0625 L 97.480469 -10.652344 L 119.976562 44.097656 L 19.585938 84.816406 Z M -2.90625 30.0625 " clip-rule="nonzero"/></clipPath><clipPath id="cdd96fc47f"><path d="M 6.894531 52.441406 L 89.289062 -7.246094 L 110.085938 21.097656 L 27.691406 80.792969 Z M 6.894531 52.441406 " clip-rule="nonzero"/></clipPath><clipPath id="2fbf8f3b75"><path d="M 53.335938 19.265625 L 80 19.265625 L 80 53.9375 L 53.335938 53.9375 Z M 53.335938 19.265625 " clip-rule="nonzero"/></clipPath><clipPath id="7875e9ed78"><path d="M 53.375 25.933594 L 68.3125 19.875 L 79.714844 47.628906 L 64.777344 53.6875 Z M 53.375 25.933594 " clip-rule="nonzero"/></clipPath><clipPath id="9a36e83352"><path d="M 53.121094 25.984375 L 68.714844 19.65625 L 80.382812 48.058594 L 64.789062 54.378906 Z M 53.121094 25.984375 " clip-rule="nonzero"/></clipPath><clipPath id="2e627aa4af"><path d="M -2.449219 32.71875 L 90.449219 -4.960938 L 112.195312 47.964844 L 19.296875 85.640625 Z M -2.449219 32.71875 " clip-rule="nonzero"/></clipPath><clipPath id="c0671ecc12"><path d="M 4.261719 37.089844 L 91.1875 1.835938 L 104.183594 33.46875 L 17.257812 68.726562 Z M 4.261719 37.089844 " clip-rule="nonzero"/></clipPath><clipPath id="eaafdd863c"><path d="M 6.894531 52.441406 L 80.574219 -0.933594 L 101.371094 27.414062 L 27.691406 80.792969 Z M 6.894531 52.441406 " clip-rule="nonzero"/></clipPath><clipPath id="e272f94d41"><path d="M -2.90625 30.0625 L 97.480469 -10.652344 L 119.976562 44.097656 L 19.585938 84.816406 Z M -2.90625 30.0625 " clip-rule="nonzero"/></clipPath><clipPath id="4d94fc12e3"><path d="M 6.894531 52.441406 L 89.289062 -7.246094 L 110.085938 21.097656 L 27.691406 80.792969 Z M 6.894531 52.441406 " clip-rule="nonzero"/></clipPath><clipPath id="dcfe056234"><path d="M -2.90625 30.0625 L 97.480469 -10.652344 L 119.976562 44.097656 L 19.585938 84.816406 Z M -2.90625 30.0625 " clip-rule="nonzero"/></clipPath><clipPath id="01089a0cb4"><path d="M 6.894531 52.441406 L 89.289062 -7.246094 L 110.085938 21.097656 L 27.691406 80.792969 Z M 6.894531 52.441406 " clip-rule="nonzero"/></clipPath><clipPath id="b930925033"><path d="M 70 19.265625 L 80 19.265625 L 80 27 L 70 27 Z M 70 19.265625 " clip-rule="nonzero"/></clipPath><clipPath id="4eb744c048"><path d="M 53.375 25.933594 L 68.3125 19.875 L 79.714844 47.628906 L 64.777344 53.6875 Z M 53.375 25.933594 " clip-rule="nonzero"/></clipPath><clipPath id="67c282a2d3"><path d="M 53.121094 25.984375 L 68.714844 19.65625 L 80.382812 48.058594 L 64.789062 54.378906 Z M 53.121094 25.984375 " clip-rule="nonzero"/></clipPath><clipPath id="7a2ef3cdc9"><path d="M -2.449219 32.71875 L 90.449219 -4.960938 L 112.195312 47.964844 L 19.296875 85.640625 Z M -2.449219 32.71875 " clip-rule="nonzero"/></clipPath><clipPath id="2058b3ee26"><path d="M 68.476562 19.5625 L 89.289062 11.121094 L 94.789062 24.507812 L 73.972656 32.945312 Z M 68.476562 19.5625 " clip-rule="nonzero"/></clipPath><clipPath id="bd52346ee2"><path d="M 6.894531 52.441406 L 80.574219 -0.933594 L 101.371094 27.414062 L 27.691406 80.792969 Z M 6.894531 52.441406 " clip-rule="nonzero"/></clipPath><clipPath id="624be1eb48"><path d="M -2.90625 30.0625 L 97.480469 -10.652344 L 119.976562 44.097656 L 19.585938 84.816406 Z M -2.90625 30.0625 " clip-rule="nonzero"/></clipPath><clipPath id="6de10b5f82"><path d="M 6.894531 52.441406 L 89.289062 -7.246094 L 110.085938 21.097656 L 27.691406 80.792969 Z M 6.894531 52.441406 " clip-rule="nonzero"/></clipPath><clipPath id="0000e08f33"><path d="M -2.90625 30.0625 L 97.480469 -10.652344 L 119.976562 44.097656 L 19.585938 84.816406 Z M -2.90625 30.0625 " clip-rule="nonzero"/></clipPath><clipPath id="b5350f8c7f"><path d="M 6.894531 52.441406 L 89.289062 -7.246094 L 110.085938 21.097656 L 27.691406 80.792969 Z M 6.894531 52.441406 " clip-rule="nonzero"/></clipPath><clipPath id="6615c52ecf"><path d="M 62.324219 1.726562 L 81.589844 1.726562 L 81.589844 20.992188 L 62.324219 20.992188 Z M 62.324219 1.726562 " clip-rule="nonzero"/></clipPath><clipPath id="bc1acbb9c5"><path d="M 71.957031 1.726562 C 66.636719 1.726562 62.324219 6.039062 62.324219 11.359375 C 62.324219 16.679688 66.636719 20.992188 71.957031 20.992188 C 77.277344 20.992188 81.589844 16.679688 81.589844 11.359375 C 81.589844 6.039062 77.277344 1.726562 71.957031 1.726562 Z M 71.957031 1.726562 " clip-rule="nonzero"/></clipPath><clipPath id="1f003deac4"><path d="M 0.324219 0.726562 L 19.589844 0.726562 L 19.589844 19.992188 L 0.324219 19.992188 Z M 0.324219 0.726562 " clip-rule="nonzero"/></clipPath><clipPath id="e7df6321f2"><path d="M 9.957031 0.726562 C 4.636719 0.726562 0.324219 5.039062 0.324219 10.359375 C 0.324219 15.679688 4.636719 19.992188 9.957031 19.992188 C 15.277344 19.992188 19.589844 15.679688 19.589844 10.359375 C 19.589844 5.039062 15.277344 0.726562 9.957031 0.726562 Z M 9.957031 0.726562 " clip-rule="nonzero"/></clipPath><clipPath id="6f1c8b3f3b"><rect x="0" width="20" y="0" height="20"/></clipPath><clipPath id="3c1bed2844"><path d="M 23.84375 0.238281 L 63 0.238281 L 63 81 L 23.84375 81 Z M 23.84375 0.238281 " clip-rule="nonzero"/></clipPath><clipPath id="bc7407981d"><path d="M 23.84375 0.238281 L 62 0.238281 L 62 81 L 23.84375 81 Z M 23.84375 0.238281 " clip-rule="nonzero"/></clipPath><clipPath id="e6ebd1e2e8"><path d="M 7 0.238281 L 22.417969 0.238281 L 22.417969 58.214844 L 7 58.214844 Z M 7 0.238281 " clip-rule="nonzero"/></clipPath><clipPath id="2e252c4e9c"><path d="M 59 16 L 77 16 L 77 49 L 59 49 Z M 59 16 " clip-rule="nonzero"/></clipPath><clipPath id="66221b2f13"><path d="M 59.648438 17.921875 L 63.777344 16.234375 L 76.417969 47.203125 L 72.289062 48.886719 Z M 59.648438 17.921875 " clip-rule="nonzero"/></clipPath><clipPath id="852a5f9596"><path d="M 59.183594 17.992188 L 64.691406 15.746094 L 77.613281 47.402344 L 72.109375 49.648438 Z M 59.183594 17.992188 " clip-rule="nonzero"/></clipPath><clipPath id="33b8ea9a5b"><path d="M 0.117188 25.195312 L 98.527344 -14.976562 L 121.5625 41.457031 L 23.152344 81.628906 Z M 0.117188 25.195312 " clip-rule="nonzero"/></clipPath><clipPath id="c6bf29c0c6"><path d="M 7.222656 29.863281 L 99.308594 -7.726562 L 113.078125 26 L 20.992188 63.589844 Z M 7.222656 29.863281 " clip-rule="nonzero"/></clipPath><clipPath id="015e632d63"><path d="M 10.011719 46.230469 L 88.066406 -10.683594 L 110.097656 19.542969 L 32.042969 76.457031 Z M 10.011719 46.230469 " clip-rule="nonzero"/></clipPath><clipPath id="eb4c817376"><path d="M -0.375 22.371094 L 105.980469 -21.042969 L 129.808594 37.332031 L 23.457031 80.746094 Z M -0.375 22.371094 " clip-rule="nonzero"/></clipPath><clipPath id="3b6188f720"><path d="M 10.011719 46.230469 L 97.300781 -17.414062 L 119.332031 12.808594 L 32.042969 76.457031 Z M 10.011719 46.230469 " clip-rule="nonzero"/></clipPath><clipPath id="042878a6de"><path d="M -0.375 22.371094 L 105.980469 -21.042969 L 129.808594 37.332031 L 23.457031 80.746094 Z M -0.375 22.371094 " clip-rule="nonzero"/></clipPath><clipPath id="bad4f0bb75"><path d="M 10.011719 46.230469 L 97.300781 -17.414062 L 119.332031 12.808594 L 32.042969 76.457031 Z M 10.011719 46.230469 " clip-rule="nonzero"/></clipPath></defs><g clip-path="url(#7b49b0b966)"><g transform="matrix(1, 0, 0, 1, 65, 33)"><g clip-path="url(#5485f8d8e4)"><g clip-path="url(#b15a2503a9)"><path fill="#ffffff" d="M 0.660156 0.0390625 L 13.253906 0.0390625 L 13.253906 47.957031 L 0.660156 47.957031 Z M 0.660156 0.0390625 " fill-opacity="1" fill-rule="nonzero"/></g></g></g></g><g clip-path="url(#27e12ce42c)"><path fill="#ffffff" d="M 7.988281 0.597656 L 21.027344 0.597656 L 21.027344 80.691406 L 7.988281 80.691406 Z M 62.324219 80.691406 L 48.511719 80.691406 L 33.394531 51.691406 C 33.183594 51.691406 32.945312 51.71875 32.691406 51.761719 C 32.425781 51.789062 32.039062 51.796875 31.527344 51.796875 C 31.035156 51.796875 30.292969 51.796875 29.308594 51.796875 C 28.339844 51.796875 27.0625 51.796875 25.464844 51.796875 L 25.464844 42.210938 L 32.867188 42.210938 C 34.460938 42.210938 36.046875 41.949219 37.621094 41.402344 C 39.21875 40.863281 40.660156 39.984375 41.957031 38.757812 C 43.269531 37.515625 44.328125 35.789062 45.128906 33.578125 C 45.921875 31.375 46.324219 28.636719 46.324219 25.371094 C 46.324219 24.082031 46.132812 22.585938 45.761719 20.894531 C 45.410156 19.183594 44.671875 17.546875 43.542969 15.996094 C 42.433594 14.429688 40.863281 13.125 38.820312 12.085938 C 36.792969 11.027344 34.117188 10.5 30.785156 10.5 L 25.464844 10.5 L 25.464844 0.597656 L 31 0.597656 C 34.398438 0.597656 37.773438 1.152344 41.109375 2.253906 C 44.441406 3.335938 47.425781 4.96875 50.0625 7.152344 C 52.710938 9.320312 54.851562 11.933594 56.472656 15.011719 C 58.113281 18.09375 58.941406 21.546875 58.941406 25.371094 C 58.941406 31.175781 57.601562 36.105469 54.921875 40.167969 C 52.246094 44.210938 48.617188 47.214844 44.035156 49.1875 Z M 62.324219 80.691406 " fill-opacity="1" fill-rule="nonzero"/><path fill="#ffffff" d="M 7.617188 0.597656 L 20.652344 0.597656 L 20.652344 80.691406 L 7.617188 80.691406 Z M 61.949219 80.691406 L 48.136719 80.691406 L 33.019531 51.691406 C 32.808594 51.691406 32.570312 51.71875 32.316406 51.761719 C 32.050781 51.789062 31.664062 51.796875 31.152344 51.796875 C 30.660156 51.796875 29.921875 51.796875 28.933594 51.796875 C 27.964844 51.796875 26.6875 51.796875 25.09375 51.796875 L 25.09375 42.210938 L 32.492188 42.210938 C 34.085938 42.210938 35.671875 41.949219 37.25 41.402344 C 38.84375 40.863281 40.289062 39.984375 41.582031 38.757812 C 42.894531 37.515625 43.953125 35.789062 44.753906 33.578125 C 45.546875 31.375 45.953125 28.636719 45.953125 25.371094 C 45.953125 24.082031 45.757812 22.585938 45.390625 20.894531 C 45.035156 19.183594 44.296875 17.546875 43.167969 15.996094 C 42.058594 14.429688 40.492188 13.125 38.445312 12.085938 C 36.421875 11.027344 33.742188 10.5 30.414062 10.5 L 25.09375 10.5 L 25.09375 0.597656 L 30.625 0.597656 C 34.023438 0.597656 37.398438 1.152344 40.738281 2.253906 C 44.066406 3.335938 47.054688 4.96875 49.6875 7.152344 C 52.339844 9.320312 54.480469 11.933594 56.101562 15.011719 C 57.738281 18.09375 58.566406 21.546875 58.566406 25.371094 C 58.566406 31.175781 57.226562 36.105469 54.550781 40.167969 C 51.871094 44.210938 48.242188 47.214844 43.664062 49.1875 Z M 61.949219 80.691406 " fill-opacity="1" fill-rule="nonzero"/></g><g clip-path="url(#646eb31ee6)"><g clip-path="url(#1f30188de0)"><g clip-path="url(#c020c1de28)"><path fill="#36d167" d="M 82.136719 -14.738281 C 81.457031 -15.046875 80.753906 -15.300781 80.035156 -15.5 C 79.3125 -15.695312 78.582031 -15.839844 77.847656 -15.941406 C 76.378906 -16.136719 74.890625 -16.160156 73.425781 -16.050781 C 71.960938 -15.953125 70.515625 -15.707031 69.09375 -15.386719 C 68.386719 -15.21875 67.679688 -15.035156 66.984375 -14.828125 C 66.292969 -14.613281 65.601562 -14.394531 64.921875 -14.144531 C 64.242188 -13.898438 63.566406 -13.636719 62.898438 -13.355469 C 62.230469 -13.078125 61.574219 -12.78125 60.921875 -12.472656 C 58.320312 -11.226562 55.832031 -9.773438 53.464844 -8.140625 C 52.285156 -7.328125 51.128906 -6.46875 50.003906 -5.578125 C 48.882812 -4.691406 47.792969 -3.753906 46.730469 -2.792969 C 44.601562 -0.871094 42.601562 1.1875 40.730469 3.367188 C 38.855469 5.542969 37.117188 7.839844 35.539062 10.265625 C 34.75 11.472656 34 12.714844 33.300781 13.984375 C 32.601562 15.257812 31.945312 16.558594 31.351562 17.894531 C 30.160156 20.566406 29.167969 23.359375 28.550781 26.296875 C 28.238281 27.769531 28.015625 29.273438 27.917969 30.8125 C 27.824219 32.351562 27.855469 33.929688 28.074219 35.523438 C 28.304688 37.113281 28.71875 38.726562 29.414062 40.28125 C 30.101562 41.832031 31.082031 43.316406 32.316406 44.566406 C 32.46875 44.722656 32.628906 44.871094 32.785156 45.023438 C 32.949219 45.171875 33.121094 45.3125 33.285156 45.453125 C 33.453125 45.597656 33.621094 45.742188 33.792969 45.875 L 34.328125 46.257812 L 34.597656 46.445312 L 34.734375 46.542969 L 34.875 46.621094 L 35.441406 46.953125 L 35.726562 47.121094 C 35.820312 47.171875 35.921875 47.214844 36.015625 47.261719 L 36.605469 47.546875 C 38.183594 48.261719 39.839844 48.6875 41.472656 48.890625 C 43.105469 49.09375 44.714844 49.070312 46.277344 48.921875 C 47.839844 48.765625 49.359375 48.476562 50.828125 48.085938 C 52.304688 47.703125 53.730469 47.207031 55.113281 46.65625 C 55.808594 46.382812 56.480469 46.066406 57.15625 45.765625 C 57.820312 45.441406 58.488281 45.125 59.136719 44.777344 C 60.441406 44.101562 61.695312 43.339844 62.917969 42.550781 C 64.148438 41.769531 65.320312 40.914062 66.476562 40.039062 C 67.617188 39.148438 68.742188 38.242188 69.808594 37.277344 C 70.324219 36.824219 70.824219 36.351562 71.320312 35.882812 L 73.898438 43.359375 L 81.617188 20.722656 L 60.152344 31.515625 L 67.726562 32.945312 C 67.417969 33.1875 67.109375 33.429688 66.792969 33.660156 C 66.523438 33.863281 66.261719 34.066406 65.988281 34.261719 L 65.175781 34.84375 C 64.910156 35.039062 64.632812 35.226562 64.359375 35.414062 L 63.535156 35.972656 L 62.695312 36.515625 L 62.277344 36.785156 L 61.851562 37.039062 L 61.003906 37.558594 L 60.144531 38.054688 C 59.859375 38.226562 59.570312 38.382812 59.28125 38.539062 C 58.992188 38.691406 58.703125 38.851562 58.410156 39 C 57.820312 39.292969 57.242188 39.601562 56.648438 39.871094 C 56.058594 40.160156 55.460938 40.410156 54.863281 40.671875 C 54.261719 40.90625 53.664062 41.15625 53.054688 41.367188 C 51.847656 41.8125 50.625 42.191406 49.402344 42.472656 C 48.175781 42.753906 46.949219 42.96875 45.746094 43.066406 C 44.539062 43.171875 43.347656 43.152344 42.226562 43.007812 C 41.097656 42.863281 40.035156 42.578125 39.082031 42.144531 C 38.128906 41.710938 37.292969 41.128906 36.558594 40.417969 C 35.839844 39.707031 35.253906 38.847656 34.808594 37.878906 C 34.363281 36.910156 34.058594 35.824219 33.886719 34.679688 C 33.707031 33.539062 33.652344 32.339844 33.710938 31.121094 C 33.761719 29.902344 33.921875 28.664062 34.160156 27.425781 C 34.644531 24.945312 35.425781 22.472656 36.429688 20.0625 C 37.4375 17.65625 38.648438 15.308594 40.011719 13.042969 C 40.699219 11.90625 41.421875 10.796875 42.1875 9.703125 C 42.945312 8.613281 43.738281 7.539062 44.566406 6.492188 C 45.394531 5.445312 46.257812 4.421875 47.144531 3.421875 C 48.039062 2.425781 48.953125 1.445312 49.898438 0.496094 C 50.847656 -0.449219 51.820312 -1.371094 52.824219 -2.253906 C 53.828125 -3.144531 54.855469 -4.003906 55.917969 -4.828125 C 58.035156 -6.46875 60.253906 -7.980469 62.589844 -9.289062 C 64.921875 -10.59375 67.355469 -11.707031 69.886719 -12.511719 C 71.148438 -12.910156 72.433594 -13.226562 73.734375 -13.4375 C 75.027344 -13.65625 76.339844 -13.75 77.636719 -13.695312 C 78.289062 -13.667969 78.933594 -13.601562 79.570312 -13.488281 C 80.207031 -13.382812 80.835938 -13.230469 81.445312 -13.027344 C 82.667969 -12.617188 83.820312 -12 84.839844 -11.183594 C 85.109375 -10.96875 85.507812 -10.976562 85.765625 -11.222656 C 86.042969 -11.492188 86.050781 -11.933594 85.78125 -12.207031 C 84.753906 -13.265625 83.496094 -14.117188 82.136719 -14.738281 Z M 82.136719 -14.738281 " fill-opacity="1" fill-rule="nonzero"/></g></g></g><g clip-path="url(#79aa4fe65b)"><g clip-path="url(#ae41ddb0cf)"><g clip-path="url(#373b3a5058)"><g clip-path="url(#3ba873b313)"><g clip-path="url(#f558fff6f8)"><g clip-path="url(#9598d2fe94)"><g clip-path="url(#f9685ef531)"><g clip-path="url(#c1ff50a9b2)"><g clip-path="url(#f7ff3912b3)"><g clip-path="url(#3353cebc46)"><path fill="#36d167" d="M 79.691406 33.507812 C 67.296875 43.496094 53.691406 51.5 39.363281 58.292969 C 32.160156 61.617188 24.800781 64.625 17.039062 66.527344 C 12.742188 67.457031 4.046875 69.457031 1.664062 64.371094 C -0.851562 58.257812 9.949219 49.363281 14.085938 45.8125 C 29.324219 33.59375 46.550781 23.640625 65.082031 17.34375 C 72.453125 14.84375 80.007812 12.742188 87.6875 11.457031 C 83.863281 12.226562 80.097656 13.257812 76.375 14.386719 C 54.089844 21.101562 33.546875 32.972656 16.082031 48.164062 C 12.890625 51.042969 4.9375 58.40625 5.125 62.578125 C 5.339844 63.46875 6.933594 63.558594 7.890625 63.597656 C 10.554688 63.621094 13.234375 62.984375 15.886719 62.285156 C 19.488281 61.28125 23.078125 59.902344 26.585938 58.460938 C 37.175781 53.976562 47.269531 48.273438 56.875 41.980469 C 63.265625 37.757812 69.457031 33.207031 75.089844 28.246094 C 75.097656 28.214844 79.691406 33.507812 79.691406 33.507812 Z M 79.691406 33.507812 " fill-opacity="1" fill-rule="nonzero"/></g></g></g></g></g></g></g></g></g></g><g clip-path="url(#98dfee5a39)"><g clip-path="url(#b63002ef8d)"><g clip-path="url(#44733b817b)"><g clip-path="url(#41dfe00ca6)"><g clip-path="url(#cef1d63451)"><g clip-path="url(#4ac12c0579)"><g clip-path="url(#cb46bfd4c0)"><g clip-path="url(#2ea2954441)"><g clip-path="url(#a407edabc6)"><g clip-path="url(#4208391ebf)"><path fill="#36d167" d="M 65.359375 26.660156 L 78.507812 26.835938 C 80.851562 26.847656 82.703125 28.765625 82.65625 31.09375 C 82.640625 33.417969 80.710938 35.257812 78.371094 35.207031 L 65.21875 35.03125 C 62.878906 35.019531 61.023438 33.101562 61.074219 30.777344 C 61.125 29.414062 61.796875 28.203125 62.8125 27.449219 C 63.539062 26.953125 64.425781 26.636719 65.359375 26.660156 Z M 65.359375 26.660156 " fill-opacity="1" fill-rule="nonzero"/></g></g></g></g></g></g></g></g></g></g><g clip-path="url(#b1245b87cf)"><g clip-path="url(#ba63cbdebd)"><g clip-path="url(#fca6f552d6)"><g clip-path="url(#4766ca6cb6)"><g clip-path="url(#5a46a36850)"><g clip-path="url(#49b9fdf0f0)"><g clip-path="url(#298a3b3217)"><g clip-path="url(#8e74554779)"><g clip-path="url(#f9d3046370)"><g clip-path="url(#a70a897a12)"><path fill="#36d167" d="M 79.691406 33.507812 C 67.296875 43.496094 53.691406 51.5 39.363281 58.292969 C 32.160156 61.617188 24.800781 64.625 17.039062 66.527344 C 12.742188 67.457031 4.046875 69.457031 1.664062 64.371094 C -0.851562 58.257812 9.949219 49.363281 14.085938 45.8125 C 29.324219 33.59375 46.550781 23.640625 65.082031 17.34375 C 72.453125 14.84375 80.007812 12.742188 87.6875 11.457031 C 83.863281 12.226562 80.097656 13.257812 76.375 14.386719 C 54.089844 21.101562 33.546875 32.972656 16.082031 48.164062 C 12.890625 51.042969 4.9375 58.40625 5.125 62.578125 C 5.339844 63.46875 6.933594 63.558594 7.890625 63.597656 C 10.554688 63.621094 13.234375 62.984375 15.886719 62.285156 C 19.488281 61.28125 23.078125 59.902344 26.585938 58.460938 C 37.175781 53.976562 47.269531 48.273438 56.875 41.980469 C 63.265625 37.757812 69.457031 33.207031 75.089844 28.246094 C 75.097656 28.214844 79.691406 33.507812 79.691406 33.507812 Z M 79.691406 33.507812 " fill-opacity="1" fill-rule="nonzero"/></g></g></g></g></g></g></g></g></g></g><g clip-path="url(#eb01904fcd)"><g clip-path="url(#a427b22ca9)"><g clip-path="url(#b613b3b544)"><g clip-path="url(#9ae0209d17)"><g clip-path="url(#3c5f8a8f91)"><g clip-path="url(#a8d55bb630)"><g clip-path="url(#367c85969a)"><g clip-path="url(#a23e19e617)"><g clip-path="url(#4d61349b8d)"><g clip-path="url(#96ecfa9a25)"><path fill="#36d167" d="M 65.359375 26.660156 L 78.507812 26.835938 C 80.851562 26.847656 82.703125 28.765625 82.65625 31.09375 C 82.640625 33.417969 80.710938 35.257812 78.371094 35.207031 L 65.21875 35.03125 C 62.878906 35.019531 61.023438 33.101562 61.074219 30.777344 C 61.125 29.414062 61.796875 28.203125 62.8125 27.449219 C 63.539062 26.953125 64.425781 26.636719 65.359375 26.660156 Z M 65.359375 26.660156 " fill-opacity="1" fill-rule="nonzero"/></g></g></g></g></g></g></g></g></g></g><g clip-path="url(#0ce0fe4f91)"><g clip-path="url(#f4c8b123e3)"><g clip-path="url(#4d70c94a42)"><g clip-path="url(#e0b5b0dc76)"><g clip-path="url(#63ba29393b)"><g clip-path="url(#29b218c655)"><g clip-path="url(#b44ab6a148)"><g clip-path="url(#42805ba35f)"><g clip-path="url(#b04b68ca6e)"><g clip-path="url(#ae0ba21058)"><path fill="#36d167" d="M 80.015625 31.269531 C 67.617188 41.261719 54.011719 49.265625 39.683594 56.058594 C 32.480469 59.382812 25.121094 62.390625 17.359375 64.296875 C 13.0625 65.222656 4.363281 67.222656 1.980469 62.136719 C -0.535156 56.023438 10.269531 47.128906 14.40625 43.578125 C 29.644531 31.359375 46.871094 21.40625 65.402344 15.105469 C 72.777344 12.609375 80.335938 10.507812 88.015625 9.222656 C 84.191406 9.988281 80.425781 11.023438 76.699219 12.152344 C 54.414062 18.867188 33.871094 30.734375 16.402344 45.929688 C 13.210938 48.8125 5.253906 56.171875 5.441406 60.34375 C 5.65625 61.238281 7.25 61.324219 8.210938 61.359375 C 10.875 61.386719 13.550781 60.75 16.207031 60.050781 C 19.804688 59.046875 23.398438 57.667969 26.90625 56.226562 C 37.496094 51.742188 47.59375 46.039062 57.199219 39.746094 C 63.585938 35.523438 69.78125 30.972656 75.414062 26.011719 C 75.421875 25.976562 80.015625 31.269531 80.015625 31.269531 Z M 80.015625 31.269531 " fill-opacity="1" fill-rule="nonzero"/><path fill="#36d167" d="M 80.015625 31.269531 C 67.617188 41.261719 54.011719 49.265625 39.683594 56.058594 C 32.480469 59.382812 25.121094 62.390625 17.359375 64.296875 C 13.0625 65.222656 4.363281 67.222656 1.980469 62.136719 C -0.535156 56.023438 10.269531 47.128906 14.40625 43.578125 C 29.644531 31.359375 46.871094 21.40625 65.402344 15.105469 C 72.777344 12.609375 80.335938 10.507812 88.015625 9.222656 C 84.191406 9.988281 80.425781 11.023438 76.699219 12.152344 C 54.414062 18.867188 33.871094 30.734375 16.402344 45.929688 C 13.210938 48.8125 5.253906 56.171875 5.441406 60.34375 C 5.65625 61.238281 7.25 61.324219 8.210938 61.359375 C 10.875 61.386719 13.550781 60.75 16.207031 60.050781 C 19.804688 59.046875 23.398438 57.667969 26.90625 56.226562 C 37.496094 51.742188 47.59375 46.039062 57.199219 39.746094 C 63.585938 35.523438 69.78125 30.972656 75.414062 26.011719 C 75.421875 25.976562 80.015625 31.269531 80.015625 31.269531 Z M 80.015625 31.269531 " fill-opacity="1" fill-rule="nonzero"/></g></g></g></g></g></g></g></g></g></g><g clip-path="url(#ee154e0f4a)"><g clip-path="url(#7d898fc15b)"><g clip-path="url(#643612d052)"><g clip-path="url(#daa683d4e2)"><g clip-path="url(#c4f28b78a2)"><g clip-path="url(#4618c9b1be)"><g clip-path="url(#0e81235ca6)"><g clip-path="url(#62148d75ab)"><g clip-path="url(#348962a31b)"><g clip-path="url(#e745f08db1)"><path fill="#36d167" d="M 76.691406 35.121094 C 63.753906 44.992188 49.648438 52.789062 34.832031 59.328125 C 27.390625 62.519531 19.792969 65.386719 11.8125 67.109375 C 7.402344 67.9375 -1.527344 69.726562 -3.820312 64.457031 C -6.21875 58.125 5.054688 49.332031 9.375 45.8125 C 25.265625 33.75 43.128906 24.058594 62.21875 18.148438 C 69.8125 15.804688 77.585938 13.871094 85.457031 12.78125 C 81.535156 13.453125 77.664062 14.402344 73.828125 15.449219 C 50.894531 21.675781 29.597656 33.230469 11.34375 48.277344 C 8.007812 51.140625 -0.3125 58.441406 -0.238281 62.714844 C -0.0429688 63.640625 1.582031 63.773438 2.558594 63.839844 C 5.277344 63.945312 8.027344 63.367188 10.753906 62.730469 C 14.457031 61.804688 18.164062 60.5 21.785156 59.125 C 32.71875 54.84375 43.183594 49.296875 53.160156 43.132812 C 59.796875 38.996094 66.246094 34.519531 72.132812 29.601562 C 72.148438 29.566406 76.691406 35.121094 76.691406 35.121094 Z M 76.691406 35.121094 " fill-opacity="1" fill-rule="nonzero"/></g></g></g></g></g></g></g></g></g></g><g clip-path="url(#13c6f988ae)"><g clip-path="url(#15a8455e2b)"><g clip-path="url(#27572918c7)"><g clip-path="url(#cc7d59dd44)"><g clip-path="url(#944d9dd8bf)"><g clip-path="url(#1f1ab1327e)"><g clip-path="url(#735cb89dcd)"><g clip-path="url(#5009d23705)"><g clip-path="url(#3163e309a9)"><g clip-path="url(#f9e4854d5a)"><path fill="#36d167" d="M 77.371094 28.660156 C 79.484375 29.667969 80.429688 32.257812 79.355469 34.394531 L 73.320312 46.867188 C 72.3125 48.960938 69.699219 49.875 67.570312 48.832031 C 65.445312 47.792969 64.515625 45.226562 65.589844 43.097656 L 71.625 30.625 C 71.984375 29.941406 72.453125 29.390625 73.054688 28.984375 C 74.285156 28.105469 75.945312 27.9375 77.371094 28.660156 Z M 77.371094 28.660156 " fill-opacity="1" fill-rule="nonzero"/></g></g></g></g></g></g></g></g></g></g><g clip-path="url(#f6f9345518)"><g clip-path="url(#8721c86d06)"><g clip-path="url(#8cc037f847)"><g clip-path="url(#ef0ba23c44)"><g clip-path="url(#65319d8ab9)"><g clip-path="url(#bbfe90505c)"><g clip-path="url(#db6b325a53)"><g clip-path="url(#99af2416b2)"><g clip-path="url(#f9b3c50426)"><g clip-path="url(#72082a3fc5)"><path fill="#36d167" d="M 62.246094 27.691406 L 75.664062 28.253906 C 78.058594 28.339844 79.894531 30.355469 79.78125 32.734375 C 79.703125 35.113281 77.683594 36.9375 75.292969 36.824219 L 61.875 36.261719 C 59.480469 36.179688 57.644531 34.167969 57.757812 31.78125 C 57.84375 30.394531 58.566406 29.171875 59.621094 28.429688 C 60.382812 27.941406 61.289062 27.640625 62.246094 27.691406 Z M 62.246094 27.691406 " fill-opacity="1" fill-rule="nonzero"/></g></g></g></g></g></g></g></g></g></g><g clip-path="url(#76d6175907)"><g clip-path="url(#71efeecea8)"><g clip-path="url(#2f6bbf0ee4)"><g clip-path="url(#e255b8f020)"><g clip-path="url(#ee62bd74ce)"><g clip-path="url(#af29eeea87)"><g clip-path="url(#d04d1a8164)"><g clip-path="url(#12e9b193fc)"><g clip-path="url(#8db041d987)"><g clip-path="url(#5c914c104f)"><path fill="#36d167" d="M 76.691406 35.121094 C 63.753906 44.992188 49.648438 52.789062 34.832031 59.328125 C 27.390625 62.519531 19.792969 65.386719 11.8125 67.109375 C 7.402344 67.9375 -1.527344 69.726562 -3.820312 64.457031 C -6.21875 58.125 5.054688 49.332031 9.375 45.8125 C 25.265625 33.75 43.128906 24.058594 62.21875 18.148438 C 69.8125 15.804688 77.585938 13.871094 85.457031 12.78125 C 81.535156 13.453125 77.664062 14.402344 73.828125 15.449219 C 50.894531 21.675781 29.597656 33.230469 11.34375 48.277344 C 8.007812 51.140625 -0.3125 58.441406 -0.238281 62.714844 C -0.0429688 63.640625 1.582031 63.773438 2.558594 63.839844 C 5.277344 63.945312 8.027344 63.367188 10.753906 62.730469 C 14.457031 61.804688 18.164062 60.5 21.785156 59.125 C 32.71875 54.84375 43.183594 49.296875 53.160156 43.132812 C 59.796875 38.996094 66.246094 34.519531 72.132812 29.601562 C 72.148438 29.566406 76.691406 35.121094 76.691406 35.121094 Z M 76.691406 35.121094 " fill-opacity="1" fill-rule="nonzero"/></g></g></g></g></g></g></g></g></g></g><g clip-path="url(#f80649234f)"><g clip-path="url(#ff9d8624d9)"><g clip-path="url(#dfb8fef5b1)"><g clip-path="url(#ff24c5b9dc)"><g clip-path="url(#7b931ba75a)"><g clip-path="url(#ab6e8f9b7d)"><g clip-path="url(#b55f7b0e9e)"><g clip-path="url(#0957293dcb)"><g clip-path="url(#9bccfa7d7c)"><g clip-path="url(#6bd189acc9)"><path fill="#36d167" d="M 77.371094 28.660156 C 79.484375 29.667969 80.429688 32.257812 79.355469 34.394531 L 73.320312 46.867188 C 72.3125 48.960938 69.699219 49.875 67.570312 48.832031 C 65.445312 47.792969 64.515625 45.226562 65.589844 43.097656 L 71.625 30.625 C 71.984375 29.941406 72.453125 29.390625 73.054688 28.984375 C 74.285156 28.105469 75.945312 27.9375 77.371094 28.660156 Z M 77.371094 28.660156 " fill-opacity="1" fill-rule="nonzero"/></g></g></g></g></g></g></g></g></g></g><g clip-path="url(#1252fbf990)"><g clip-path="url(#d3ab9128ae)"><g clip-path="url(#77d9d5e294)"><g clip-path="url(#d1274a7400)"><g clip-path="url(#0724897bee)"><g clip-path="url(#f6875db22e)"><g clip-path="url(#3b1ba9ed52)"><g clip-path="url(#c422cdd3c8)"><g clip-path="url(#dbc0ce0028)"><g clip-path="url(#bd31a90bf4)"><path fill="#36d167" d="M 62.246094 27.691406 L 75.664062 28.253906 C 78.058594 28.339844 79.894531 30.355469 79.78125 32.734375 C 79.703125 35.113281 77.683594 36.9375 75.292969 36.824219 L 61.875 36.261719 C 59.480469 36.179688 57.644531 34.167969 57.757812 31.78125 C 57.84375 30.394531 58.566406 29.171875 59.621094 28.429688 C 60.382812 27.941406 61.289062 27.640625 62.246094 27.691406 Z M 62.246094 27.691406 " fill-opacity="1" fill-rule="nonzero"/></g></g></g></g></g></g></g></g></g></g><g clip-path="url(#94cb099c1d)"><g clip-path="url(#c727d264e6)"><g clip-path="url(#09528525be)"><g clip-path="url(#fdb95f3eb4)"><g clip-path="url(#41602674d2)"><g clip-path="url(#ac033c3963)"><g clip-path="url(#54d674b0df)"><g clip-path="url(#c587dc4f69)"><g clip-path="url(#824eedf9a3)"><g clip-path="url(#1aebd9b0fa)"><path fill="#36d167" d="M 82.621094 29.375 C 70.675781 39.230469 57.539062 47.160156 43.683594 53.914062 C 36.71875 57.21875 29.59375 60.21875 22.066406 62.148438 C 17.898438 63.09375 9.46875 65.121094 7.09375 60.183594 C 4.578125 54.242188 14.988281 45.476562 18.96875 41.96875 C 33.644531 29.917969 50.285156 20.054688 68.230469 13.742188 C 75.371094 11.242188 82.695312 9.125 90.148438 7.800781 C 86.4375 8.582031 82.789062 9.625 79.179688 10.761719 C 57.585938 17.507812 37.746094 29.269531 20.929688 44.246094 C 17.863281 47.085938 10.207031 54.335938 10.441406 58.402344 C 10.660156 59.273438 12.210938 59.34375 13.144531 59.371094 C 15.734375 59.371094 18.328125 58.726562 20.898438 58.019531 C 24.386719 57.007812 27.867188 55.628906 31.261719 54.191406 C 41.503906 49.722656 51.257812 44.074219 60.527344 37.847656 C 66.691406 33.671875 72.664062 29.175781 78.085938 24.289062 C 78.09375 24.253906 82.621094 29.375 82.621094 29.375 Z M 82.621094 29.375 " fill-opacity="1" fill-rule="nonzero"/><path fill="#36d167" d="M 82.621094 29.375 C 70.675781 39.230469 57.539062 47.160156 43.683594 53.914062 C 36.71875 57.21875 29.59375 60.21875 22.066406 62.148438 C 17.898438 63.09375 9.46875 65.121094 7.09375 60.183594 C 4.578125 54.242188 14.988281 45.476562 18.96875 41.96875 C 33.644531 29.917969 50.285156 20.054688 68.230469 13.742188 C 75.371094 11.242188 82.695312 9.125 90.148438 7.800781 C 86.4375 8.582031 82.789062 9.625 79.179688 10.761719 C 57.585938 17.507812 37.746094 29.269531 20.929688 44.246094 C 17.863281 47.085938 10.207031 54.335938 10.441406 58.402344 C 10.660156 59.273438 12.210938 59.34375 13.144531 59.371094 C 15.734375 59.371094 18.328125 58.726562 20.898438 58.019531 C 24.386719 57.007812 27.867188 55.628906 31.261719 54.191406 C 41.503906 49.722656 51.257812 44.074219 60.527344 37.847656 C 66.691406 33.671875 72.664062 29.175781 78.085938 24.289062 C 78.09375 24.253906 82.621094 29.375 82.621094 29.375 Z M 82.621094 29.375 " fill-opacity="1" fill-rule="nonzero"/></g></g></g></g></g></g></g></g></g></g><g clip-path="url(#8189b83001)"><g clip-path="url(#32b84d8c47)"><g clip-path="url(#08ba0cd70f)"><g clip-path="url(#8ded8b6e82)"><g clip-path="url(#16285be75e)"><g clip-path="url(#9450a816d8)"><g clip-path="url(#4b2f6f43ad)"><g clip-path="url(#82022f70e1)"><g clip-path="url(#b82d93007f)"><g clip-path="url(#8ddd515554)"><path fill="#36d167" d="M 79.957031 33.34375 C 67.5625 43.335938 53.957031 51.339844 39.628906 58.132812 C 32.425781 61.457031 25.066406 64.460938 17.304688 66.367188 C 13.007812 67.296875 4.3125 69.292969 1.929688 64.207031 C -0.585938 58.097656 10.214844 49.203125 14.351562 45.652344 C 29.589844 33.429688 46.816406 23.476562 65.34375 17.179688 C 72.71875 14.683594 80.277344 12.582031 87.953125 11.292969 C 84.128906 12.0625 80.363281 13.097656 76.640625 14.222656 C 54.355469 20.9375 33.8125 32.808594 16.347656 48 C 13.15625 50.882812 5.203125 58.242188 5.390625 62.414062 C 5.605469 63.308594 7.199219 63.394531 8.15625 63.433594 C 10.824219 63.457031 13.5 62.824219 16.152344 62.121094 C 19.753906 61.117188 23.34375 59.738281 26.851562 58.300781 C 37.441406 53.8125 47.535156 48.113281 57.140625 41.816406 C 63.53125 37.597656 69.722656 33.046875 75.355469 28.085938 C 75.363281 28.050781 79.957031 33.34375 79.957031 33.34375 Z M 79.957031 33.34375 " fill-opacity="1" fill-rule="nonzero"/></g></g></g></g></g></g></g></g></g></g><g clip-path="url(#277bf201cf)"><g clip-path="url(#f27b1ffe51)"><g clip-path="url(#0eb0d693f5)"><g clip-path="url(#c743ccd92f)"><g clip-path="url(#6054503dd6)"><g clip-path="url(#7d69238d92)"><g clip-path="url(#dffae11411)"><g clip-path="url(#b1fab50ca6)"><g clip-path="url(#c4b052d3d4)"><g clip-path="url(#77e37311b6)"><path fill="#36d167" d="M 65.625 26.496094 L 78.773438 26.671875 C 81.117188 26.6875 82.96875 28.601562 82.917969 30.929688 C 82.90625 33.253906 80.976562 35.09375 78.636719 35.046875 L 65.484375 34.871094 C 63.144531 34.855469 61.289062 32.941406 61.339844 30.613281 C 61.390625 29.253906 62.0625 28.042969 63.078125 27.289062 C 63.804688 26.792969 64.6875 26.472656 65.625 26.496094 Z M 65.625 26.496094 " fill-opacity="1" fill-rule="nonzero"/></g></g></g></g></g></g></g></g></g></g><g clip-path="url(#48c64c3d16)"><g clip-path="url(#5d142f7441)"><g clip-path="url(#d9ba4a042b)"><g clip-path="url(#6701a00bdb)"><g clip-path="url(#3465ebf989)"><g clip-path="url(#4d6730a4e9)"><g clip-path="url(#3fbc7b73c1)"><g clip-path="url(#f27e74e96f)"><g clip-path="url(#4de2735a29)"><g clip-path="url(#c163e16a80)"><path fill="#36d167" d="M 79.957031 33.34375 C 67.5625 43.335938 53.957031 51.339844 39.628906 58.132812 C 32.425781 61.457031 25.066406 64.460938 17.304688 66.367188 C 13.007812 67.296875 4.3125 69.292969 1.929688 64.207031 C -0.585938 58.097656 10.214844 49.203125 14.351562 45.652344 C 29.589844 33.429688 46.816406 23.476562 65.34375 17.179688 C 72.71875 14.683594 80.277344 12.582031 87.953125 11.292969 C 84.128906 12.0625 80.363281 13.097656 76.640625 14.222656 C 54.355469 20.9375 33.8125 32.808594 16.347656 48 C 13.15625 50.882812 5.203125 58.242188 5.390625 62.414062 C 5.605469 63.308594 7.199219 63.394531 8.15625 63.433594 C 10.824219 63.457031 13.5 62.824219 16.152344 62.121094 C 19.753906 61.117188 23.34375 59.738281 26.851562 58.300781 C 37.441406 53.8125 47.535156 48.113281 57.140625 41.816406 C 63.53125 37.597656 69.722656 33.046875 75.355469 28.085938 C 75.363281 28.050781 79.957031 33.34375 79.957031 33.34375 Z M 79.957031 33.34375 " fill-opacity="1" fill-rule="nonzero"/></g></g></g></g></g></g></g></g></g></g><g clip-path="url(#15573872af)"><g clip-path="url(#45fc7ff8e0)"><g clip-path="url(#0b78d22e2a)"><g clip-path="url(#2996f11a6b)"><g clip-path="url(#2e18580c5f)"><g clip-path="url(#5ded119667)"><g clip-path="url(#da3d8c22f8)"><g clip-path="url(#d3b0d800c1)"><g clip-path="url(#cded01a180)"><g clip-path="url(#8940e3824d)"><path fill="#36d167" d="M 65.625 26.496094 L 78.773438 26.671875 C 81.117188 26.6875 82.96875 28.601562 82.917969 30.929688 C 82.90625 33.253906 80.976562 35.09375 78.636719 35.046875 L 65.484375 34.871094 C 63.144531 34.855469 61.289062 32.941406 61.339844 30.613281 C 61.390625 29.253906 62.0625 28.042969 63.078125 27.289062 C 63.804688 26.792969 64.6875 26.472656 65.625 26.496094 Z M 65.625 26.496094 " fill-opacity="1" fill-rule="nonzero"/></g></g></g></g></g></g></g></g></g></g><g clip-path="url(#76aa3c5c3d)"><g clip-path="url(#a06181deae)"><g clip-path="url(#a818422b91)"><g clip-path="url(#4dabfb558f)"><g clip-path="url(#9b7a05eb8d)"><g clip-path="url(#267d12a303)"><g clip-path="url(#42402c7c49)"><g clip-path="url(#a82dae636e)"><g clip-path="url(#a98d9951ec)"><g clip-path="url(#2166f1e393)"><path fill="#36d167" d="M 89.515625 23.898438 C 78.167969 35.054688 65.417969 44.339844 51.832031 52.496094 C 44.992188 56.507812 37.960938 60.214844 30.425781 62.871094 C 26.242188 64.210938 17.789062 67.050781 14.910156 62.222656 C 11.804688 56.382812 21.679688 46.480469 25.445312 42.539062 C 39.398438 28.894531 55.5625 17.3125 73.378906 9.234375 C 80.46875 6.035156 87.78125 3.207031 95.296875 1.179688 C 91.570312 2.316406 87.921875 3.710938 84.328125 5.195312 C 62.8125 14.046875 43.542969 27.863281 27.660156 44.6875 C 24.769531 47.863281 17.578125 55.964844 18.179688 60.097656 C 18.480469 60.96875 20.074219 60.898438 21.035156 60.839844 C 23.691406 60.605469 26.289062 59.710938 28.859375 58.757812 C 32.34375 57.40625 35.78125 55.6875 39.128906 53.914062 C 49.222656 48.414062 58.707031 41.757812 67.644531 34.554688 C 73.585938 29.734375 79.300781 24.601562 84.414062 19.117188 C 84.421875 19.078125 89.515625 23.898438 89.515625 23.898438 Z M 89.515625 23.898438 " fill-opacity="1" fill-rule="nonzero"/></g></g></g></g></g></g></g></g></g></g><g clip-path="url(#8cffa96cfb)"><g clip-path="url(#a629368567)"><g clip-path="url(#91d9d192a5)"><g clip-path="url(#6c7714964b)"><g clip-path="url(#da922eace5)"><g clip-path="url(#3f7417d2a9)"><g clip-path="url(#79293a0aab)"><g clip-path="url(#0a0225c13a)"><g clip-path="url(#a07c4216fe)"><g clip-path="url(#cdd96fc47f)"><path fill="#36d167" d="M 74.578125 18.484375 L 87.679688 17.375 C 90.011719 17.164062 92.042969 18.890625 92.226562 21.207031 C 92.441406 23.519531 90.703125 25.542969 88.367188 25.722656 L 75.265625 26.828125 C 72.933594 27.042969 70.902344 25.316406 70.714844 22.996094 C 70.636719 21.636719 71.183594 20.367188 72.117188 19.519531 C 72.796875 18.953125 73.644531 18.550781 74.578125 18.484375 Z M 74.578125 18.484375 " fill-opacity="1" fill-rule="nonzero"/></g></g></g></g></g></g></g></g></g></g><g clip-path="url(#2fbf8f3b75)"><g clip-path="url(#7875e9ed78)"><g clip-path="url(#9a36e83352)"><g clip-path="url(#2e627aa4af)"><g clip-path="url(#c0671ecc12)"><g clip-path="url(#eaafdd863c)"><g clip-path="url(#e272f94d41)"><g clip-path="url(#4d94fc12e3)"><g clip-path="url(#dcfe056234)"><g clip-path="url(#01089a0cb4)"><path fill="#36d167" d="M 89.515625 23.898438 C 78.167969 35.054688 65.417969 44.339844 51.832031 52.496094 C 44.992188 56.507812 37.960938 60.214844 30.425781 62.871094 C 26.242188 64.210938 17.789062 67.050781 14.910156 62.222656 C 11.804688 56.382812 21.679688 46.480469 25.445312 42.539062 C 39.398438 28.894531 55.5625 17.3125 73.378906 9.234375 C 80.46875 6.035156 87.78125 3.207031 95.296875 1.179688 C 91.570312 2.316406 87.921875 3.710938 84.328125 5.195312 C 62.8125 14.046875 43.542969 27.863281 27.660156 44.6875 C 24.769531 47.863281 17.578125 55.964844 18.179688 60.097656 C 18.480469 60.96875 20.074219 60.898438 21.035156 60.839844 C 23.691406 60.605469 26.289062 59.710938 28.859375 58.757812 C 32.34375 57.40625 35.78125 55.6875 39.128906 53.914062 C 49.222656 48.414062 58.707031 41.757812 67.644531 34.554688 C 73.585938 29.734375 79.300781 24.601562 84.414062 19.117188 C 84.421875 19.078125 89.515625 23.898438 89.515625 23.898438 Z M 89.515625 23.898438 " fill-opacity="1" fill-rule="nonzero"/></g></g></g></g></g></g></g></g></g></g><g clip-path="url(#b930925033)"><g clip-path="url(#4eb744c048)"><g clip-path="url(#67c282a2d3)"><g clip-path="url(#7a2ef3cdc9)"><g clip-path="url(#2058b3ee26)"><g clip-path="url(#bd52346ee2)"><g clip-path="url(#624be1eb48)"><g clip-path="url(#6de10b5f82)"><g clip-path="url(#0000e08f33)"><g clip-path="url(#b5350f8c7f)"><path fill="#36d167" d="M 74.578125 18.484375 L 87.679688 17.375 C 90.011719 17.164062 92.042969 18.890625 92.226562 21.207031 C 92.441406 23.519531 90.703125 25.542969 88.367188 25.722656 L 75.265625 26.828125 C 72.933594 27.042969 70.902344 25.316406 70.714844 22.996094 C 70.636719 21.636719 71.183594 20.367188 72.117188 19.519531 C 72.796875 18.953125 73.644531 18.550781 74.578125 18.484375 Z M 74.578125 18.484375 " fill-opacity="1" fill-rule="nonzero"/></g></g></g></g></g></g></g></g></g></g><g clip-path="url(#6615c52ecf)"><g clip-path="url(#bc1acbb9c5)"><g transform="matrix(1, 0, 0, 1, 62, 1)"><g clip-path="url(#6f1c8b3f3b)"><g clip-path="url(#1f003deac4)"><g clip-path="url(#e7df6321f2)"><path fill="#ef7623" d="M 0.324219 0.726562 L 19.589844 0.726562 L 19.589844 19.992188 L 0.324219 19.992188 Z M 0.324219 0.726562 " fill-opacity="1" fill-rule="nonzero"/></g></g></g></g></g></g><g clip-path="url(#3c1bed2844)"><path fill="#ffffff" d="M 7.988281 0.835938 L 21.027344 0.835938 L 21.027344 80.929688 L 7.988281 80.929688 Z M 62.324219 80.929688 L 48.511719 80.929688 L 33.394531 51.929688 C 33.183594 51.929688 32.945312 51.957031 32.691406 52 C 32.425781 52.027344 32.039062 52.035156 31.527344 52.035156 C 31.035156 52.035156 30.292969 52.035156 29.308594 52.035156 C 28.339844 52.035156 27.0625 52.035156 25.464844 52.035156 L 25.464844 42.449219 L 32.867188 42.449219 C 34.460938 42.449219 36.046875 42.1875 37.621094 41.640625 C 39.21875 41.101562 40.660156 40.222656 41.957031 38.996094 C 43.269531 37.753906 44.328125 36.027344 45.128906 33.816406 C 45.921875 31.617188 46.324219 28.875 46.324219 25.609375 C 46.324219 24.320312 46.132812 22.824219 45.761719 21.132812 C 45.410156 19.425781 44.671875 17.785156 43.542969 16.234375 C 42.433594 14.667969 40.863281 13.363281 38.820312 12.324219 C 36.792969 11.265625 34.117188 10.738281 30.785156 10.738281 L 25.464844 10.738281 L 25.464844 0.835938 L 31 0.835938 C 34.398438 0.835938 37.773438 1.390625 41.109375 2.492188 C 44.441406 3.578125 47.425781 5.207031 50.0625 7.390625 C 52.710938 9.558594 54.851562 12.175781 56.472656 15.25 C 58.113281 18.332031 58.941406 21.785156 58.941406 25.609375 C 58.941406 31.414062 57.601562 36.347656 54.921875 40.40625 C 52.246094 44.449219 48.617188 47.453125 44.035156 49.425781 Z M 62.324219 80.929688 " fill-opacity="1" fill-rule="nonzero"/></g><g clip-path="url(#bc7407981d)"><path fill="#ffffff" d="M 7.617188 0.835938 L 20.652344 0.835938 L 20.652344 80.929688 L 7.617188 80.929688 Z M 61.949219 80.929688 L 48.136719 80.929688 L 33.019531 51.929688 C 32.808594 51.929688 32.570312 51.957031 32.316406 52 C 32.050781 52.027344 31.664062 52.035156 31.152344 52.035156 C 30.660156 52.035156 29.921875 52.035156 28.933594 52.035156 C 27.964844 52.035156 26.6875 52.035156 25.09375 52.035156 L 25.09375 42.449219 L 32.492188 42.449219 C 34.085938 42.449219 35.671875 42.1875 37.25 41.640625 C 38.84375 41.101562 40.289062 40.222656 41.582031 38.996094 C 42.894531 37.753906 43.953125 36.027344 44.753906 33.816406 C 45.546875 31.617188 45.953125 28.875 45.953125 25.609375 C 45.953125 24.320312 45.757812 22.824219 45.390625 21.132812 C 45.035156 19.425781 44.296875 17.785156 43.167969 16.234375 C 42.058594 14.667969 40.492188 13.363281 38.445312 12.324219 C 36.421875 11.265625 33.742188 10.738281 30.414062 10.738281 L 25.09375 10.738281 L 25.09375 0.835938 L 30.625 0.835938 C 34.023438 0.835938 37.398438 1.390625 40.738281 2.492188 C 44.066406 3.578125 47.054688 5.207031 49.6875 7.390625 C 52.339844 9.558594 54.480469 12.175781 56.101562 15.25 C 57.738281 18.332031 58.566406 21.785156 58.566406 25.609375 C 58.566406 31.414062 57.226562 36.347656 54.550781 40.40625 C 51.871094 44.449219 48.242188 47.453125 43.664062 49.425781 Z M 61.949219 80.929688 " fill-opacity="1" fill-rule="nonzero"/></g><g clip-path="url(#e6ebd1e2e8)"><path fill="#ffffff" d="M 7.988281 0.835938 L 21.027344 0.835938 L 21.027344 80.929688 L 7.988281 80.929688 Z M 62.324219 80.929688 L 48.511719 80.929688 L 33.394531 51.929688 C 33.183594 51.929688 32.945312 51.957031 32.691406 52 C 32.425781 52.027344 32.039062 52.035156 31.527344 52.035156 C 31.035156 52.035156 30.292969 52.035156 29.308594 52.035156 C 28.339844 52.035156 27.0625 52.035156 25.464844 52.035156 L 25.464844 42.449219 L 32.867188 42.449219 C 34.460938 42.449219 36.046875 42.1875 37.621094 41.640625 C 39.21875 41.101562 40.660156 40.222656 41.957031 38.996094 C 43.269531 37.753906 44.328125 36.027344 45.128906 33.816406 C 45.921875 31.617188 46.324219 28.875 46.324219 25.609375 C 46.324219 24.320312 46.132812 22.824219 45.761719 21.132812 C 45.410156 19.425781 44.671875 17.785156 43.542969 16.234375 C 42.433594 14.667969 40.863281 13.363281 38.820312 12.324219 C 36.792969 11.265625 34.117188 10.738281 30.785156 10.738281 L 25.464844 10.738281 L 25.464844 0.835938 L 31 0.835938 C 34.398438 0.835938 37.773438 1.390625 41.109375 2.492188 C 44.441406 3.578125 47.425781 5.207031 50.0625 7.390625 C 52.710938 9.558594 54.851562 12.175781 56.472656 15.25 C 58.113281 18.332031 58.941406 21.785156 58.941406 25.609375 C 58.941406 31.414062 57.601562 36.347656 54.921875 40.40625 C 52.246094 44.449219 48.617188 47.453125 44.035156 49.425781 Z M 62.324219 80.929688 " fill-opacity="1" fill-rule="nonzero"/><path fill="#ffffff" d="M 7.617188 0.835938 L 20.652344 0.835938 L 20.652344 80.929688 L 7.617188 80.929688 Z M 61.949219 80.929688 L 48.136719 80.929688 L 33.019531 51.929688 C 32.808594 51.929688 32.570312 51.957031 32.316406 52 C 32.050781 52.027344 31.664062 52.035156 31.152344 52.035156 C 30.660156 52.035156 29.921875 52.035156 28.933594 52.035156 C 27.964844 52.035156 26.6875 52.035156 25.09375 52.035156 L 25.09375 42.449219 L 32.492188 42.449219 C 34.085938 42.449219 35.671875 42.1875 37.25 41.640625 C 38.84375 41.101562 40.289062 40.222656 41.582031 38.996094 C 42.894531 37.753906 43.953125 36.027344 44.753906 33.816406 C 45.546875 31.617188 45.953125 28.875 45.953125 25.609375 C 45.953125 24.320312 45.757812 22.824219 45.390625 21.132812 C 45.035156 19.425781 44.296875 17.785156 43.167969 16.234375 C 42.058594 14.667969 40.492188 13.363281 38.445312 12.324219 C 36.421875 11.265625 33.742188 10.738281 30.414062 10.738281 L 25.09375 10.738281 L 25.09375 0.835938 L 30.625 0.835938 C 34.023438 0.835938 37.398438 1.390625 40.738281 2.492188 C 44.066406 3.578125 47.054688 5.207031 49.6875 7.390625 C 52.339844 9.558594 54.480469 12.175781 56.101562 15.25 C 57.738281 18.332031 58.566406 21.785156 58.566406 25.609375 C 58.566406 31.414062 57.226562 36.347656 54.550781 40.40625 C 51.871094 44.449219 48.242188 47.453125 43.664062 49.425781 Z M 61.949219 80.929688 " fill-opacity="1" fill-rule="nonzero"/></g><g clip-path="url(#2e252c4e9c)"><g clip-path="url(#66221b2f13)"><g clip-path="url(#852a5f9596)"><g clip-path="url(#33b8ea9a5b)"><g clip-path="url(#c6bf29c0c6)"><g clip-path="url(#015e632d63)"><g clip-path="url(#eb4c817376)"><g clip-path="url(#3b6188f720)"><g clip-path="url(#042878a6de)"><g clip-path="url(#bad4f0bb75)"><path fill="#36d167" d="M 97.539062 15.796875 C 85.515625 27.6875 72.007812 37.59375 57.613281 46.289062 C 50.371094 50.566406 42.921875 54.519531 34.941406 57.347656 C 30.507812 58.78125 21.550781 61.804688 18.503906 56.65625 C 15.210938 50.433594 25.671875 39.871094 29.660156 35.671875 C 44.445312 21.125 61.566406 8.773438 80.441406 0.164062 C 87.957031 -3.253906 95.703125 -6.265625 103.664062 -8.429688 C 99.710938 -7.21875 95.851562 -5.730469 92.042969 -4.144531 C 69.25 5.292969 48.835938 20.023438 32.007812 37.960938 C 28.945312 41.351562 21.332031 49.984375 21.964844 54.390625 C 22.285156 55.320312 23.972656 55.246094 24.988281 55.183594 C 27.800781 54.933594 30.558594 53.980469 33.28125 52.964844 C 36.972656 51.523438 40.613281 49.6875 44.164062 47.796875 C 54.855469 41.933594 64.902344 34.835938 74.371094 27.160156 C 80.664062 22.019531 86.714844 16.542969 92.136719 10.695312 C 92.144531 10.65625 97.539062 15.796875 97.539062 15.796875 Z M 97.539062 15.796875 " fill-opacity="1" fill-rule="nonzero"/><path fill="#36d167" d="M 97.539062 15.796875 C 85.515625 27.6875 72.007812 37.59375 57.613281 46.289062 C 50.371094 50.566406 42.921875 54.519531 34.941406 57.347656 C 30.507812 58.78125 21.550781 61.804688 18.503906 56.65625 C 15.210938 50.433594 25.671875 39.871094 29.660156 35.671875 C 44.445312 21.125 61.566406 8.773438 80.441406 0.164062 C 87.957031 -3.253906 95.703125 -6.265625 103.664062 -8.429688 C 99.710938 -7.21875 95.851562 -5.730469 92.042969 -4.144531 C 69.25 5.292969 48.835938 20.023438 32.007812 37.960938 C 28.945312 41.351562 21.332031 49.984375 21.964844 54.390625 C 22.285156 55.320312 23.972656 55.246094 24.988281 55.183594 C 27.800781 54.933594 30.558594 53.980469 33.28125 52.964844 C 36.972656 51.523438 40.613281 49.6875 44.164062 47.796875 C 54.855469 41.933594 64.902344 34.835938 74.371094 27.160156 C 80.664062 22.019531 86.714844 16.542969 92.136719 10.695312 C 92.144531 10.65625 97.539062 15.796875 97.539062 15.796875 Z M 97.539062 15.796875 " fill-opacity="1" fill-rule="nonzero"/></g></g></g></g></g></g></g></g></g></g></svg>