<svg xmlns="http://www.w3.org/2000/svg" xmlns:xlink="http://www.w3.org/1999/xlink" width="131" zoomAndPan="magnify" viewBox="0 0 98.25 98.999996" height="132" preserveAspectRatio="xMidYMid meet" version="1.0"><defs><filter x="0%" y="0%" width="100%" height="100%" id="e40c121027"><feColorMatrix values="0 0 0 0 1 0 0 0 0 1 0 0 0 0 1 0 0 0 1 0" color-interpolation-filters="sRGB"/></filter><clipPath id="b109f37c5d"><path d="M 0 0.375 L 97.503906 0.375 L 97.503906 98.625 L 0 98.625 Z M 0 0.375 " clip-rule="nonzero"/></clipPath><mask id="12b064df29"><g filter="url(#e40c121027)"><rect x="-9.825" width="117.9" fill="#000000" y="-9.9" height="118.799995" fill-opacity="0.3"/></g></mask><clipPath id="587876fc00"><path d="M 0 0.375 L 97.328125 0.375 L 97.328125 98.464844 L 0 98.464844 Z M 0 0.375 " clip-rule="nonzero"/></clipPath><clipPath id="39a118326f"><path d="M 6.699219 0.375 L 90.628906 0.375 C 94.332031 0.375 97.328125 3.375 97.328125 7.074219 L 97.328125 91.617188 C 97.328125 95.316406 94.332031 98.316406 90.628906 98.316406 L 6.699219 98.316406 C 3 98.316406 0 95.316406 0 91.617188 L 0 7.074219 C 0 3.375 3 0.375 6.699219 0.375 Z M 6.699219 0.375 " clip-rule="nonzero"/></clipPath><clipPath id="d694fa2396"><path d="M 0 0.375 L 97.328125 0.375 L 97.328125 98.464844 L 0 98.464844 Z M 0 0.375 " clip-rule="nonzero"/></clipPath><clipPath id="15c21fa440"><path d="M 6.699219 0.375 L 90.628906 0.375 C 94.332031 0.375 97.328125 3.375 97.328125 7.074219 L 97.328125 91.617188 C 97.328125 95.316406 94.332031 98.316406 90.628906 98.316406 L 6.699219 98.316406 C 3 98.316406 0 95.316406 0 91.617188 L 0 7.074219 C 0 3.375 3 0.375 6.699219 0.375 Z M 6.699219 0.375 " clip-rule="nonzero"/></clipPath><clipPath id="a58dbce387"><rect x="0" width="98" y="0" height="99"/></clipPath><clipPath id="be59a85374"><rect x="0" width="98" y="0" height="99"/></clipPath><clipPath id="fd3c14e4b3"><path d="M 73.695312 41.898438 L 86.308594 41.898438 L 86.308594 89.886719 L 73.695312 89.886719 Z M 73.695312 41.898438 " clip-rule="nonzero"/></clipPath><clipPath id="cb83da1c8f"><path d="M 0.695312 0.898438 L 13.308594 0.898438 L 13.308594 48.886719 L 0.695312 48.886719 Z M 0.695312 0.898438 " clip-rule="nonzero"/></clipPath><clipPath id="48bfa11c6f"><rect x="0" width="14" y="0" height="49"/></clipPath><clipPath id="ad203ef8f5"><path d="M 16 9 L 31.140625 9 L 31.140625 90 L 16 90 Z M 16 9 " clip-rule="nonzero"/></clipPath><clipPath id="408d63fb34"><path d="M 15 9 L 31.140625 9 L 31.140625 90 L 15 90 Z M 15 9 " clip-rule="nonzero"/></clipPath><clipPath id="cef1c73e5b"><path d="M 66 24.234375 L 90.042969 24.234375 L 90.042969 53 L 66 53 Z M 66 24.234375 " clip-rule="nonzero"/></clipPath><clipPath id="3ec2ab12f2"><path d="M 66.570312 39.246094 L 84.632812 19.710938 L 99.636719 33.40625 L 81.574219 52.941406 Z M 66.570312 39.246094 " clip-rule="nonzero"/></clipPath><clipPath id="cdeba32acb"><path d="M 24.09375 38.664062 L 77.332031 -18.914062 L 115.621094 16.03125 L 62.386719 73.609375 Z M 24.09375 38.664062 " clip-rule="nonzero"/></clipPath><clipPath id="837d4f8a06"><path d="M 9 24.234375 L 78.828125 24.234375 L 78.828125 56 L 9 56 Z M 9 24.234375 " clip-rule="nonzero"/></clipPath><clipPath id="35a9fbc965"><path d="M -1.691406 41.265625 L 74.402344 18.757812 L 78.8125 33.480469 L 2.714844 55.984375 Z M -1.691406 41.265625 " clip-rule="nonzero"/></clipPath><clipPath id="f695e21d31"><path d="M -2.074219 41.378906 L 75.367188 18.476562 L 79.777344 33.191406 L 2.332031 56.097656 Z M -2.074219 41.378906 " clip-rule="nonzero"/></clipPath><clipPath id="f573638100"><path d="M -4.769531 42.175781 L 91.53125 13.695312 L 107.96875 68.558594 L 11.667969 97.039062 Z M -4.769531 42.175781 " clip-rule="nonzero"/></clipPath><clipPath id="2668cd6aa2"><path d="M 1.488281 47.1875 L 91.59375 20.539062 L 101.417969 53.332031 L 11.3125 79.980469 Z M 1.488281 47.1875 " clip-rule="nonzero"/></clipPath><clipPath id="e87bd7d7fd"><path d="M 2.589844 62.742188 L 81.292969 16.742188 L 99.214844 47.023438 L 20.511719 93.023438 Z M 2.589844 62.742188 " clip-rule="nonzero"/></clipPath><clipPath id="197a74000a"><path d="M -4.964844 39.484375 L 99.101562 8.710938 L 116.105469 65.464844 L 12.039062 96.246094 Z M -4.964844 39.484375 " clip-rule="nonzero"/></clipPath><clipPath id="b6b275145e"><path d="M 2.589844 62.742188 L 90.601562 11.304688 L 108.523438 41.578125 L 20.511719 93.023438 Z M 2.589844 62.742188 " clip-rule="nonzero"/></clipPath><clipPath id="8b204d2bc6"><path d="M -4.964844 39.484375 L 99.101562 8.710938 L 116.105469 65.464844 L 12.039062 96.246094 Z M -4.964844 39.484375 " clip-rule="nonzero"/></clipPath><clipPath id="150a7f8d60"><path d="M 2.589844 62.742188 L 90.601562 11.304688 L 108.523438 41.578125 L 20.511719 93.023438 Z M 2.589844 62.742188 " clip-rule="nonzero"/></clipPath><clipPath id="b5e4c5a9f0"><path d="M 69 35.046875 L 78.828125 35.046875 L 78.828125 44.59375 L 69 44.59375 Z M 69 35.046875 " clip-rule="nonzero"/></clipPath><clipPath id="63af53c266"><path d="M -1.691406 41.265625 L 74.402344 18.757812 L 78.8125 33.480469 L 2.714844 55.984375 Z M -1.691406 41.265625 " clip-rule="nonzero"/></clipPath><clipPath id="19806c7153"><path d="M -2.074219 41.378906 L 75.367188 18.476562 L 79.777344 33.191406 L 2.332031 56.097656 Z M -2.074219 41.378906 " clip-rule="nonzero"/></clipPath><clipPath id="198e329adf"><path d="M -4.769531 42.175781 L 91.53125 13.695312 L 107.96875 68.558594 L 11.667969 97.039062 Z M -4.769531 42.175781 " clip-rule="nonzero"/></clipPath><clipPath id="5e53d79ab1"><path d="M 67.210938 35.988281 L 88.785156 29.609375 L 92.941406 43.484375 L 71.367188 49.863281 Z M 67.210938 35.988281 " clip-rule="nonzero"/></clipPath><clipPath id="7cbbdb8541"><path d="M 2.589844 62.742188 L 81.292969 16.742188 L 99.214844 47.023438 L 20.511719 93.023438 Z M 2.589844 62.742188 " clip-rule="nonzero"/></clipPath><clipPath id="bfbf2da6f8"><path d="M -4.964844 39.484375 L 99.101562 8.710938 L 116.105469 65.464844 L 12.039062 96.246094 Z M -4.964844 39.484375 " clip-rule="nonzero"/></clipPath><clipPath id="5fc026f322"><path d="M 2.589844 62.742188 L 90.601562 11.304688 L 108.523438 41.578125 L 20.511719 93.023438 Z M 2.589844 62.742188 " clip-rule="nonzero"/></clipPath><clipPath id="e5090832bc"><path d="M -4.964844 39.484375 L 99.101562 8.710938 L 116.105469 65.464844 L 12.039062 96.246094 Z M -4.964844 39.484375 " clip-rule="nonzero"/></clipPath><clipPath id="bdfb49573d"><path d="M 2.589844 62.742188 L 90.601562 11.304688 L 108.523438 41.578125 L 20.511719 93.023438 Z M 2.589844 62.742188 " clip-rule="nonzero"/></clipPath><clipPath id="091034d4a7"><path d="M 9 24.234375 L 78.828125 24.234375 L 78.828125 56 L 9 56 Z M 9 24.234375 " clip-rule="nonzero"/></clipPath><clipPath id="de2b42f1aa"><path d="M -1.691406 41.265625 L 74.402344 18.757812 L 78.8125 33.480469 L 2.714844 55.984375 Z M -1.691406 41.265625 " clip-rule="nonzero"/></clipPath><clipPath id="2da261efbf"><path d="M -2.074219 41.378906 L 75.367188 18.476562 L 79.777344 33.191406 L 2.332031 56.097656 Z M -2.074219 41.378906 " clip-rule="nonzero"/></clipPath><clipPath id="2eeea9bafb"><path d="M -4.769531 42.175781 L 91.53125 13.695312 L 107.96875 68.558594 L 11.667969 97.039062 Z M -4.769531 42.175781 " clip-rule="nonzero"/></clipPath><clipPath id="44002b52e6"><path d="M 1.488281 47.1875 L 91.59375 20.539062 L 101.417969 53.332031 L 11.3125 79.980469 Z M 1.488281 47.1875 " clip-rule="nonzero"/></clipPath><clipPath id="614c22bd82"><path d="M 2.589844 62.742188 L 81.292969 16.742188 L 99.214844 47.023438 L 20.511719 93.023438 Z M 2.589844 62.742188 " clip-rule="nonzero"/></clipPath><clipPath id="7e4801ceff"><path d="M -4.964844 39.484375 L 99.101562 8.710938 L 116.105469 65.464844 L 12.039062 96.246094 Z M -4.964844 39.484375 " clip-rule="nonzero"/></clipPath><clipPath id="84158ad055"><path d="M 2.589844 62.742188 L 90.601562 11.304688 L 108.523438 41.578125 L 20.511719 93.023438 Z M 2.589844 62.742188 " clip-rule="nonzero"/></clipPath><clipPath id="656abfbf50"><path d="M -4.964844 39.484375 L 99.101562 8.710938 L 116.105469 65.464844 L 12.039062 96.246094 Z M -4.964844 39.484375 " clip-rule="nonzero"/></clipPath><clipPath id="eab3cdb7e7"><path d="M 2.589844 62.742188 L 90.601562 11.304688 L 108.523438 41.578125 L 20.511719 93.023438 Z M 2.589844 62.742188 " clip-rule="nonzero"/></clipPath><clipPath id="604fe476ca"><path d="M 69 35.046875 L 78.828125 35.046875 L 78.828125 44.59375 L 69 44.59375 Z M 69 35.046875 " clip-rule="nonzero"/></clipPath><clipPath id="1a06d0f0f3"><path d="M -1.691406 41.265625 L 74.402344 18.757812 L 78.8125 33.480469 L 2.714844 55.984375 Z M -1.691406 41.265625 " clip-rule="nonzero"/></clipPath><clipPath id="a50b2f3b74"><path d="M -2.074219 41.378906 L 75.367188 18.476562 L 79.777344 33.191406 L 2.332031 56.097656 Z M -2.074219 41.378906 " clip-rule="nonzero"/></clipPath><clipPath id="7cd2ba046f"><path d="M -4.769531 42.175781 L 91.53125 13.695312 L 107.96875 68.558594 L 11.667969 97.039062 Z M -4.769531 42.175781 " clip-rule="nonzero"/></clipPath><clipPath id="0bcedb8cfd"><path d="M 67.210938 35.988281 L 88.785156 29.609375 L 92.941406 43.484375 L 71.367188 49.863281 Z M 67.210938 35.988281 " clip-rule="nonzero"/></clipPath><clipPath id="99157b59f5"><path d="M 2.589844 62.742188 L 81.292969 16.742188 L 99.214844 47.023438 L 20.511719 93.023438 Z M 2.589844 62.742188 " clip-rule="nonzero"/></clipPath><clipPath id="b0860e5991"><path d="M -4.964844 39.484375 L 99.101562 8.710938 L 116.105469 65.464844 L 12.039062 96.246094 Z M -4.964844 39.484375 " clip-rule="nonzero"/></clipPath><clipPath id="5a9138107d"><path d="M 2.589844 62.742188 L 90.601562 11.304688 L 108.523438 41.578125 L 20.511719 93.023438 Z M 2.589844 62.742188 " clip-rule="nonzero"/></clipPath><clipPath id="5c0492dd88"><path d="M -4.964844 39.484375 L 99.101562 8.710938 L 116.105469 65.464844 L 12.039062 96.246094 Z M -4.964844 39.484375 " clip-rule="nonzero"/></clipPath><clipPath id="40c2ace85e"><path d="M 2.589844 62.742188 L 90.601562 11.304688 L 108.523438 41.578125 L 20.511719 93.023438 Z M 2.589844 62.742188 " clip-rule="nonzero"/></clipPath><clipPath id="36f657b069"><path d="M 9 27.234375 L 52 27.234375 L 52 74.972656 L 9 74.972656 Z M 9 27.234375 " clip-rule="nonzero"/></clipPath><clipPath id="9de8fbcba2"><path d="M -1.355469 39.019531 L 37.03125 27.667969 L 51.863281 77.183594 L 13.476562 88.535156 Z M -1.355469 39.019531 " clip-rule="nonzero"/></clipPath><clipPath id="2f112270c8"><path d="M -1.746094 39.140625 L 37.3125 27.585938 L 52.347656 77.765625 L 13.289062 89.316406 Z M -1.746094 39.140625 " clip-rule="nonzero"/></clipPath><clipPath id="96bcdab87d"><path d="M -4.445312 39.9375 L 91.855469 11.457031 L 108.292969 66.320312 L 11.992188 94.800781 Z M -4.445312 39.9375 " clip-rule="nonzero"/></clipPath><clipPath id="87b74995e8"><path d="M 1.804688 44.953125 L 91.921875 18.300781 L 101.746094 51.09375 L 11.628906 77.746094 Z M 1.804688 44.953125 " clip-rule="nonzero"/></clipPath><clipPath id="b0745f11a8"><path d="M 2.90625 60.507812 L 81.617188 14.503906 L 99.542969 44.785156 L 20.828125 90.785156 Z M 2.90625 60.507812 " clip-rule="nonzero"/></clipPath><clipPath id="2fe72f63f0"><path d="M -4.648438 37.25 L 99.429688 6.46875 L 116.433594 63.226562 L 12.355469 94.007812 Z M -4.648438 37.25 " clip-rule="nonzero"/></clipPath><clipPath id="3bbb034966"><path d="M 2.90625 60.507812 L 90.929688 9.0625 L 108.851562 39.339844 L 20.828125 90.785156 Z M 2.90625 60.507812 " clip-rule="nonzero"/></clipPath><clipPath id="b9100f354c"><path d="M -4.648438 37.25 L 99.429688 6.46875 L 116.433594 63.226562 L 12.355469 94.007812 Z M -4.648438 37.25 " clip-rule="nonzero"/></clipPath><clipPath id="f07710491a"><path d="M 2.90625 60.507812 L 90.929688 9.0625 L 108.851562 39.339844 L 20.828125 90.785156 Z M 2.90625 60.507812 " clip-rule="nonzero"/></clipPath><clipPath id="7b62c2efa0"><path d="M 37 24.234375 L 79.703125 24.234375 L 79.703125 43.726562 L 37 43.726562 Z M 37 24.234375 " clip-rule="nonzero"/></clipPath><clipPath id="840dc40d7c"><path d="M 37.363281 28.582031 L 75.367188 18.46875 L 79.367188 33.304688 L 41.359375 43.417969 Z M 37.363281 28.582031 " clip-rule="nonzero"/></clipPath><clipPath id="b8185b4f56"><path d="M -9.699219 41.101562 L 89.390625 14.738281 L 104.65625 71.382812 L 5.566406 97.746094 Z M -9.699219 41.101562 " clip-rule="nonzero"/></clipPath><clipPath id="cd9f277671"><path d="M -9.699219 41.101562 L 89.390625 14.738281 L 104.65625 71.382812 L 5.566406 97.746094 Z M -9.699219 41.101562 " clip-rule="nonzero"/></clipPath><clipPath id="5ec330855b"><path d="M -3.457031 46.417969 L 89.269531 21.75 L 98.394531 55.605469 L 5.667969 80.277344 Z M -3.457031 46.417969 " clip-rule="nonzero"/></clipPath><clipPath id="6bf93b7c0c"><path d="M -2.757812 62.375 L 78.859375 17.5625 L 96.316406 49.082031 L 14.699219 93.890625 Z M -2.757812 62.375 " clip-rule="nonzero"/></clipPath><clipPath id="19d5bd41a1"><path d="M -9.832031 38.347656 L 97.261719 9.851562 L 113.050781 68.453125 L 5.960938 96.945312 Z M -9.832031 38.347656 " clip-rule="nonzero"/></clipPath><clipPath id="3e134a0b30"><path d="M -2.757812 62.375 L 88.511719 12.261719 L 105.972656 43.777344 L 14.699219 93.890625 Z M -2.757812 62.375 " clip-rule="nonzero"/></clipPath><clipPath id="7330987a3e"><path d="M -9.832031 38.347656 L 97.261719 9.851562 L 113.050781 68.453125 L 5.960938 96.945312 Z M -9.832031 38.347656 " clip-rule="nonzero"/></clipPath><clipPath id="aa3c34da5f"><path d="M -2.757812 62.375 L 88.511719 12.261719 L 105.972656 43.777344 L 14.699219 93.890625 Z M -2.757812 62.375 " clip-rule="nonzero"/></clipPath><clipPath id="58999246b2"><path d="M 73 37 L 79.703125 37 L 79.703125 43.726562 L 73 43.726562 Z M 73 37 " clip-rule="nonzero"/></clipPath><clipPath id="f9e5141a57"><path d="M 37.363281 28.582031 L 75.367188 18.46875 L 79.367188 33.304688 L 41.359375 43.417969 Z M 37.363281 28.582031 " clip-rule="nonzero"/></clipPath><clipPath id="12d462cd1f"><path d="M -9.699219 41.101562 L 89.390625 14.738281 L 104.65625 71.382812 L 5.566406 97.746094 Z M -9.699219 41.101562 " clip-rule="nonzero"/></clipPath><clipPath id="91139c8cb4"><path d="M -9.699219 41.101562 L 89.390625 14.738281 L 104.65625 71.382812 L 5.566406 97.746094 Z M -9.699219 41.101562 " clip-rule="nonzero"/></clipPath><clipPath id="da1b5eab02"><path d="M 68.917969 39.722656 L 87.203125 34.859375 L 92.46875 54.390625 L 74.183594 59.253906 Z M 68.917969 39.722656 " clip-rule="nonzero"/></clipPath><clipPath id="15a91fde22"><path d="M -2.757812 62.375 L 78.859375 17.5625 L 96.316406 49.082031 L 14.699219 93.890625 Z M -2.757812 62.375 " clip-rule="nonzero"/></clipPath><clipPath id="ce78428cd0"><path d="M -9.832031 38.347656 L 97.261719 9.851562 L 113.050781 68.453125 L 5.960938 96.945312 Z M -9.832031 38.347656 " clip-rule="nonzero"/></clipPath><clipPath id="5aeb0a64f5"><path d="M -2.757812 62.375 L 88.511719 12.261719 L 105.972656 43.777344 L 14.699219 93.890625 Z M -2.757812 62.375 " clip-rule="nonzero"/></clipPath><clipPath id="edea1e5213"><path d="M -9.832031 38.347656 L 97.261719 9.851562 L 113.050781 68.453125 L 5.960938 96.945312 Z M -9.832031 38.347656 " clip-rule="nonzero"/></clipPath><clipPath id="94a8af768b"><path d="M -2.757812 62.375 L 88.511719 12.261719 L 105.972656 43.777344 L 14.699219 93.890625 Z M -2.757812 62.375 " clip-rule="nonzero"/></clipPath><clipPath id="c6c9b76070"><path d="M 65.726562 36 L 79.703125 36 L 79.703125 43.726562 L 65.726562 43.726562 Z M 65.726562 36 " clip-rule="nonzero"/></clipPath><clipPath id="b9a1a52987"><path d="M 37.363281 28.582031 L 75.367188 18.46875 L 79.367188 33.304688 L 41.359375 43.417969 Z M 37.363281 28.582031 " clip-rule="nonzero"/></clipPath><clipPath id="4abe4ae9f1"><path d="M -9.699219 41.101562 L 89.390625 14.738281 L 104.65625 71.382812 L 5.566406 97.746094 Z M -9.699219 41.101562 " clip-rule="nonzero"/></clipPath><clipPath id="235a523cbe"><path d="M -9.699219 41.101562 L 89.390625 14.738281 L 104.65625 71.382812 L 5.566406 97.746094 Z M -9.699219 41.101562 " clip-rule="nonzero"/></clipPath><clipPath id="bd9d08d4b0"><path d="M 63.949219 36.859375 L 86.152344 30.953125 L 90.011719 45.277344 L 67.808594 51.183594 Z M 63.949219 36.859375 " clip-rule="nonzero"/></clipPath><clipPath id="93663ca0a4"><path d="M -2.757812 62.375 L 78.859375 17.5625 L 96.316406 49.082031 L 14.699219 93.890625 Z M -2.757812 62.375 " clip-rule="nonzero"/></clipPath><clipPath id="587289dfe9"><path d="M -9.832031 38.347656 L 97.261719 9.851562 L 113.050781 68.453125 L 5.960938 96.945312 Z M -9.832031 38.347656 " clip-rule="nonzero"/></clipPath><clipPath id="c407e8d4cd"><path d="M -2.757812 62.375 L 88.511719 12.261719 L 105.972656 43.777344 L 14.699219 93.890625 Z M -2.757812 62.375 " clip-rule="nonzero"/></clipPath><clipPath id="b324333247"><path d="M -9.832031 38.347656 L 97.261719 9.851562 L 113.050781 68.453125 L 5.960938 96.945312 Z M -9.832031 38.347656 " clip-rule="nonzero"/></clipPath><clipPath id="b1e64dfb0a"><path d="M -2.757812 62.375 L 88.511719 12.261719 L 105.972656 43.777344 L 14.699219 93.890625 Z M -2.757812 62.375 " clip-rule="nonzero"/></clipPath><clipPath id="6290643adb"><path d="M 37 24.234375 L 79.703125 24.234375 L 79.703125 43.726562 L 37 43.726562 Z M 37 24.234375 " clip-rule="nonzero"/></clipPath><clipPath id="a1952c57eb"><path d="M 37.363281 28.582031 L 75.367188 18.46875 L 79.367188 33.304688 L 41.359375 43.417969 Z M 37.363281 28.582031 " clip-rule="nonzero"/></clipPath><clipPath id="f08909a0d7"><path d="M -9.699219 41.101562 L 89.390625 14.738281 L 104.65625 71.382812 L 5.566406 97.746094 Z M -9.699219 41.101562 " clip-rule="nonzero"/></clipPath><clipPath id="36ca0b477c"><path d="M -9.699219 41.101562 L 89.390625 14.738281 L 104.65625 71.382812 L 5.566406 97.746094 Z M -9.699219 41.101562 " clip-rule="nonzero"/></clipPath><clipPath id="7c84c00695"><path d="M -3.457031 46.417969 L 89.269531 21.75 L 98.394531 55.605469 L 5.667969 80.277344 Z M -3.457031 46.417969 " clip-rule="nonzero"/></clipPath><clipPath id="bc4175334d"><path d="M -2.757812 62.375 L 78.859375 17.5625 L 96.316406 49.082031 L 14.699219 93.890625 Z M -2.757812 62.375 " clip-rule="nonzero"/></clipPath><clipPath id="27e47184e5"><path d="M -9.832031 38.347656 L 97.261719 9.851562 L 113.050781 68.453125 L 5.960938 96.945312 Z M -9.832031 38.347656 " clip-rule="nonzero"/></clipPath><clipPath id="57d87ea0f7"><path d="M -2.757812 62.375 L 88.511719 12.261719 L 105.972656 43.777344 L 14.699219 93.890625 Z M -2.757812 62.375 " clip-rule="nonzero"/></clipPath><clipPath id="86feb0fc9b"><path d="M -9.832031 38.347656 L 97.261719 9.851562 L 113.050781 68.453125 L 5.960938 96.945312 Z M -9.832031 38.347656 " clip-rule="nonzero"/></clipPath><clipPath id="430cca0728"><path d="M -2.757812 62.375 L 88.511719 12.261719 L 105.972656 43.777344 L 14.699219 93.890625 Z M -2.757812 62.375 " clip-rule="nonzero"/></clipPath><clipPath id="c59c254a04"><path d="M 73 37 L 79.703125 37 L 79.703125 43.726562 L 73 43.726562 Z M 73 37 " clip-rule="nonzero"/></clipPath><clipPath id="751ed830b5"><path d="M 37.363281 28.582031 L 75.367188 18.46875 L 79.367188 33.304688 L 41.359375 43.417969 Z M 37.363281 28.582031 " clip-rule="nonzero"/></clipPath><clipPath id="152bdff001"><path d="M -9.699219 41.101562 L 89.390625 14.738281 L 104.65625 71.382812 L 5.566406 97.746094 Z M -9.699219 41.101562 " clip-rule="nonzero"/></clipPath><clipPath id="08541265ee"><path d="M -9.699219 41.101562 L 89.390625 14.738281 L 104.65625 71.382812 L 5.566406 97.746094 Z M -9.699219 41.101562 " clip-rule="nonzero"/></clipPath><clipPath id="e66bf1b032"><path d="M 68.917969 39.722656 L 87.203125 34.859375 L 92.46875 54.390625 L 74.183594 59.253906 Z M 68.917969 39.722656 " clip-rule="nonzero"/></clipPath><clipPath id="b3c19660ca"><path d="M -2.757812 62.375 L 78.859375 17.5625 L 96.316406 49.082031 L 14.699219 93.890625 Z M -2.757812 62.375 " clip-rule="nonzero"/></clipPath><clipPath id="159efb432d"><path d="M -9.832031 38.347656 L 97.261719 9.851562 L 113.050781 68.453125 L 5.960938 96.945312 Z M -9.832031 38.347656 " clip-rule="nonzero"/></clipPath><clipPath id="16d3a3d239"><path d="M -2.757812 62.375 L 88.511719 12.261719 L 105.972656 43.777344 L 14.699219 93.890625 Z M -2.757812 62.375 " clip-rule="nonzero"/></clipPath><clipPath id="fd7733f613"><path d="M -9.832031 38.347656 L 97.261719 9.851562 L 113.050781 68.453125 L 5.960938 96.945312 Z M -9.832031 38.347656 " clip-rule="nonzero"/></clipPath><clipPath id="17e1bd3bb5"><path d="M -2.757812 62.375 L 88.511719 12.261719 L 105.972656 43.777344 L 14.699219 93.890625 Z M -2.757812 62.375 " clip-rule="nonzero"/></clipPath><clipPath id="7c3d87d011"><path d="M 65.726562 36 L 79.703125 36 L 79.703125 43.726562 L 65.726562 43.726562 Z M 65.726562 36 " clip-rule="nonzero"/></clipPath><clipPath id="7d099b468c"><path d="M 37.363281 28.582031 L 75.367188 18.46875 L 79.367188 33.304688 L 41.359375 43.417969 Z M 37.363281 28.582031 " clip-rule="nonzero"/></clipPath><clipPath id="0b292e3f8b"><path d="M -9.699219 41.101562 L 89.390625 14.738281 L 104.65625 71.382812 L 5.566406 97.746094 Z M -9.699219 41.101562 " clip-rule="nonzero"/></clipPath><clipPath id="ffdd28611e"><path d="M -9.699219 41.101562 L 89.390625 14.738281 L 104.65625 71.382812 L 5.566406 97.746094 Z M -9.699219 41.101562 " clip-rule="nonzero"/></clipPath><clipPath id="78fd00878c"><path d="M 63.949219 36.859375 L 86.152344 30.953125 L 90.011719 45.277344 L 67.808594 51.183594 Z M 63.949219 36.859375 " clip-rule="nonzero"/></clipPath><clipPath id="b243ce6e69"><path d="M -2.757812 62.375 L 78.859375 17.5625 L 96.316406 49.082031 L 14.699219 93.890625 Z M -2.757812 62.375 " clip-rule="nonzero"/></clipPath><clipPath id="0d079b15f0"><path d="M -9.832031 38.347656 L 97.261719 9.851562 L 113.050781 68.453125 L 5.960938 96.945312 Z M -9.832031 38.347656 " clip-rule="nonzero"/></clipPath><clipPath id="e96f88cc4d"><path d="M -2.757812 62.375 L 88.511719 12.261719 L 105.972656 43.777344 L 14.699219 93.890625 Z M -2.757812 62.375 " clip-rule="nonzero"/></clipPath><clipPath id="7909ec1034"><path d="M -9.832031 38.347656 L 97.261719 9.851562 L 113.050781 68.453125 L 5.960938 96.945312 Z M -9.832031 38.347656 " clip-rule="nonzero"/></clipPath><clipPath id="a06c751312"><path d="M -2.757812 62.375 L 88.511719 12.261719 L 105.972656 43.777344 L 14.699219 93.890625 Z M -2.757812 62.375 " clip-rule="nonzero"/></clipPath><clipPath id="768c3128cf"><path d="M 42.140625 40.253906 L 81.449219 40.253906 L 81.449219 71 L 42.140625 71 Z M 42.140625 40.253906 " clip-rule="nonzero"/></clipPath><clipPath id="e15f85a0d4"><path d="M 42.796875 50.640625 L 75.015625 40.746094 L 81.242188 60.757812 L 49.019531 70.648438 Z M 42.796875 50.640625 " clip-rule="nonzero"/></clipPath><clipPath id="5ab495aff9"><path d="M 42.597656 50.128906 L 76.160156 39.824219 L 82.796875 61.167969 L 49.234375 71.472656 Z M 42.597656 50.128906 " clip-rule="nonzero"/></clipPath><clipPath id="b26d90e394"><path d="M 0.722656 38.878906 L 94.035156 10.234375 L 110.628906 63.589844 L 17.316406 92.238281 Z M 0.722656 38.878906 " clip-rule="nonzero"/></clipPath><clipPath id="30d45ce348"><path d="M 6.859375 43.714844 L 94.175781 16.910156 L 104.09375 48.800781 L 16.777344 75.605469 Z M 6.859375 43.714844 " clip-rule="nonzero"/></clipPath><clipPath id="d2239a7fe0"><path d="M 8.105469 58.875 L 84.113281 13.296875 L 101.878906 42.667969 L 25.867188 88.242188 Z M 8.105469 58.875 " clip-rule="nonzero"/></clipPath><clipPath id="dfeb04552f"><path d="M 0.496094 36.261719 L 101.34375 5.304688 L 118.507812 60.5 L 17.664062 91.460938 Z M 0.496094 36.261719 " clip-rule="nonzero"/></clipPath><clipPath id="b8d87e71f2"><path d="M 8.105469 58.875 L 93.105469 7.910156 L 110.871094 37.273438 L 25.867188 88.242188 Z M 8.105469 58.875 " clip-rule="nonzero"/></clipPath><clipPath id="c18a6d7624"><path d="M 0.496094 36.261719 L 101.34375 5.304688 L 118.507812 60.5 L 17.664062 91.460938 Z M 0.496094 36.261719 " clip-rule="nonzero"/></clipPath><clipPath id="0d61b87d3e"><path d="M 8.105469 58.875 L 93.105469 7.910156 L 110.871094 37.273438 L 25.867188 88.242188 Z M 8.105469 58.875 " clip-rule="nonzero"/></clipPath><clipPath id="b6d8a6a4a4"><path d="M 9 36 L 78.828125 36 L 78.828125 76.710938 L 9 76.710938 Z M 9 36 " clip-rule="nonzero"/></clipPath><clipPath id="a4425939f6"><path d="M 2.792969 55.195312 L 67.441406 36.074219 L 78.265625 72.207031 L 13.617188 91.324219 Z M 2.792969 55.195312 " clip-rule="nonzero"/></clipPath><clipPath id="3148cffb4c"><path d="M 2.398438 55.257812 L 67.71875 35.9375 L 78.742188 72.738281 L 13.425781 92.058594 Z M 2.398438 55.257812 " clip-rule="nonzero"/></clipPath><clipPath id="ec6a03d8a8"><path d="M -4.5 42.011719 L 91.796875 13.53125 L 108.234375 68.394531 L 11.9375 96.875 Z M -4.5 42.011719 " clip-rule="nonzero"/></clipPath><clipPath id="0783891933"><path d="M 1.753906 47.027344 L 91.859375 20.375 L 101.683594 53.171875 L 11.578125 79.820312 Z M 1.753906 47.027344 " clip-rule="nonzero"/></clipPath><clipPath id="434d21e9e5"><path d="M 2.855469 62.582031 L 81.558594 16.582031 L 99.480469 46.863281 L 20.777344 92.859375 Z M 2.855469 62.582031 " clip-rule="nonzero"/></clipPath><clipPath id="092dfdca3b"><path d="M -4.699219 39.324219 L 99.367188 8.546875 L 116.371094 65.304688 L 12.304688 96.082031 Z M -4.699219 39.324219 " clip-rule="nonzero"/></clipPath><clipPath id="cf9d288a7d"><path d="M 2.855469 62.582031 L 90.867188 11.140625 L 108.789062 41.414062 L 20.777344 92.859375 Z M 2.855469 62.582031 " clip-rule="nonzero"/></clipPath><clipPath id="47d4a24d9b"><path d="M -4.699219 39.324219 L 99.367188 8.546875 L 116.371094 65.304688 L 12.304688 96.082031 Z M -4.699219 39.324219 " clip-rule="nonzero"/></clipPath><clipPath id="4106fe4ba1"><path d="M 2.855469 62.582031 L 90.867188 11.140625 L 108.789062 41.414062 L 20.777344 92.859375 Z M 2.855469 62.582031 " clip-rule="nonzero"/></clipPath><clipPath id="e45ff48322"><path d="M 69.21875 36 L 78.828125 36 L 78.828125 44 L 69.21875 44 Z M 69.21875 36 " clip-rule="nonzero"/></clipPath><clipPath id="0f1e6844b9"><path d="M 2.792969 55.195312 L 67.441406 36.074219 L 78.265625 72.207031 L 13.617188 91.324219 Z M 2.792969 55.195312 " clip-rule="nonzero"/></clipPath><clipPath id="ab7e2820c5"><path d="M 2.398438 55.257812 L 67.71875 35.9375 L 78.742188 72.738281 L 13.425781 92.058594 Z M 2.398438 55.257812 " clip-rule="nonzero"/></clipPath><clipPath id="874720d6e8"><path d="M -4.5 42.011719 L 91.796875 13.53125 L 108.234375 68.394531 L 11.9375 96.875 Z M -4.5 42.011719 " clip-rule="nonzero"/></clipPath><clipPath id="2c47028864"><path d="M 67.476562 35.828125 L 89.050781 29.445312 L 93.207031 43.320312 L 71.632812 49.699219 Z M 67.476562 35.828125 " clip-rule="nonzero"/></clipPath><clipPath id="079f9b561b"><path d="M 2.855469 62.582031 L 81.558594 16.582031 L 99.480469 46.863281 L 20.777344 92.859375 Z M 2.855469 62.582031 " clip-rule="nonzero"/></clipPath><clipPath id="57850d70b8"><path d="M -4.699219 39.324219 L 99.367188 8.546875 L 116.371094 65.304688 L 12.304688 96.082031 Z M -4.699219 39.324219 " clip-rule="nonzero"/></clipPath><clipPath id="a4d2854b18"><path d="M 2.855469 62.582031 L 90.867188 11.140625 L 108.789062 41.414062 L 20.777344 92.859375 Z M 2.855469 62.582031 " clip-rule="nonzero"/></clipPath><clipPath id="6bda16cf5b"><path d="M -4.699219 39.324219 L 99.367188 8.546875 L 116.371094 65.304688 L 12.304688 96.082031 Z M -4.699219 39.324219 " clip-rule="nonzero"/></clipPath><clipPath id="6f2f2a0ecf"><path d="M 2.855469 62.582031 L 90.867188 11.140625 L 108.789062 41.414062 L 20.777344 92.859375 Z M 2.855469 62.582031 " clip-rule="nonzero"/></clipPath><clipPath id="6316e97c65"><path d="M 9 36 L 78.828125 36 L 78.828125 76.710938 L 9 76.710938 Z M 9 36 " clip-rule="nonzero"/></clipPath><clipPath id="66c0679d7c"><path d="M 2.792969 55.195312 L 67.441406 36.074219 L 78.265625 72.207031 L 13.617188 91.324219 Z M 2.792969 55.195312 " clip-rule="nonzero"/></clipPath><clipPath id="41f4fbd71a"><path d="M 2.398438 55.257812 L 67.71875 35.9375 L 78.742188 72.738281 L 13.425781 92.058594 Z M 2.398438 55.257812 " clip-rule="nonzero"/></clipPath><clipPath id="90620d528b"><path d="M -4.5 42.011719 L 91.796875 13.53125 L 108.234375 68.394531 L 11.9375 96.875 Z M -4.5 42.011719 " clip-rule="nonzero"/></clipPath><clipPath id="720d7cdb86"><path d="M 1.753906 47.027344 L 91.859375 20.375 L 101.683594 53.171875 L 11.578125 79.820312 Z M 1.753906 47.027344 " clip-rule="nonzero"/></clipPath><clipPath id="1ee5169a8f"><path d="M 2.855469 62.582031 L 81.558594 16.582031 L 99.480469 46.863281 L 20.777344 92.859375 Z M 2.855469 62.582031 " clip-rule="nonzero"/></clipPath><clipPath id="9b17534d7b"><path d="M -4.699219 39.324219 L 99.367188 8.546875 L 116.371094 65.304688 L 12.304688 96.082031 Z M -4.699219 39.324219 " clip-rule="nonzero"/></clipPath><clipPath id="c33b51cb0a"><path d="M 2.855469 62.582031 L 90.867188 11.140625 L 108.789062 41.414062 L 20.777344 92.859375 Z M 2.855469 62.582031 " clip-rule="nonzero"/></clipPath><clipPath id="71a6572cb1"><path d="M -4.699219 39.324219 L 99.367188 8.546875 L 116.371094 65.304688 L 12.304688 96.082031 Z M -4.699219 39.324219 " clip-rule="nonzero"/></clipPath><clipPath id="a7393c4faa"><path d="M 2.855469 62.582031 L 90.867188 11.140625 L 108.789062 41.414062 L 20.777344 92.859375 Z M 2.855469 62.582031 " clip-rule="nonzero"/></clipPath><clipPath id="afb1c0d652"><path d="M 69.21875 36 L 78.828125 36 L 78.828125 44 L 69.21875 44 Z M 69.21875 36 " clip-rule="nonzero"/></clipPath><clipPath id="bc93efba19"><path d="M 2.792969 55.195312 L 67.441406 36.074219 L 78.265625 72.207031 L 13.617188 91.324219 Z M 2.792969 55.195312 " clip-rule="nonzero"/></clipPath><clipPath id="229f792d70"><path d="M 2.398438 55.257812 L 67.71875 35.9375 L 78.742188 72.738281 L 13.425781 92.058594 Z M 2.398438 55.257812 " clip-rule="nonzero"/></clipPath><clipPath id="f599c048ac"><path d="M -4.5 42.011719 L 91.796875 13.53125 L 108.234375 68.394531 L 11.9375 96.875 Z M -4.5 42.011719 " clip-rule="nonzero"/></clipPath><clipPath id="274aa079df"><path d="M 67.476562 35.828125 L 89.050781 29.445312 L 93.207031 43.320312 L 71.632812 49.699219 Z M 67.476562 35.828125 " clip-rule="nonzero"/></clipPath><clipPath id="3fa1a56d00"><path d="M 2.855469 62.582031 L 81.558594 16.582031 L 99.480469 46.863281 L 20.777344 92.859375 Z M 2.855469 62.582031 " clip-rule="nonzero"/></clipPath><clipPath id="7d39dbda66"><path d="M -4.699219 39.324219 L 99.367188 8.546875 L 116.371094 65.304688 L 12.304688 96.082031 Z M -4.699219 39.324219 " clip-rule="nonzero"/></clipPath><clipPath id="e7048ea37f"><path d="M 2.855469 62.582031 L 90.867188 11.140625 L 108.789062 41.414062 L 20.777344 92.859375 Z M 2.855469 62.582031 " clip-rule="nonzero"/></clipPath><clipPath id="b2f370666b"><path d="M -4.699219 39.324219 L 99.367188 8.546875 L 116.371094 65.304688 L 12.304688 96.082031 Z M -4.699219 39.324219 " clip-rule="nonzero"/></clipPath><clipPath id="8395eff81a"><path d="M 2.855469 62.582031 L 90.867188 11.140625 L 108.789062 41.414062 L 20.777344 92.859375 Z M 2.855469 62.582031 " clip-rule="nonzero"/></clipPath><clipPath id="c27e084f12"><path d="M 61.359375 28.105469 L 88 28.105469 L 88 62.820312 L 61.359375 62.820312 Z M 61.359375 28.105469 " clip-rule="nonzero"/></clipPath><clipPath id="4b05d730b8"><path d="M 61.394531 34.78125 L 76.355469 28.714844 L 87.773438 56.503906 L 72.8125 62.574219 Z M 61.394531 34.78125 " clip-rule="nonzero"/></clipPath><clipPath id="ec1cca07f3"><path d="M 61.144531 34.832031 L 76.753906 28.496094 L 88.4375 56.9375 L 72.828125 63.265625 Z M 61.144531 34.832031 " clip-rule="nonzero"/></clipPath><clipPath id="ad9eab8730"><path d="M 5.496094 41.574219 L 98.519531 3.84375 L 120.296875 56.839844 L 27.269531 94.570312 Z M 5.496094 41.574219 " clip-rule="nonzero"/></clipPath><clipPath id="2637b22dde"><path d="M 12.214844 45.953125 L 99.257812 10.648438 L 112.273438 42.328125 L 25.230469 77.632812 Z M 12.214844 45.953125 " clip-rule="nonzero"/></clipPath><clipPath id="16c51c9e03"><path d="M 14.851562 61.328125 L 88.632812 7.875 L 109.457031 36.265625 L 35.675781 89.714844 Z M 14.851562 61.328125 " clip-rule="nonzero"/></clipPath><clipPath id="c3a754257d"><path d="M 5.035156 38.914062 L 105.5625 -1.855469 L 128.085938 52.96875 L 27.5625 93.742188 Z M 5.035156 38.914062 " clip-rule="nonzero"/></clipPath><clipPath id="0164140235"><path d="M 14.851562 61.328125 L 97.359375 1.554688 L 118.183594 29.9375 L 35.675781 89.714844 Z M 14.851562 61.328125 " clip-rule="nonzero"/></clipPath><clipPath id="da83870cf8"><path d="M 5.035156 38.914062 L 105.5625 -1.855469 L 128.085938 52.96875 L 27.5625 93.742188 Z M 5.035156 38.914062 " clip-rule="nonzero"/></clipPath><clipPath id="85b1e49e4a"><path d="M 14.851562 61.328125 L 97.359375 1.554688 L 118.183594 29.9375 L 35.675781 89.714844 Z M 14.851562 61.328125 " clip-rule="nonzero"/></clipPath><clipPath id="310198968c"><path d="M 78 28.105469 L 88 28.105469 L 88 35.914062 L 78 35.914062 Z M 78 28.105469 " clip-rule="nonzero"/></clipPath><clipPath id="c56ba7d976"><path d="M 61.394531 34.78125 L 76.355469 28.714844 L 87.773438 56.503906 L 72.8125 62.574219 Z M 61.394531 34.78125 " clip-rule="nonzero"/></clipPath><clipPath id="61d53d8040"><path d="M 61.144531 34.832031 L 76.753906 28.496094 L 88.4375 56.9375 L 72.828125 63.265625 Z M 61.144531 34.832031 " clip-rule="nonzero"/></clipPath><clipPath id="e77b110f8c"><path d="M 5.496094 41.574219 L 98.519531 3.84375 L 120.296875 56.839844 L 27.269531 94.570312 Z M 5.496094 41.574219 " clip-rule="nonzero"/></clipPath><clipPath id="e5e1289bad"><path d="M 76.519531 28.402344 L 97.359375 19.949219 L 102.867188 33.351562 L 82.023438 41.804688 Z M 76.519531 28.402344 " clip-rule="nonzero"/></clipPath><clipPath id="75ac151e4f"><path d="M 14.851562 61.328125 L 88.632812 7.875 L 109.457031 36.265625 L 35.675781 89.714844 Z M 14.851562 61.328125 " clip-rule="nonzero"/></clipPath><clipPath id="c9f1d29030"><path d="M 5.035156 38.914062 L 105.5625 -1.855469 L 128.085938 52.96875 L 27.5625 93.742188 Z M 5.035156 38.914062 " clip-rule="nonzero"/></clipPath><clipPath id="32bf47783b"><path d="M 14.851562 61.328125 L 97.359375 1.554688 L 118.183594 29.9375 L 35.675781 89.714844 Z M 14.851562 61.328125 " clip-rule="nonzero"/></clipPath><clipPath id="bc4e20a7e3"><path d="M 5.035156 38.914062 L 105.5625 -1.855469 L 128.085938 52.96875 L 27.5625 93.742188 Z M 5.035156 38.914062 " clip-rule="nonzero"/></clipPath><clipPath id="bd3ceb147b"><path d="M 14.851562 61.328125 L 97.359375 1.554688 L 118.183594 29.9375 L 35.675781 89.714844 Z M 14.851562 61.328125 " clip-rule="nonzero"/></clipPath><clipPath id="741885c131"><path d="M 61.359375 28.105469 L 88 28.105469 L 88 62.820312 L 61.359375 62.820312 Z M 61.359375 28.105469 " clip-rule="nonzero"/></clipPath><clipPath id="e892873c08"><path d="M 61.394531 34.78125 L 76.355469 28.714844 L 87.773438 56.503906 L 72.8125 62.574219 Z M 61.394531 34.78125 " clip-rule="nonzero"/></clipPath><clipPath id="d8c6d86ad6"><path d="M 61.144531 34.832031 L 76.753906 28.496094 L 88.4375 56.9375 L 72.828125 63.265625 Z M 61.144531 34.832031 " clip-rule="nonzero"/></clipPath><clipPath id="b2a5a74832"><path d="M 5.496094 41.574219 L 98.519531 3.84375 L 120.296875 56.839844 L 27.269531 94.570312 Z M 5.496094 41.574219 " clip-rule="nonzero"/></clipPath><clipPath id="5d257d3165"><path d="M 12.214844 45.953125 L 99.257812 10.648438 L 112.273438 42.328125 L 25.230469 77.632812 Z M 12.214844 45.953125 " clip-rule="nonzero"/></clipPath><clipPath id="0e339ee14e"><path d="M 14.851562 61.328125 L 88.632812 7.875 L 109.457031 36.265625 L 35.675781 89.714844 Z M 14.851562 61.328125 " clip-rule="nonzero"/></clipPath><clipPath id="673bd16ecc"><path d="M 5.035156 38.914062 L 105.5625 -1.855469 L 128.085938 52.96875 L 27.5625 93.742188 Z M 5.035156 38.914062 " clip-rule="nonzero"/></clipPath><clipPath id="9d03bb72be"><path d="M 14.851562 61.328125 L 97.359375 1.554688 L 118.183594 29.9375 L 35.675781 89.714844 Z M 14.851562 61.328125 " clip-rule="nonzero"/></clipPath><clipPath id="d0a2254270"><path d="M 5.035156 38.914062 L 105.5625 -1.855469 L 128.085938 52.96875 L 27.5625 93.742188 Z M 5.035156 38.914062 " clip-rule="nonzero"/></clipPath><clipPath id="f5b1c4417b"><path d="M 14.851562 61.328125 L 97.359375 1.554688 L 118.183594 29.9375 L 35.675781 89.714844 Z M 14.851562 61.328125 " clip-rule="nonzero"/></clipPath><clipPath id="e2977df081"><path d="M 78 28.105469 L 88 28.105469 L 88 35.914062 L 78 35.914062 Z M 78 28.105469 " clip-rule="nonzero"/></clipPath><clipPath id="241d68fe35"><path d="M 61.394531 34.78125 L 76.355469 28.714844 L 87.773438 56.503906 L 72.8125 62.574219 Z M 61.394531 34.78125 " clip-rule="nonzero"/></clipPath><clipPath id="f882ac0d63"><path d="M 61.144531 34.832031 L 76.753906 28.496094 L 88.4375 56.9375 L 72.828125 63.265625 Z M 61.144531 34.832031 " clip-rule="nonzero"/></clipPath><clipPath id="8e4a5da70a"><path d="M 5.496094 41.574219 L 98.519531 3.84375 L 120.296875 56.839844 L 27.269531 94.570312 Z M 5.496094 41.574219 " clip-rule="nonzero"/></clipPath><clipPath id="9b004f2d90"><path d="M 76.519531 28.402344 L 97.359375 19.949219 L 102.867188 33.351562 L 82.023438 41.804688 Z M 76.519531 28.402344 " clip-rule="nonzero"/></clipPath><clipPath id="47839ca9d1"><path d="M 14.851562 61.328125 L 88.632812 7.875 L 109.457031 36.265625 L 35.675781 89.714844 Z M 14.851562 61.328125 " clip-rule="nonzero"/></clipPath><clipPath id="55a6b184c4"><path d="M 5.035156 38.914062 L 105.5625 -1.855469 L 128.085938 52.96875 L 27.5625 93.742188 Z M 5.035156 38.914062 " clip-rule="nonzero"/></clipPath><clipPath id="694246c5f6"><path d="M 14.851562 61.328125 L 97.359375 1.554688 L 118.183594 29.9375 L 35.675781 89.714844 Z M 14.851562 61.328125 " clip-rule="nonzero"/></clipPath><clipPath id="8b62abc637"><path d="M 5.035156 38.914062 L 105.5625 -1.855469 L 128.085938 52.96875 L 27.5625 93.742188 Z M 5.035156 38.914062 " clip-rule="nonzero"/></clipPath><clipPath id="413a4763a1"><path d="M 14.851562 61.328125 L 97.359375 1.554688 L 118.183594 29.9375 L 35.675781 89.714844 Z M 14.851562 61.328125 " clip-rule="nonzero"/></clipPath><clipPath id="3614745ae3"><path d="M 70.359375 10.542969 L 89.648438 10.542969 L 89.648438 29.832031 L 70.359375 29.832031 Z M 70.359375 10.542969 " clip-rule="nonzero"/></clipPath><clipPath id="2112f53d6b"><path d="M 80.003906 10.542969 C 74.675781 10.542969 70.359375 14.859375 70.359375 20.1875 C 70.359375 25.511719 74.675781 29.832031 80.003906 29.832031 C 85.328125 29.832031 89.648438 25.511719 89.648438 20.1875 C 89.648438 14.859375 85.328125 10.542969 80.003906 10.542969 Z M 80.003906 10.542969 " clip-rule="nonzero"/></clipPath><clipPath id="8dd4728d1d"><path d="M 0.359375 0.542969 L 19.648438 0.542969 L 19.648438 19.832031 L 0.359375 19.832031 Z M 0.359375 0.542969 " clip-rule="nonzero"/></clipPath><clipPath id="875b45ea24"><path d="M 10.003906 0.542969 C 4.675781 0.542969 0.359375 4.859375 0.359375 10.1875 C 0.359375 15.511719 4.675781 19.832031 10.003906 19.832031 C 15.328125 19.832031 19.648438 15.511719 19.648438 10.1875 C 19.648438 4.859375 15.328125 0.542969 10.003906 0.542969 Z M 10.003906 0.542969 " clip-rule="nonzero"/></clipPath><clipPath id="0c8742b238"><rect x="0" width="20" y="0" height="20"/></clipPath><clipPath id="5ccbe34aec"><path d="M 31.824219 9.050781 L 71 9.050781 L 71 90 L 31.824219 90 Z M 31.824219 9.050781 " clip-rule="nonzero"/></clipPath><clipPath id="060eab1928"><path d="M 16 9.050781 L 30.398438 9.050781 L 30.398438 67.109375 L 16 67.109375 Z M 16 9.050781 " clip-rule="nonzero"/></clipPath><clipPath id="5924613f0a"><path d="M 15 9.050781 L 30.398438 9.050781 L 30.398438 67.109375 L 15 67.109375 Z M 15 9.050781 " clip-rule="nonzero"/></clipPath><clipPath id="dc06ef9612"><path d="M 67 25 L 85 25 L 85 58 L 67 58 Z M 67 25 " clip-rule="nonzero"/></clipPath><clipPath id="db4a3d5ff0"><path d="M 67.675781 26.757812 L 71.808594 25.070312 L 84.46875 56.078125 L 80.335938 57.765625 Z M 67.675781 26.757812 " clip-rule="nonzero"/></clipPath><clipPath id="8d088ba258"><path d="M 67.214844 26.828125 L 72.726562 24.578125 L 85.667969 56.277344 L 80.152344 58.527344 Z M 67.214844 26.828125 " clip-rule="nonzero"/></clipPath><clipPath id="cf58fb8339"><path d="M 8.066406 34.042969 L 106.609375 -6.183594 L 129.675781 50.324219 L 31.132812 90.550781 Z M 8.066406 34.042969 " clip-rule="nonzero"/></clipPath><clipPath id="4c585a3185"><path d="M 15.179688 38.714844 L 107.394531 1.074219 L 121.179688 34.847656 L 28.96875 72.492188 Z M 15.179688 38.714844 " clip-rule="nonzero"/></clipPath><clipPath id="f58c2193db"><path d="M 17.972656 55.105469 L 96.136719 -1.882812 L 118.195312 28.382812 L 40.03125 85.371094 Z M 17.972656 55.105469 " clip-rule="nonzero"/></clipPath><clipPath id="f0e83cf849"><path d="M 7.574219 31.214844 L 114.070312 -12.261719 L 137.933594 46.195312 L 31.433594 89.667969 Z M 7.574219 31.214844 " clip-rule="nonzero"/></clipPath><clipPath id="192e37c5ec"><path d="M 17.972656 55.105469 L 105.382812 -8.625 L 127.441406 21.636719 L 40.03125 85.371094 Z M 17.972656 55.105469 " clip-rule="nonzero"/></clipPath><clipPath id="0954029ab2"><path d="M 7.574219 31.214844 L 114.070312 -12.261719 L 137.933594 46.195312 L 31.433594 89.667969 Z M 7.574219 31.214844 " clip-rule="nonzero"/></clipPath><clipPath id="efe1b0b5d5"><path d="M 17.972656 55.105469 L 105.382812 -8.625 L 127.441406 21.636719 L 40.03125 85.371094 Z M 17.972656 55.105469 " clip-rule="nonzero"/></clipPath></defs><g clip-path="url(#b109f37c5d)"><g mask="url(#12b064df29)"><g transform="matrix(1, 0, 0, 1, 0, 0.000000000000013045)"><g clip-path="url(#be59a85374)"><g clip-path="url(#587876fc00)"><g clip-path="url(#39a118326f)"><g transform="matrix(1, 0, 0, 1, 0, 0.000000000000013045)"><g clip-path="url(#a58dbce387)"><g clip-path="url(#d694fa2396)"><g clip-path="url(#15c21fa440)"><path fill="#ffffff" d="M 0 0.375 L 97.328125 0.375 L 97.328125 98.464844 L 0 98.464844 Z M 0 0.375 " fill-opacity="1" fill-rule="nonzero"/></g></g></g></g></g></g></g></g></g></g><g clip-path="url(#fd3c14e4b3)"><g transform="matrix(1, 0, 0, 1, 73, 41)"><g clip-path="url(#48bfa11c6f)"><g clip-path="url(#cb83da1c8f)"><path fill="#002f87" d="M 0.695312 0.898438 L 13.308594 0.898438 L 13.308594 48.882812 L 0.695312 48.882812 Z M 0.695312 0.898438 " fill-opacity="1" fill-rule="nonzero"/></g></g></g></g><g clip-path="url(#ad203ef8f5)"><path fill="#002f87" d="M 16.078125 9.417969 L 29.160156 9.417969 L 29.160156 89.625 L 16.078125 89.625 Z M 70.597656 89.625 L 56.738281 89.625 L 41.570312 60.582031 C 41.359375 60.582031 41.117188 60.609375 40.863281 60.652344 C 40.597656 60.679688 40.207031 60.6875 39.695312 60.6875 C 39.199219 60.6875 38.457031 60.6875 37.46875 60.6875 C 36.496094 60.6875 35.214844 60.6875 33.613281 60.6875 L 33.613281 51.089844 L 41.039062 51.089844 C 42.640625 51.089844 44.230469 50.828125 45.8125 50.28125 C 47.414062 49.742188 48.863281 48.859375 50.160156 47.632812 C 51.476562 46.390625 52.539062 44.660156 53.34375 42.445312 C 54.136719 40.242188 54.546875 37.496094 54.546875 34.222656 C 54.546875 32.9375 54.351562 31.4375 53.980469 29.742188 C 53.625 28.03125 52.882812 26.390625 51.753906 24.839844 C 50.636719 23.269531 49.066406 21.960938 47.015625 20.921875 C 44.980469 19.863281 42.292969 19.332031 38.953125 19.332031 L 33.613281 19.332031 L 33.613281 9.417969 L 39.164062 9.417969 C 42.578125 9.417969 45.960938 9.972656 49.3125 11.078125 C 52.652344 12.160156 55.648438 13.792969 58.292969 15.980469 C 60.953125 18.152344 63.101562 20.773438 64.726562 23.851562 C 66.371094 26.9375 67.203125 30.394531 67.203125 34.222656 C 67.203125 40.039062 65.859375 44.976562 63.171875 49.042969 C 60.484375 53.09375 56.84375 56.101562 52.246094 58.078125 Z M 70.597656 89.625 " fill-opacity="1" fill-rule="nonzero"/></g><g clip-path="url(#408d63fb34)"><path fill="#002f87" d="M 15.703125 9.417969 L 28.785156 9.417969 L 28.785156 89.625 L 15.703125 89.625 Z M 70.222656 89.625 L 56.363281 89.625 L 41.195312 60.582031 C 40.984375 60.582031 40.742188 60.609375 40.488281 60.652344 C 40.222656 60.679688 39.832031 60.6875 39.320312 60.6875 C 38.824219 60.6875 38.082031 60.6875 37.09375 60.6875 C 36.121094 60.6875 34.839844 60.6875 33.238281 60.6875 L 33.238281 51.089844 L 40.664062 51.089844 C 42.265625 51.089844 43.855469 50.828125 45.4375 50.28125 C 47.039062 49.742188 48.488281 48.859375 49.785156 47.632812 C 51.101562 46.390625 52.164062 44.660156 52.96875 42.445312 C 53.761719 40.242188 54.171875 37.496094 54.171875 34.222656 C 54.171875 32.9375 53.976562 31.4375 53.605469 29.742188 C 53.25 28.03125 52.507812 26.390625 51.378906 24.839844 C 50.261719 23.269531 48.691406 21.960938 46.640625 20.921875 C 44.605469 19.863281 41.917969 19.332031 38.578125 19.332031 L 33.238281 19.332031 L 33.238281 9.417969 L 38.789062 9.417969 C 42.203125 9.417969 45.585938 9.972656 48.9375 11.078125 C 52.277344 12.160156 55.273438 13.792969 57.917969 15.980469 C 60.578125 18.152344 62.726562 20.773438 64.351562 23.851562 C 65.996094 26.9375 66.828125 30.394531 66.828125 34.222656 C 66.828125 40.039062 65.484375 44.976562 62.796875 49.042969 C 60.109375 53.09375 56.46875 56.101562 51.871094 58.078125 Z M 70.222656 89.625 " fill-opacity="1" fill-rule="nonzero"/></g><g clip-path="url(#cef1c73e5b)"><g clip-path="url(#3ec2ab12f2)"><g clip-path="url(#cdeba32acb)"><path fill="#36d167" d="M 90.195312 -5.945312 C 89.515625 -6.253906 88.808594 -6.507812 88.089844 -6.710938 C 87.371094 -6.90625 86.636719 -7.046875 85.902344 -7.148438 C 84.429688 -7.347656 82.941406 -7.371094 81.472656 -7.261719 C 80.007812 -7.164062 78.558594 -6.917969 77.136719 -6.59375 C 76.425781 -6.429688 75.71875 -6.246094 75.023438 -6.035156 C 74.332031 -5.820312 73.640625 -5.601562 72.960938 -5.351562 C 72.277344 -5.105469 71.601562 -4.839844 70.933594 -4.5625 C 70.265625 -4.285156 69.605469 -3.988281 68.953125 -3.679688 C 66.347656 -2.429688 63.855469 -0.972656 61.488281 0.660156 C 60.304688 1.476562 59.144531 2.332031 58.019531 3.226562 C 56.898438 4.117188 55.804688 5.050781 54.742188 6.015625 C 52.613281 7.941406 50.609375 10.003906 48.730469 12.183594 C 46.855469 14.363281 45.113281 16.664062 43.535156 19.09375 C 42.746094 20.300781 41.996094 21.542969 41.292969 22.816406 C 40.59375 24.09375 39.9375 25.394531 39.339844 26.730469 C 38.148438 29.40625 37.15625 32.203125 36.535156 35.144531 C 36.226562 36.621094 36 38.125 35.90625 39.667969 C 35.808594 41.207031 35.839844 42.789062 36.0625 44.382812 C 36.289062 45.976562 36.707031 47.59375 37.402344 49.148438 C 38.09375 50.699219 39.070312 52.1875 40.304688 53.441406 C 40.460938 53.597656 40.621094 53.746094 40.777344 53.898438 C 40.941406 54.046875 41.113281 54.1875 41.277344 54.328125 C 41.445312 54.472656 41.613281 54.617188 41.789062 54.75 L 42.324219 55.132812 L 42.59375 55.320312 L 42.730469 55.417969 L 42.871094 55.5 L 43.4375 55.832031 L 43.722656 55.996094 C 43.816406 56.046875 43.917969 56.09375 44.011719 56.140625 L 44.601562 56.425781 C 46.183594 57.140625 47.839844 57.566406 49.476562 57.769531 C 51.109375 57.972656 52.722656 57.949219 54.289062 57.800781 C 55.851562 57.644531 57.375 57.355469 58.847656 56.964844 C 60.324219 56.582031 61.75 56.085938 63.136719 55.53125 C 63.832031 55.257812 64.503906 54.941406 65.183594 54.640625 C 65.84375 54.316406 66.515625 54 67.164062 53.652344 C 68.472656 52.972656 69.726562 52.210938 70.953125 51.417969 C 72.183594 50.640625 73.359375 49.78125 74.515625 48.90625 C 75.660156 48.015625 76.785156 47.105469 77.851562 46.140625 C 78.367188 45.6875 78.867188 45.214844 79.363281 44.742188 L 81.949219 52.230469 L 89.675781 29.5625 L 68.183594 40.371094 L 75.765625 41.804688 C 75.457031 42.046875 75.148438 42.285156 74.832031 42.519531 C 74.5625 42.71875 74.300781 42.925781 74.027344 43.121094 L 73.210938 43.703125 C 72.945312 43.898438 72.667969 44.085938 72.394531 44.277344 L 71.566406 44.835938 L 70.726562 45.378906 L 70.308594 45.644531 L 69.882812 45.902344 L 69.035156 46.421875 L 68.175781 46.921875 C 67.890625 47.089844 67.597656 47.246094 67.308594 47.402344 C 67.019531 47.554688 66.730469 47.71875 66.4375 47.867188 C 65.847656 48.160156 65.269531 48.464844 64.675781 48.738281 C 64.085938 49.027344 63.484375 49.277344 62.886719 49.539062 C 62.28125 49.777344 61.683594 50.027344 61.074219 50.238281 C 59.867188 50.679688 58.640625 51.058594 57.417969 51.34375 C 56.1875 51.625 54.960938 51.839844 53.753906 51.9375 C 52.546875 52.042969 51.355469 52.023438 50.230469 51.878906 C 49.101562 51.734375 48.035156 51.449219 47.082031 51.011719 C 46.128906 50.578125 45.292969 49.996094 44.554688 49.289062 C 43.835938 48.570312 43.25 47.714844 42.804688 46.742188 C 42.359375 45.769531 42.054688 44.6875 41.878906 43.539062 C 41.703125 42.398438 41.648438 41.199219 41.707031 39.976562 C 41.757812 38.757812 41.917969 37.515625 42.15625 36.273438 C 42.640625 33.792969 43.421875 31.316406 44.425781 28.902344 C 45.433594 26.492188 46.648438 24.144531 48.015625 21.871094 C 48.699219 20.734375 49.429688 19.625 50.191406 18.527344 C 50.953125 17.4375 51.746094 16.363281 52.574219 15.316406 C 53.402344 14.265625 54.265625 13.238281 55.15625 12.238281 C 56.050781 11.238281 56.964844 10.261719 57.914062 9.308594 C 58.863281 8.359375 59.839844 7.4375 60.847656 6.554688 C 61.847656 5.664062 62.878906 4.800781 63.941406 3.976562 C 66.0625 2.335938 68.285156 0.820312 70.621094 -0.488281 C 72.957031 -1.796875 75.394531 -2.910156 77.929688 -3.714844 C 79.195312 -4.117188 80.480469 -4.429688 81.78125 -4.644531 C 83.078125 -4.863281 84.390625 -4.957031 85.691406 -4.902344 C 86.34375 -4.875 86.988281 -4.808594 87.625 -4.695312 C 88.265625 -4.585938 88.890625 -4.433594 89.503906 -4.230469 C 90.726562 -3.820312 91.882812 -3.203125 92.902344 -2.386719 L 92.90625 -2.386719 C 93.175781 -2.167969 93.570312 -2.179688 93.828125 -2.425781 C 94.105469 -2.695312 94.117188 -3.136719 93.847656 -3.410156 C 92.816406 -4.472656 91.558594 -5.324219 90.195312 -5.945312 Z M 90.195312 -5.945312 " fill-opacity="1" fill-rule="nonzero"/></g></g></g><g clip-path="url(#837d4f8a06)"><g clip-path="url(#35a9fbc965)"><g clip-path="url(#f695e21d31)"><g clip-path="url(#f573638100)"><g clip-path="url(#2668cd6aa2)"><g clip-path="url(#e87bd7d7fd)"><g clip-path="url(#197a74000a)"><g clip-path="url(#b6b275145e)"><g clip-path="url(#8b204d2bc6)"><g clip-path="url(#150a7f8d60)"><path fill="#36d167" d="M 87.75 42.363281 C 75.335938 52.371094 61.710938 60.382812 47.363281 67.183594 C 40.152344 70.515625 32.78125 73.527344 25.007812 75.429688 C 20.707031 76.363281 12 78.363281 9.613281 73.269531 C 7.09375 67.152344 17.910156 58.246094 22.054688 54.6875 C 37.3125 42.453125 54.5625 32.484375 73.117188 26.179688 C 80.496094 23.675781 88.066406 21.574219 95.753906 20.285156 C 91.925781 21.054688 88.15625 22.089844 84.425781 23.21875 C 62.113281 29.941406 41.542969 41.828125 24.050781 57.042969 C 20.855469 59.925781 12.890625 67.296875 13.078125 71.472656 C 13.292969 72.371094 14.890625 72.457031 15.851562 72.496094 C 18.519531 72.519531 21.199219 71.882812 23.855469 71.183594 C 27.460938 70.175781 31.058594 68.796875 34.570312 67.355469 C 45.171875 62.863281 55.28125 57.152344 64.898438 50.851562 C 71.296875 46.621094 77.5 42.066406 83.140625 37.097656 C 83.148438 37.066406 87.75 42.363281 87.75 42.363281 Z M 87.75 42.363281 " fill-opacity="1" fill-rule="nonzero"/></g></g></g></g></g></g></g></g></g></g><g clip-path="url(#b5e4c5a9f0)"><g clip-path="url(#63af53c266)"><g clip-path="url(#19806c7153)"><g clip-path="url(#198e329adf)"><g clip-path="url(#5e53d79ab1)"><g clip-path="url(#7cbbdb8541)"><g clip-path="url(#bfbf2da6f8)"><g clip-path="url(#5fc026f322)"><g clip-path="url(#e5090832bc)"><g clip-path="url(#bdfb49573d)"><path fill="#36d167" d="M 73.398438 35.507812 L 86.5625 35.683594 C 88.910156 35.699219 90.761719 37.617188 90.71875 39.945312 C 90.699219 42.277344 88.769531 44.117188 86.425781 44.070312 L 73.257812 43.894531 C 70.914062 43.878906 69.054688 41.960938 69.105469 39.632812 C 69.15625 38.269531 69.828125 37.054688 70.84375 36.296875 C 71.574219 35.804688 72.460938 35.484375 73.398438 35.507812 Z M 73.398438 35.507812 " fill-opacity="1" fill-rule="nonzero"/></g></g></g></g></g></g></g></g></g></g><g clip-path="url(#091034d4a7)"><g clip-path="url(#de2b42f1aa)"><g clip-path="url(#2da261efbf)"><g clip-path="url(#2eeea9bafb)"><g clip-path="url(#44002b52e6)"><g clip-path="url(#614c22bd82)"><g clip-path="url(#7e4801ceff)"><g clip-path="url(#84158ad055)"><g clip-path="url(#656abfbf50)"><g clip-path="url(#eab3cdb7e7)"><path fill="#36d167" d="M 87.75 42.363281 C 75.335938 52.371094 61.710938 60.382812 47.363281 67.183594 C 40.152344 70.515625 32.78125 73.527344 25.007812 75.429688 C 20.707031 76.363281 12 78.363281 9.613281 73.269531 C 7.09375 67.152344 17.910156 58.246094 22.054688 54.6875 C 37.3125 42.453125 54.5625 32.484375 73.117188 26.179688 C 80.496094 23.675781 88.066406 21.574219 95.753906 20.285156 C 91.925781 21.054688 88.15625 22.089844 84.425781 23.21875 C 62.113281 29.941406 41.542969 41.828125 24.050781 57.042969 C 20.855469 59.925781 12.890625 67.296875 13.078125 71.472656 C 13.292969 72.371094 14.890625 72.457031 15.851562 72.496094 C 18.519531 72.519531 21.199219 71.882812 23.855469 71.183594 C 27.460938 70.175781 31.058594 68.796875 34.570312 67.355469 C 45.171875 62.863281 55.28125 57.152344 64.898438 50.851562 C 71.296875 46.621094 77.5 42.066406 83.140625 37.097656 C 83.148438 37.066406 87.75 42.363281 87.75 42.363281 Z M 87.75 42.363281 " fill-opacity="1" fill-rule="nonzero"/></g></g></g></g></g></g></g></g></g></g><g clip-path="url(#604fe476ca)"><g clip-path="url(#1a06d0f0f3)"><g clip-path="url(#a50b2f3b74)"><g clip-path="url(#7cd2ba046f)"><g clip-path="url(#0bcedb8cfd)"><g clip-path="url(#99157b59f5)"><g clip-path="url(#b0860e5991)"><g clip-path="url(#5a9138107d)"><g clip-path="url(#5c0492dd88)"><g clip-path="url(#40c2ace85e)"><path fill="#36d167" d="M 73.398438 35.507812 L 86.5625 35.683594 C 88.910156 35.699219 90.761719 37.617188 90.71875 39.945312 C 90.699219 42.277344 88.769531 44.117188 86.425781 44.070312 L 73.257812 43.894531 C 70.914062 43.878906 69.054688 41.960938 69.105469 39.632812 C 69.15625 38.269531 69.828125 37.054688 70.84375 36.296875 C 71.574219 35.804688 72.460938 35.484375 73.398438 35.507812 Z M 73.398438 35.507812 " fill-opacity="1" fill-rule="nonzero"/></g></g></g></g></g></g></g></g></g></g><g clip-path="url(#36f657b069)"><g clip-path="url(#9de8fbcba2)"><g clip-path="url(#2f112270c8)"><g clip-path="url(#96bcdab87d)"><g clip-path="url(#87b74995e8)"><g clip-path="url(#b0745f11a8)"><g clip-path="url(#2fe72f63f0)"><g clip-path="url(#3bbb034966)"><g clip-path="url(#b9100f354c)"><g clip-path="url(#f07710491a)"><path fill="#36d167" d="M 88.074219 40.125 C 75.660156 50.132812 62.035156 58.148438 47.683594 64.949219 C 40.472656 68.277344 33.101562 71.289062 25.328125 73.195312 C 21.027344 74.125 12.316406 76.125 9.929688 71.035156 C 7.410156 64.914062 18.230469 56.007812 22.375 52.449219 C 37.632812 40.214844 54.882812 30.246094 73.441406 23.941406 C 80.824219 21.4375 88.394531 19.335938 96.082031 18.046875 C 92.253906 18.8125 88.484375 19.851562 84.75 20.980469 C 62.4375 27.703125 41.867188 39.589844 24.371094 54.804688 C 21.175781 57.691406 13.207031 65.058594 13.398438 69.238281 C 13.613281 70.136719 15.207031 70.21875 16.171875 70.257812 C 18.839844 70.285156 21.519531 69.648438 24.175781 68.945312 C 27.78125 67.9375 31.375 66.558594 34.890625 65.117188 C 45.492188 60.625 55.605469 54.914062 65.222656 48.613281 C 71.621094 44.382812 77.824219 39.828125 83.464844 34.859375 C 83.472656 34.824219 88.074219 40.125 88.074219 40.125 Z M 88.074219 40.125 " fill-opacity="1" fill-rule="nonzero"/><path fill="#36d167" d="M 88.074219 40.125 C 75.660156 50.132812 62.035156 58.148438 47.683594 64.949219 C 40.472656 68.277344 33.101562 71.289062 25.328125 73.195312 C 21.027344 74.125 12.316406 76.125 9.929688 71.035156 C 7.410156 64.914062 18.230469 56.007812 22.375 52.449219 C 37.632812 40.214844 54.882812 30.246094 73.441406 23.941406 C 80.824219 21.4375 88.394531 19.335938 96.082031 18.046875 C 92.253906 18.8125 88.484375 19.851562 84.75 20.980469 C 62.4375 27.703125 41.867188 39.589844 24.371094 54.804688 C 21.175781 57.691406 13.207031 65.058594 13.398438 69.238281 C 13.613281 70.136719 15.207031 70.21875 16.171875 70.257812 C 18.839844 70.285156 21.519531 69.648438 24.175781 68.945312 C 27.78125 67.9375 31.375 66.558594 34.890625 65.117188 C 45.492188 60.625 55.605469 54.914062 65.222656 48.613281 C 71.621094 44.382812 77.824219 39.828125 83.464844 34.859375 C 83.472656 34.824219 88.074219 40.125 88.074219 40.125 Z M 88.074219 40.125 " fill-opacity="1" fill-rule="nonzero"/></g></g></g></g></g></g></g></g></g></g><g clip-path="url(#7b62c2efa0)"><g clip-path="url(#840dc40d7c)"><g clip-path="url(#b8185b4f56)"><g clip-path="url(#cd9f277671)"><g clip-path="url(#5ec330855b)"><g clip-path="url(#6bf93b7c0c)"><g clip-path="url(#19d5bd41a1)"><g clip-path="url(#3e134a0b30)"><g clip-path="url(#7330987a3e)"><g clip-path="url(#aa3c34da5f)"><path fill="#36d167" d="M 84.742188 43.980469 C 71.789062 53.863281 57.660156 61.671875 42.828125 68.21875 C 35.375 71.417969 27.765625 74.289062 19.777344 76.015625 C 15.359375 76.839844 6.417969 78.636719 4.121094 73.355469 C 1.71875 67.015625 13.007812 58.210938 17.335938 54.6875 C 33.246094 42.609375 51.132812 32.90625 70.25 26.984375 C 77.855469 24.640625 85.640625 22.703125 93.523438 21.609375 C 89.59375 22.285156 85.71875 23.234375 81.875 24.28125 C 58.910156 30.519531 37.585938 42.089844 19.308594 57.15625 C 15.964844 60.019531 7.632812 67.335938 7.707031 71.613281 C 7.902344 72.539062 9.53125 72.675781 10.507812 72.738281 C 13.234375 72.84375 15.988281 72.269531 18.714844 71.628906 C 22.425781 70.703125 26.136719 69.394531 29.761719 68.019531 C 40.710938 63.730469 51.1875 58.175781 61.179688 52.003906 C 67.828125 47.863281 74.285156 43.378906 80.179688 38.453125 C 80.195312 38.421875 84.742188 43.980469 84.742188 43.980469 Z M 84.742188 43.980469 " fill-opacity="1" fill-rule="nonzero"/></g></g></g></g></g></g></g></g></g></g><g clip-path="url(#58999246b2)"><g clip-path="url(#f9e5141a57)"><g clip-path="url(#12d462cd1f)"><g clip-path="url(#91139c8cb4)"><g clip-path="url(#da1b5eab02)"><g clip-path="url(#15a91fde22)"><g clip-path="url(#ce78428cd0)"><g clip-path="url(#5aeb0a64f5)"><g clip-path="url(#edea1e5213)"><g clip-path="url(#94a8af768b)"><path fill="#36d167" d="M 85.425781 37.511719 C 87.539062 38.519531 88.484375 41.113281 87.410156 43.253906 L 81.367188 55.742188 C 80.359375 57.839844 77.742188 58.757812 75.609375 57.710938 C 73.480469 56.671875 72.550781 54.101562 73.625 51.96875 L 79.667969 39.480469 C 80.03125 38.792969 80.5 38.246094 81.101562 37.835938 C 82.332031 36.957031 83.996094 36.785156 85.425781 37.511719 Z M 85.425781 37.511719 " fill-opacity="1" fill-rule="nonzero"/></g></g></g></g></g></g></g></g></g></g><g clip-path="url(#c6c9b76070)"><g clip-path="url(#b9a1a52987)"><g clip-path="url(#4abe4ae9f1)"><g clip-path="url(#235a523cbe)"><g clip-path="url(#bd9d08d4b0)"><g clip-path="url(#93663ca0a4)"><g clip-path="url(#587289dfe9)"><g clip-path="url(#c407e8d4cd)"><g clip-path="url(#b324333247)"><g clip-path="url(#b1e64dfb0a)"><path fill="#36d167" d="M 70.277344 36.542969 L 83.714844 37.105469 C 86.109375 37.191406 87.949219 39.207031 87.835938 41.589844 C 87.757812 43.972656 85.734375 45.800781 83.34375 45.6875 L 69.90625 45.125 C 67.511719 45.042969 65.671875 43.023438 65.785156 40.636719 C 65.871094 39.25 66.59375 38.023438 67.648438 37.28125 C 68.410156 36.792969 69.320312 36.492188 70.277344 36.542969 Z M 70.277344 36.542969 " fill-opacity="1" fill-rule="nonzero"/></g></g></g></g></g></g></g></g></g></g><g clip-path="url(#6290643adb)"><g clip-path="url(#a1952c57eb)"><g clip-path="url(#f08909a0d7)"><g clip-path="url(#36ca0b477c)"><g clip-path="url(#7c84c00695)"><g clip-path="url(#bc4175334d)"><g clip-path="url(#27e47184e5)"><g clip-path="url(#57d87ea0f7)"><g clip-path="url(#86feb0fc9b)"><g clip-path="url(#430cca0728)"><path fill="#36d167" d="M 84.742188 43.980469 C 71.789062 53.863281 57.660156 61.671875 42.828125 68.21875 C 35.375 71.417969 27.765625 74.289062 19.777344 76.015625 C 15.359375 76.839844 6.417969 78.636719 4.121094 73.355469 C 1.71875 67.015625 13.007812 58.210938 17.335938 54.6875 C 33.246094 42.609375 51.132812 32.90625 70.25 26.984375 C 77.855469 24.640625 85.640625 22.703125 93.523438 21.609375 C 89.59375 22.285156 85.71875 23.234375 81.875 24.28125 C 58.910156 30.519531 37.585938 42.089844 19.308594 57.15625 C 15.964844 60.019531 7.632812 67.335938 7.707031 71.613281 C 7.902344 72.539062 9.53125 72.675781 10.507812 72.738281 C 13.234375 72.84375 15.988281 72.269531 18.714844 71.628906 C 22.425781 70.703125 26.136719 69.394531 29.761719 68.019531 C 40.710938 63.730469 51.1875 58.175781 61.179688 52.003906 C 67.828125 47.863281 74.285156 43.378906 80.179688 38.453125 C 80.195312 38.421875 84.742188 43.980469 84.742188 43.980469 Z M 84.742188 43.980469 " fill-opacity="1" fill-rule="nonzero"/></g></g></g></g></g></g></g></g></g></g><g clip-path="url(#c59c254a04)"><g clip-path="url(#751ed830b5)"><g clip-path="url(#152bdff001)"><g clip-path="url(#08541265ee)"><g clip-path="url(#e66bf1b032)"><g clip-path="url(#b3c19660ca)"><g clip-path="url(#159efb432d)"><g clip-path="url(#16d3a3d239)"><g clip-path="url(#fd7733f613)"><g clip-path="url(#17e1bd3bb5)"><path fill="#36d167" d="M 85.425781 37.511719 C 87.539062 38.519531 88.484375 41.113281 87.410156 43.253906 L 81.367188 55.742188 C 80.359375 57.839844 77.742188 58.757812 75.609375 57.710938 C 73.480469 56.671875 72.550781 54.101562 73.625 51.96875 L 79.667969 39.480469 C 80.03125 38.792969 80.5 38.246094 81.101562 37.835938 C 82.332031 36.957031 83.996094 36.785156 85.425781 37.511719 Z M 85.425781 37.511719 " fill-opacity="1" fill-rule="nonzero"/></g></g></g></g></g></g></g></g></g></g><g clip-path="url(#7c3d87d011)"><g clip-path="url(#7d099b468c)"><g clip-path="url(#0b292e3f8b)"><g clip-path="url(#ffdd28611e)"><g clip-path="url(#78fd00878c)"><g clip-path="url(#b243ce6e69)"><g clip-path="url(#0d079b15f0)"><g clip-path="url(#e96f88cc4d)"><g clip-path="url(#7909ec1034)"><g clip-path="url(#a06c751312)"><path fill="#36d167" d="M 70.277344 36.542969 L 83.714844 37.105469 C 86.109375 37.191406 87.949219 39.207031 87.835938 41.589844 C 87.757812 43.972656 85.734375 45.800781 83.34375 45.6875 L 69.90625 45.125 C 67.511719 45.042969 65.671875 43.023438 65.785156 40.636719 C 65.871094 39.25 66.59375 38.023438 67.648438 37.28125 C 68.410156 36.792969 69.320312 36.492188 70.277344 36.542969 Z M 70.277344 36.542969 " fill-opacity="1" fill-rule="nonzero"/></g></g></g></g></g></g></g></g></g></g><g clip-path="url(#768c3128cf)"><g clip-path="url(#e15f85a0d4)"><g clip-path="url(#5ab495aff9)"><g clip-path="url(#b26d90e394)"><g clip-path="url(#30d45ce348)"><g clip-path="url(#d2239a7fe0)"><g clip-path="url(#dfeb04552f)"><g clip-path="url(#b8d87e71f2)"><g clip-path="url(#c18a6d7624)"><g clip-path="url(#0d61b87d3e)"><path fill="#36d167" d="M 90.679688 38.226562 C 78.71875 48.097656 65.566406 56.039062 51.691406 62.800781 C 44.714844 66.109375 37.582031 69.113281 30.046875 71.046875 C 25.871094 71.992188 17.429688 74.019531 15.050781 69.078125 C 12.535156 63.128906 22.953125 54.347656 26.941406 50.839844 C 41.636719 38.769531 58.300781 28.894531 76.269531 22.574219 C 83.421875 20.070312 90.753906 17.949219 98.21875 16.625 C 94.503906 17.40625 90.851562 18.449219 87.234375 19.585938 C 65.613281 26.34375 45.746094 38.121094 28.90625 53.117188 C 25.835938 55.964844 18.171875 63.222656 18.402344 67.292969 C 18.621094 68.164062 20.171875 68.238281 21.109375 68.261719 C 23.703125 68.261719 26.300781 67.621094 28.875 66.910156 C 32.371094 65.898438 35.851562 64.515625 39.253906 63.078125 C 49.511719 58.605469 59.277344 52.945312 68.558594 46.710938 C 74.730469 42.53125 80.710938 38.027344 86.136719 33.136719 C 86.148438 33.097656 90.679688 38.226562 90.679688 38.226562 Z M 90.679688 38.226562 " fill-opacity="1" fill-rule="nonzero"/><path fill="#36d167" d="M 90.679688 38.226562 C 78.71875 48.097656 65.566406 56.039062 51.691406 62.800781 C 44.714844 66.109375 37.582031 69.113281 30.046875 71.046875 C 25.871094 71.992188 17.429688 74.019531 15.050781 69.078125 C 12.535156 63.128906 22.953125 54.347656 26.941406 50.839844 C 41.636719 38.769531 58.300781 28.894531 76.269531 22.574219 C 83.421875 20.070312 90.753906 17.949219 98.21875 16.625 C 94.503906 17.40625 90.851562 18.449219 87.234375 19.585938 C 65.613281 26.34375 45.746094 38.121094 28.90625 53.117188 C 25.835938 55.964844 18.171875 63.222656 18.402344 67.292969 C 18.621094 68.164062 20.171875 68.238281 21.109375 68.261719 C 23.703125 68.261719 26.300781 67.621094 28.875 66.910156 C 32.371094 65.898438 35.851562 64.515625 39.253906 63.078125 C 49.511719 58.605469 59.277344 52.945312 68.558594 46.710938 C 74.730469 42.53125 80.710938 38.027344 86.136719 33.136719 C 86.148438 33.097656 90.679688 38.226562 90.679688 38.226562 Z M 90.679688 38.226562 " fill-opacity="1" fill-rule="nonzero"/></g></g></g></g></g></g></g></g></g></g><g clip-path="url(#b6d8a6a4a4)"><g clip-path="url(#a4425939f6)"><g clip-path="url(#3148cffb4c)"><g clip-path="url(#ec6a03d8a8)"><g clip-path="url(#0783891933)"><g clip-path="url(#434d21e9e5)"><g clip-path="url(#092dfdca3b)"><g clip-path="url(#cf9d288a7d)"><g clip-path="url(#47d4a24d9b)"><g clip-path="url(#4106fe4ba1)"><path fill="#36d167" d="M 88.015625 42.203125 C 75.601562 52.207031 61.980469 60.222656 47.628906 67.023438 C 40.417969 70.351562 33.046875 73.363281 25.273438 75.273438 C 20.972656 76.199219 12.265625 78.199219 9.878906 73.109375 C 7.359375 66.988281 18.175781 58.082031 22.320312 54.527344 C 37.578125 42.289062 54.828125 32.320312 73.378906 26.015625 C 80.765625 23.515625 88.332031 21.410156 96.019531 20.121094 C 92.191406 20.890625 88.421875 21.925781 84.691406 23.054688 C 62.378906 29.777344 41.808594 41.664062 24.316406 56.878906 C 21.121094 59.765625 13.15625 67.132812 13.34375 71.3125 C 13.558594 72.207031 15.15625 72.292969 16.117188 72.332031 C 18.785156 72.355469 21.46875 71.722656 24.121094 71.019531 C 27.730469 70.011719 31.320312 68.632812 34.835938 67.191406 C 45.4375 62.699219 55.546875 56.992188 65.164062 50.6875 C 71.5625 46.464844 77.765625 41.902344 83.40625 36.9375 C 83.414062 36.902344 88.015625 42.203125 88.015625 42.203125 Z M 88.015625 42.203125 " fill-opacity="1" fill-rule="nonzero"/></g></g></g></g></g></g></g></g></g></g><g clip-path="url(#e45ff48322)"><g clip-path="url(#0f1e6844b9)"><g clip-path="url(#ab7e2820c5)"><g clip-path="url(#874720d6e8)"><g clip-path="url(#2c47028864)"><g clip-path="url(#079f9b561b)"><g clip-path="url(#57850d70b8)"><g clip-path="url(#a4d2854b18)"><g clip-path="url(#6bda16cf5b)"><g clip-path="url(#6f2f2a0ecf)"><path fill="#36d167" d="M 73.664062 35.347656 L 86.828125 35.523438 C 89.175781 35.535156 91.027344 37.453125 90.980469 39.785156 C 90.96875 42.113281 89.035156 43.953125 86.691406 43.90625 L 73.523438 43.730469 C 71.179688 43.714844 69.320312 41.796875 69.371094 39.46875 C 69.421875 38.105469 70.09375 36.894531 71.109375 36.140625 C 71.839844 35.640625 72.722656 35.320312 73.664062 35.347656 Z M 73.664062 35.347656 " fill-opacity="1" fill-rule="nonzero"/></g></g></g></g></g></g></g></g></g></g><g clip-path="url(#6316e97c65)"><g clip-path="url(#66c0679d7c)"><g clip-path="url(#41f4fbd71a)"><g clip-path="url(#90620d528b)"><g clip-path="url(#720d7cdb86)"><g clip-path="url(#1ee5169a8f)"><g clip-path="url(#9b17534d7b)"><g clip-path="url(#c33b51cb0a)"><g clip-path="url(#71a6572cb1)"><g clip-path="url(#a7393c4faa)"><path fill="#36d167" d="M 88.015625 42.203125 C 75.601562 52.207031 61.980469 60.222656 47.628906 67.023438 C 40.417969 70.351562 33.046875 73.363281 25.273438 75.273438 C 20.972656 76.199219 12.265625 78.199219 9.878906 73.109375 C 7.359375 66.988281 18.175781 58.082031 22.320312 54.527344 C 37.578125 42.289062 54.828125 32.320312 73.378906 26.015625 C 80.765625 23.515625 88.332031 21.410156 96.019531 20.121094 C 92.191406 20.890625 88.421875 21.925781 84.691406 23.054688 C 62.378906 29.777344 41.808594 41.664062 24.316406 56.878906 C 21.121094 59.765625 13.15625 67.132812 13.34375 71.3125 C 13.558594 72.207031 15.15625 72.292969 16.117188 72.332031 C 18.785156 72.355469 21.46875 71.722656 24.121094 71.019531 C 27.730469 70.011719 31.320312 68.632812 34.835938 67.191406 C 45.4375 62.699219 55.546875 56.992188 65.164062 50.6875 C 71.5625 46.464844 77.765625 41.902344 83.40625 36.9375 C 83.414062 36.902344 88.015625 42.203125 88.015625 42.203125 Z M 88.015625 42.203125 " fill-opacity="1" fill-rule="nonzero"/></g></g></g></g></g></g></g></g></g></g><g clip-path="url(#afb1c0d652)"><g clip-path="url(#bc93efba19)"><g clip-path="url(#229f792d70)"><g clip-path="url(#f599c048ac)"><g clip-path="url(#274aa079df)"><g clip-path="url(#3fa1a56d00)"><g clip-path="url(#7d39dbda66)"><g clip-path="url(#e7048ea37f)"><g clip-path="url(#b2f370666b)"><g clip-path="url(#8395eff81a)"><path fill="#36d167" d="M 73.664062 35.347656 L 86.828125 35.523438 C 89.175781 35.535156 91.027344 37.453125 90.980469 39.785156 C 90.96875 42.113281 89.035156 43.953125 86.691406 43.90625 L 73.523438 43.730469 C 71.179688 43.714844 69.320312 41.796875 69.371094 39.46875 C 69.421875 38.105469 70.09375 36.894531 71.109375 36.140625 C 71.839844 35.640625 72.722656 35.320312 73.664062 35.347656 Z M 73.664062 35.347656 " fill-opacity="1" fill-rule="nonzero"/></g></g></g></g></g></g></g></g></g></g><g clip-path="url(#c27e084f12)"><g clip-path="url(#4b05d730b8)"><g clip-path="url(#ec1cca07f3)"><g clip-path="url(#ad9eab8730)"><g clip-path="url(#2637b22dde)"><g clip-path="url(#16c51c9e03)"><g clip-path="url(#c3a754257d)"><g clip-path="url(#0164140235)"><g clip-path="url(#da83870cf8)"><g clip-path="url(#85b1e49e4a)"><path fill="#36d167" d="M 97.585938 32.746094 C 86.21875 43.914062 73.453125 53.214844 59.847656 61.382812 C 53 65.398438 45.960938 69.109375 38.417969 71.769531 C 34.226562 73.113281 25.757812 75.953125 22.878906 71.117188 C 19.765625 65.273438 29.65625 55.355469 33.425781 51.410156 C 47.402344 37.746094 63.585938 26.148438 81.425781 18.0625 C 88.527344 14.855469 95.851562 12.023438 103.375 9.992188 C 99.640625 11.132812 95.988281 12.527344 92.390625 14.015625 C 70.847656 22.878906 51.550781 36.710938 35.644531 53.558594 C 32.75 56.742188 25.550781 64.851562 26.152344 68.992188 C 26.453125 69.863281 28.050781 69.792969 29.011719 69.734375 C 31.667969 69.5 34.273438 68.605469 36.847656 67.648438 C 40.335938 66.296875 43.777344 64.574219 47.132812 62.796875 C 57.238281 57.292969 66.734375 50.625 75.6875 43.414062 C 81.632812 38.585938 87.355469 33.445312 92.480469 27.953125 C 92.484375 27.917969 97.585938 32.746094 97.585938 32.746094 Z M 97.585938 32.746094 " fill-opacity="1" fill-rule="nonzero"/></g></g></g></g></g></g></g></g></g></g><g clip-path="url(#310198968c)"><g clip-path="url(#c56ba7d976)"><g clip-path="url(#61d53d8040)"><g clip-path="url(#e77b110f8c)"><g clip-path="url(#e5e1289bad)"><g clip-path="url(#75ac151e4f)"><g clip-path="url(#c9f1d29030)"><g clip-path="url(#32bf47783b)"><g clip-path="url(#bc4e20a7e3)"><g clip-path="url(#bd3ceb147b)"><path fill="#36d167" d="M 82.628906 27.320312 L 95.746094 26.210938 C 98.082031 26 100.117188 27.726562 100.300781 30.050781 C 100.515625 32.367188 98.773438 34.390625 96.4375 34.570312 L 83.316406 35.679688 C 80.980469 35.890625 78.945312 34.164062 78.761719 31.839844 C 78.679688 30.480469 79.226562 29.210938 80.164062 28.359375 C 80.84375 27.792969 81.691406 27.386719 82.628906 27.320312 Z M 82.628906 27.320312 " fill-opacity="1" fill-rule="nonzero"/></g></g></g></g></g></g></g></g></g></g><g clip-path="url(#741885c131)"><g clip-path="url(#e892873c08)"><g clip-path="url(#d8c6d86ad6)"><g clip-path="url(#b2a5a74832)"><g clip-path="url(#5d257d3165)"><g clip-path="url(#0e339ee14e)"><g clip-path="url(#673bd16ecc)"><g clip-path="url(#9d03bb72be)"><g clip-path="url(#d0a2254270)"><g clip-path="url(#f5b1c4417b)"><path fill="#36d167" d="M 97.585938 32.746094 C 86.21875 43.914062 73.453125 53.214844 59.847656 61.382812 C 53 65.398438 45.960938 69.109375 38.417969 71.769531 C 34.226562 73.113281 25.757812 75.953125 22.878906 71.117188 C 19.765625 65.273438 29.65625 55.355469 33.425781 51.410156 C 47.402344 37.746094 63.585938 26.148438 81.425781 18.0625 C 88.527344 14.855469 95.851562 12.023438 103.375 9.992188 C 99.640625 11.132812 95.988281 12.527344 92.390625 14.015625 C 70.847656 22.878906 51.550781 36.710938 35.644531 53.558594 C 32.75 56.742188 25.550781 64.851562 26.152344 68.992188 C 26.453125 69.863281 28.050781 69.792969 29.011719 69.734375 C 31.667969 69.5 34.273438 68.605469 36.847656 67.648438 C 40.335938 66.296875 43.777344 64.574219 47.132812 62.796875 C 57.238281 57.292969 66.734375 50.625 75.6875 43.414062 C 81.632812 38.585938 87.355469 33.445312 92.480469 27.953125 C 92.484375 27.917969 97.585938 32.746094 97.585938 32.746094 Z M 97.585938 32.746094 " fill-opacity="1" fill-rule="nonzero"/></g></g></g></g></g></g></g></g></g></g><g clip-path="url(#e2977df081)"><g clip-path="url(#241d68fe35)"><g clip-path="url(#f882ac0d63)"><g clip-path="url(#8e4a5da70a)"><g clip-path="url(#9b004f2d90)"><g clip-path="url(#47839ca9d1)"><g clip-path="url(#55a6b184c4)"><g clip-path="url(#694246c5f6)"><g clip-path="url(#8b62abc637)"><g clip-path="url(#413a4763a1)"><path fill="#36d167" d="M 82.628906 27.320312 L 95.746094 26.210938 C 98.082031 26 100.117188 27.726562 100.300781 30.050781 C 100.515625 32.367188 98.773438 34.390625 96.4375 34.570312 L 83.316406 35.679688 C 80.980469 35.890625 78.945312 34.164062 78.761719 31.839844 C 78.679688 30.480469 79.226562 29.210938 80.164062 28.359375 C 80.84375 27.792969 81.691406 27.386719 82.628906 27.320312 Z M 82.628906 27.320312 " fill-opacity="1" fill-rule="nonzero"/></g></g></g></g></g></g></g></g></g></g><g clip-path="url(#3614745ae3)"><g clip-path="url(#2112f53d6b)"><g transform="matrix(1, 0, 0, 1, 70, 10)"><g clip-path="url(#0c8742b238)"><g clip-path="url(#8dd4728d1d)"><g clip-path="url(#875b45ea24)"><path fill="#ef7623" d="M 0.359375 0.542969 L 19.648438 0.542969 L 19.648438 19.832031 L 0.359375 19.832031 Z M 0.359375 0.542969 " fill-opacity="1" fill-rule="nonzero"/></g></g></g></g></g></g><g clip-path="url(#5ccbe34aec)"><path fill="#002f87" d="M 16.125 9.65625 L 29.207031 9.65625 L 29.207031 89.863281 L 16.125 89.863281 Z M 70.644531 89.863281 L 56.785156 89.863281 L 41.617188 60.824219 C 41.40625 60.824219 41.167969 60.847656 40.910156 60.894531 C 40.644531 60.917969 40.257812 60.929688 39.742188 60.929688 C 39.25 60.929688 38.507812 60.929688 37.515625 60.929688 C 36.542969 60.929688 35.261719 60.929688 33.664062 60.929688 L 33.664062 51.332031 L 41.085938 51.332031 C 42.6875 51.332031 44.277344 51.066406 45.859375 50.519531 C 47.460938 49.980469 48.910156 49.097656 50.207031 47.871094 C 51.527344 46.628906 52.585938 44.898438 53.390625 42.683594 C 54.1875 40.480469 54.59375 37.738281 54.59375 34.464844 C 54.59375 33.175781 54.398438 31.675781 54.027344 29.980469 C 53.671875 28.269531 52.929688 26.628906 51.800781 25.078125 C 50.6875 23.507812 49.113281 22.203125 47.0625 21.160156 C 45.03125 20.101562 42.34375 19.574219 39 19.574219 L 33.664062 19.574219 L 33.664062 9.65625 L 39.214844 9.65625 C 42.625 9.65625 46.011719 10.214844 49.359375 11.316406 C 52.703125 12.402344 55.699219 14.03125 58.339844 16.222656 C 61 18.390625 63.148438 21.011719 64.773438 24.089844 C 66.417969 27.175781 67.25 30.636719 67.25 34.464844 C 67.25 40.277344 65.90625 45.21875 63.21875 49.285156 C 60.53125 53.332031 56.890625 56.339844 52.292969 58.316406 Z M 70.644531 89.863281 " fill-opacity="1" fill-rule="nonzero"/><path fill="#002f87" d="M 15.75 9.65625 L 28.832031 9.65625 L 28.832031 89.863281 L 15.75 89.863281 Z M 70.269531 89.863281 L 56.410156 89.863281 L 41.242188 60.824219 C 41.03125 60.824219 40.792969 60.847656 40.535156 60.894531 C 40.269531 60.917969 39.882812 60.929688 39.367188 60.929688 C 38.875 60.929688 38.132812 60.929688 37.140625 60.929688 C 36.167969 60.929688 34.886719 60.929688 33.289062 60.929688 L 33.289062 51.332031 L 40.710938 51.332031 C 42.3125 51.332031 43.902344 51.066406 45.484375 50.519531 C 47.085938 49.980469 48.535156 49.097656 49.835938 47.871094 C 51.152344 46.628906 52.210938 44.898438 53.015625 42.683594 C 53.8125 40.480469 54.21875 37.738281 54.21875 34.464844 C 54.21875 33.175781 54.023438 31.675781 53.652344 29.980469 C 53.300781 28.269531 52.554688 26.628906 51.425781 25.078125 C 50.3125 23.507812 48.738281 22.203125 46.6875 21.160156 C 44.65625 20.101562 41.96875 19.574219 38.625 19.574219 L 33.289062 19.574219 L 33.289062 9.65625 L 38.839844 9.65625 C 42.25 9.65625 45.636719 10.214844 48.984375 11.316406 C 52.328125 12.402344 55.324219 14.03125 57.964844 16.222656 C 60.625 18.390625 62.773438 21.011719 64.398438 24.089844 C 66.042969 27.175781 66.875 30.636719 66.875 34.464844 C 66.875 40.277344 65.53125 45.21875 62.84375 49.285156 C 60.15625 53.332031 56.515625 56.339844 51.921875 58.316406 Z M 70.269531 89.863281 " fill-opacity="1" fill-rule="nonzero"/></g><g clip-path="url(#060eab1928)"><path fill="#002f87" d="M 16.078125 9.65625 L 29.160156 9.65625 L 29.160156 89.863281 L 16.078125 89.863281 Z M 70.597656 89.863281 L 56.738281 89.863281 L 41.570312 60.824219 C 41.359375 60.824219 41.117188 60.847656 40.863281 60.894531 C 40.597656 60.917969 40.207031 60.929688 39.695312 60.929688 C 39.199219 60.929688 38.457031 60.929688 37.46875 60.929688 C 36.496094 60.929688 35.214844 60.929688 33.613281 60.929688 L 33.613281 51.332031 L 41.039062 51.332031 C 42.640625 51.332031 44.230469 51.066406 45.8125 50.519531 C 47.414062 49.980469 48.863281 49.097656 50.160156 47.871094 C 51.476562 46.628906 52.539062 44.898438 53.34375 42.683594 C 54.136719 40.480469 54.546875 37.738281 54.546875 34.464844 C 54.546875 33.175781 54.351562 31.675781 53.980469 29.980469 C 53.625 28.269531 52.882812 26.628906 51.753906 25.078125 C 50.636719 23.507812 49.066406 22.203125 47.015625 21.160156 C 44.980469 20.101562 42.292969 19.574219 38.953125 19.574219 L 33.613281 19.574219 L 33.613281 9.65625 L 39.164062 9.65625 C 42.578125 9.65625 45.960938 10.214844 49.3125 11.316406 C 52.652344 12.402344 55.648438 14.03125 58.292969 16.222656 C 60.953125 18.390625 63.101562 21.011719 64.726562 24.089844 C 66.371094 27.175781 67.203125 30.636719 67.203125 34.464844 C 67.203125 40.277344 65.859375 45.21875 63.171875 49.285156 C 60.484375 53.332031 56.84375 56.339844 52.246094 58.316406 Z M 70.597656 89.863281 " fill-opacity="1" fill-rule="nonzero"/></g><g clip-path="url(#5924613f0a)"><path fill="#002f87" d="M 15.703125 9.65625 L 28.785156 9.65625 L 28.785156 89.863281 L 15.703125 89.863281 Z M 70.222656 89.863281 L 56.363281 89.863281 L 41.195312 60.824219 C 40.984375 60.824219 40.742188 60.847656 40.488281 60.894531 C 40.222656 60.917969 39.832031 60.929688 39.320312 60.929688 C 38.824219 60.929688 38.082031 60.929688 37.09375 60.929688 C 36.121094 60.929688 34.839844 60.929688 33.238281 60.929688 L 33.238281 51.332031 L 40.664062 51.332031 C 42.265625 51.332031 43.855469 51.066406 45.4375 50.519531 C 47.039062 49.980469 48.488281 49.097656 49.785156 47.871094 C 51.101562 46.628906 52.164062 44.898438 52.96875 42.683594 C 53.761719 40.480469 54.171875 37.738281 54.171875 34.464844 C 54.171875 33.175781 53.976562 31.675781 53.605469 29.980469 C 53.25 28.269531 52.507812 26.628906 51.378906 25.078125 C 50.261719 23.507812 48.691406 22.203125 46.640625 21.160156 C 44.605469 20.101562 41.917969 19.574219 38.578125 19.574219 L 33.238281 19.574219 L 33.238281 9.65625 L 38.789062 9.65625 C 42.203125 9.65625 45.585938 10.214844 48.9375 11.316406 C 52.277344 12.402344 55.273438 14.03125 57.917969 16.222656 C 60.578125 18.390625 62.726562 21.011719 64.351562 24.089844 C 65.996094 27.175781 66.828125 30.636719 66.828125 34.464844 C 66.828125 40.277344 65.484375 45.21875 62.796875 49.285156 C 60.109375 53.332031 56.46875 56.339844 51.871094 58.316406 Z M 70.222656 89.863281 " fill-opacity="1" fill-rule="nonzero"/></g><g clip-path="url(#dc06ef9612)"><g clip-path="url(#db4a3d5ff0)"><g clip-path="url(#8d088ba258)"><g clip-path="url(#cf58fb8339)"><g clip-path="url(#4c585a3185)"><g clip-path="url(#f58c2193db)"><g clip-path="url(#f0e83cf849)"><g clip-path="url(#192e37c5ec)"><g clip-path="url(#0954029ab2)"><g clip-path="url(#efe1b0b5d5)"><path fill="#36d167" d="M 105.621094 24.628906 C 93.578125 36.539062 80.054688 46.457031 65.640625 55.164062 C 58.386719 59.445312 50.929688 63.40625 42.933594 66.238281 C 38.496094 67.671875 29.527344 70.699219 26.476562 65.546875 C 23.179688 59.3125 33.65625 48.738281 37.648438 44.535156 C 52.453125 29.964844 69.601562 17.597656 88.5 8.976562 C 96.023438 5.554688 103.78125 2.535156 111.753906 0.371094 C 107.796875 1.585938 103.929688 3.074219 100.113281 4.660156 C 77.292969 14.113281 56.851562 28.863281 40 46.824219 C 36.933594 50.21875 29.308594 58.867188 29.941406 63.277344 C 30.261719 64.207031 31.953125 64.132812 32.972656 64.074219 C 35.789062 63.824219 38.546875 62.867188 41.273438 61.851562 C 44.96875 60.40625 48.617188 58.566406 52.171875 56.671875 C 62.878906 50.804688 72.9375 43.695312 82.417969 36.007812 C 88.722656 30.859375 94.78125 25.378906 100.210938 19.523438 C 100.21875 19.484375 105.621094 24.628906 105.621094 24.628906 Z M 105.621094 24.628906 " fill-opacity="1" fill-rule="nonzero"/><path fill="#36d167" d="M 105.621094 24.628906 C 93.578125 36.539062 80.054688 46.457031 65.640625 55.164062 C 58.386719 59.445312 50.929688 63.40625 42.933594 66.238281 C 38.496094 67.671875 29.527344 70.699219 26.476562 65.546875 C 23.179688 59.3125 33.65625 48.738281 37.648438 44.535156 C 52.453125 29.964844 69.601562 17.597656 88.5 8.976562 C 96.023438 5.554688 103.78125 2.535156 111.753906 0.371094 C 107.796875 1.585938 103.929688 3.074219 100.113281 4.660156 C 77.292969 14.113281 56.851562 28.863281 40 46.824219 C 36.933594 50.21875 29.308594 58.867188 29.941406 63.277344 C 30.261719 64.207031 31.953125 64.132812 32.972656 64.074219 C 35.789062 63.824219 38.546875 62.867188 41.273438 61.851562 C 44.96875 60.40625 48.617188 58.566406 52.171875 56.671875 C 62.878906 50.804688 72.9375 43.695312 82.417969 36.007812 C 88.722656 30.859375 94.78125 25.378906 100.210938 19.523438 C 100.21875 19.484375 105.621094 24.628906 105.621094 24.628906 Z M 105.621094 24.628906 " fill-opacity="1" fill-rule="nonzero"/></g></g></g></g></g></g></g></g></g></g></svg>