<svg xmlns="http://www.w3.org/2000/svg" xmlns:xlink="http://www.w3.org/1999/xlink" width="110" zoomAndPan="magnify" viewBox="0 0 82.5 83.249999" height="111" preserveAspectRatio="xMidYMid meet" version="1.0"><defs><clipPath id="6fe7bdf8a3"><path d="M 65.660156 33.039062 L 78.253906 33.039062 L 78.253906 80.316406 L 65.660156 80.316406 Z M 65.660156 33.039062 " clip-rule="nonzero"/></clipPath><clipPath id="dd678ba067"><path d="M 0.660156 0.0390625 L 13.253906 0.0390625 L 13.253906 47.316406 L 0.660156 47.316406 Z M 0.660156 0.0390625 " clip-rule="nonzero"/></clipPath><clipPath id="55996daa4e"><rect x="0" width="14" y="0" height="48"/></clipPath><clipPath id="9becab46c1"><path d="M 8 0 L 23.164062 0 L 23.164062 81 L 8 81 Z M 8 0 " clip-rule="nonzero"/></clipPath><clipPath id="f845c9c4af"><path d="M 7 0 L 23.164062 0 L 23.164062 81 L 7 81 Z M 7 0 " clip-rule="nonzero"/></clipPath><clipPath id="133fc0264b"><path d="M 58 15.402344 L 81.882812 15.402344 L 81.882812 44.402344 L 58 44.402344 Z M 58 15.402344 " clip-rule="nonzero"/></clipPath><clipPath id="a22a9539af"><path d="M 58.542969 30.390625 L 76.582031 10.882812 L 91.566406 24.5625 L 73.527344 44.070312 Z M 58.542969 30.390625 " clip-rule="nonzero"/></clipPath><clipPath id="34bc36a03c"><path d="M 16.125 29.8125 L 69.289062 -27.691406 L 107.527344 7.207031 L 54.363281 64.710938 Z M 16.125 29.8125 " clip-rule="nonzero"/></clipPath><clipPath id="6307ca2f6d"><path d="M 1 15.402344 L 70.785156 15.402344 L 70.785156 47.867188 L 1 47.867188 Z M 1 15.402344 " clip-rule="nonzero"/></clipPath><clipPath id="46ca44e78e"><path d="M -9.628906 32.410156 L 66.363281 9.933594 L 70.769531 24.636719 L -5.226562 47.105469 Z M -9.628906 32.410156 " clip-rule="nonzero"/></clipPath><clipPath id="6e6a5a6443"><path d="M -10.007812 32.519531 L 67.328125 9.648438 L 71.730469 24.347656 L -5.605469 47.222656 Z M -10.007812 32.519531 " clip-rule="nonzero"/></clipPath><clipPath id="5802b40d76"><path d="M -12.699219 33.316406 L 83.46875 4.875 L 99.882812 59.664062 L 3.71875 88.105469 Z M -12.699219 33.316406 " clip-rule="nonzero"/></clipPath><clipPath id="4669b278a6"><path d="M -6.453125 38.324219 L 83.53125 11.710938 L 93.34375 44.460938 L 3.359375 71.070312 Z M -6.453125 38.324219 " clip-rule="nonzero"/></clipPath><clipPath id="193f471331"><path d="M -5.351562 53.859375 L 73.246094 7.917969 L 91.144531 38.15625 L 12.546875 84.097656 Z M -5.351562 53.859375 " clip-rule="nonzero"/></clipPath><clipPath id="5aeff18ef2"><path d="M -12.894531 30.632812 L 91.03125 -0.101562 L 108.011719 56.578125 L 4.085938 87.3125 Z M -12.894531 30.632812 " clip-rule="nonzero"/></clipPath><clipPath id="3d465df665"><path d="M -5.351562 53.859375 L 82.542969 2.488281 L 100.4375 32.71875 L 12.546875 84.097656 Z M -5.351562 53.859375 " clip-rule="nonzero"/></clipPath><clipPath id="f014dbf8f7"><path d="M -12.894531 30.632812 L 91.03125 -0.101562 L 108.011719 56.578125 L 4.085938 87.3125 Z M -12.894531 30.632812 " clip-rule="nonzero"/></clipPath><clipPath id="d014c6e5d7"><path d="M -5.351562 53.859375 L 82.542969 2.488281 L 100.4375 32.71875 L 12.546875 84.097656 Z M -5.351562 53.859375 " clip-rule="nonzero"/></clipPath><clipPath id="8308570fa5"><path d="M 61 26.199219 L 70.785156 26.199219 L 70.785156 35.734375 L 61 35.734375 Z M 61 26.199219 " clip-rule="nonzero"/></clipPath><clipPath id="12b87dfcdf"><path d="M -9.628906 32.410156 L 66.363281 9.933594 L 70.769531 24.636719 L -5.226562 47.105469 Z M -9.628906 32.410156 " clip-rule="nonzero"/></clipPath><clipPath id="682ae9aad9"><path d="M -10.007812 32.519531 L 67.328125 9.648438 L 71.730469 24.347656 L -5.605469 47.222656 Z M -10.007812 32.519531 " clip-rule="nonzero"/></clipPath><clipPath id="a0d84cf03c"><path d="M -12.699219 33.316406 L 83.46875 4.875 L 99.882812 59.664062 L 3.71875 88.105469 Z M -12.699219 33.316406 " clip-rule="nonzero"/></clipPath><clipPath id="3dc20fa878"><path d="M 59.179688 27.140625 L 80.730469 20.769531 L 84.878906 34.625 L 63.332031 40.996094 Z M 59.179688 27.140625 " clip-rule="nonzero"/></clipPath><clipPath id="1f680035f1"><path d="M -5.351562 53.859375 L 73.246094 7.917969 L 91.144531 38.15625 L 12.546875 84.097656 Z M -5.351562 53.859375 " clip-rule="nonzero"/></clipPath><clipPath id="814ad91ee0"><path d="M -12.894531 30.632812 L 91.03125 -0.101562 L 108.011719 56.578125 L 4.085938 87.3125 Z M -12.894531 30.632812 " clip-rule="nonzero"/></clipPath><clipPath id="e0764caa5b"><path d="M -5.351562 53.859375 L 82.542969 2.488281 L 100.4375 32.71875 L 12.546875 84.097656 Z M -5.351562 53.859375 " clip-rule="nonzero"/></clipPath><clipPath id="244fce6f93"><path d="M -12.894531 30.632812 L 91.03125 -0.101562 L 108.011719 56.578125 L 4.085938 87.3125 Z M -12.894531 30.632812 " clip-rule="nonzero"/></clipPath><clipPath id="e0f3ff42d7"><path d="M -5.351562 53.859375 L 82.542969 2.488281 L 100.4375 32.71875 L 12.546875 84.097656 Z M -5.351562 53.859375 " clip-rule="nonzero"/></clipPath><clipPath id="a3fd247fdf"><path d="M 1 15.402344 L 70.785156 15.402344 L 70.785156 47.867188 L 1 47.867188 Z M 1 15.402344 " clip-rule="nonzero"/></clipPath><clipPath id="46d1536d33"><path d="M -9.628906 32.410156 L 66.363281 9.933594 L 70.769531 24.636719 L -5.226562 47.105469 Z M -9.628906 32.410156 " clip-rule="nonzero"/></clipPath><clipPath id="445462bd56"><path d="M -10.007812 32.519531 L 67.328125 9.648438 L 71.730469 24.347656 L -5.605469 47.222656 Z M -10.007812 32.519531 " clip-rule="nonzero"/></clipPath><clipPath id="89967e38ba"><path d="M -12.699219 33.316406 L 83.46875 4.875 L 99.882812 59.664062 L 3.71875 88.105469 Z M -12.699219 33.316406 " clip-rule="nonzero"/></clipPath><clipPath id="e3355a9f6f"><path d="M -6.453125 38.324219 L 83.53125 11.710938 L 93.34375 44.460938 L 3.359375 71.070312 Z M -6.453125 38.324219 " clip-rule="nonzero"/></clipPath><clipPath id="01bb6a7291"><path d="M -5.351562 53.859375 L 73.246094 7.917969 L 91.144531 38.15625 L 12.546875 84.097656 Z M -5.351562 53.859375 " clip-rule="nonzero"/></clipPath><clipPath id="6706ec2b55"><path d="M -12.894531 30.632812 L 91.03125 -0.101562 L 108.011719 56.578125 L 4.085938 87.3125 Z M -12.894531 30.632812 " clip-rule="nonzero"/></clipPath><clipPath id="6950caaaee"><path d="M -5.351562 53.859375 L 82.542969 2.488281 L 100.4375 32.71875 L 12.546875 84.097656 Z M -5.351562 53.859375 " clip-rule="nonzero"/></clipPath><clipPath id="e1281f2761"><path d="M -12.894531 30.632812 L 91.03125 -0.101562 L 108.011719 56.578125 L 4.085938 87.3125 Z M -12.894531 30.632812 " clip-rule="nonzero"/></clipPath><clipPath id="439bf3062d"><path d="M -5.351562 53.859375 L 82.542969 2.488281 L 100.4375 32.71875 L 12.546875 84.097656 Z M -5.351562 53.859375 " clip-rule="nonzero"/></clipPath><clipPath id="e283e117a8"><path d="M 61 26.199219 L 70.785156 26.199219 L 70.785156 35.734375 L 61 35.734375 Z M 61 26.199219 " clip-rule="nonzero"/></clipPath><clipPath id="7c9c096db0"><path d="M -9.628906 32.410156 L 66.363281 9.933594 L 70.769531 24.636719 L -5.226562 47.105469 Z M -9.628906 32.410156 " clip-rule="nonzero"/></clipPath><clipPath id="a546364998"><path d="M -10.007812 32.519531 L 67.328125 9.648438 L 71.730469 24.347656 L -5.605469 47.222656 Z M -10.007812 32.519531 " clip-rule="nonzero"/></clipPath><clipPath id="8a6c23a6fc"><path d="M -12.699219 33.316406 L 83.46875 4.875 L 99.882812 59.664062 L 3.71875 88.105469 Z M -12.699219 33.316406 " clip-rule="nonzero"/></clipPath><clipPath id="c0eec6b235"><path d="M 59.179688 27.140625 L 80.730469 20.769531 L 84.878906 34.625 L 63.332031 40.996094 Z M 59.179688 27.140625 " clip-rule="nonzero"/></clipPath><clipPath id="bb6aa447eb"><path d="M -5.351562 53.859375 L 73.246094 7.917969 L 91.144531 38.15625 L 12.546875 84.097656 Z M -5.351562 53.859375 " clip-rule="nonzero"/></clipPath><clipPath id="5e34bc38e1"><path d="M -12.894531 30.632812 L 91.03125 -0.101562 L 108.011719 56.578125 L 4.085938 87.3125 Z M -12.894531 30.632812 " clip-rule="nonzero"/></clipPath><clipPath id="7b4140b0ee"><path d="M -5.351562 53.859375 L 82.542969 2.488281 L 100.4375 32.71875 L 12.546875 84.097656 Z M -5.351562 53.859375 " clip-rule="nonzero"/></clipPath><clipPath id="4160f2985d"><path d="M -12.894531 30.632812 L 91.03125 -0.101562 L 108.011719 56.578125 L 4.085938 87.3125 Z M -12.894531 30.632812 " clip-rule="nonzero"/></clipPath><clipPath id="d9af51ba84"><path d="M -5.351562 53.859375 L 82.542969 2.488281 L 100.4375 32.71875 L 12.546875 84.097656 Z M -5.351562 53.859375 " clip-rule="nonzero"/></clipPath><clipPath id="c7eb6c3ea9"><path d="M 1 18.398438 L 44 18.398438 L 44 66 L 1 66 Z M 1 18.398438 " clip-rule="nonzero"/></clipPath><clipPath id="f342c03c7f"><path d="M -9.289062 30.167969 L 29.042969 18.832031 L 43.855469 68.277344 L 5.523438 79.613281 Z M -9.289062 30.167969 " clip-rule="nonzero"/></clipPath><clipPath id="bacc3a474d"><path d="M -9.679688 30.285156 L 29.328125 18.746094 L 44.339844 68.859375 L 5.335938 80.394531 Z M -9.679688 30.285156 " clip-rule="nonzero"/></clipPath><clipPath id="0bc74d90b4"><path d="M -12.378906 31.082031 L 83.792969 2.640625 L 100.207031 57.429688 L 4.039062 85.871094 Z M -12.378906 31.082031 " clip-rule="nonzero"/></clipPath><clipPath id="d9562bb5ad"><path d="M -6.132812 36.09375 L 83.859375 9.476562 L 93.671875 42.222656 L 3.675781 68.839844 Z M -6.132812 36.09375 " clip-rule="nonzero"/></clipPath><clipPath id="34cb533f7d"><path d="M -5.035156 51.625 L 73.570312 5.683594 L 91.46875 35.921875 L 12.863281 81.863281 Z M -5.035156 51.625 " clip-rule="nonzero"/></clipPath><clipPath id="c2ee2aa47e"><path d="M -12.578125 28.398438 L 91.355469 -2.339844 L 108.339844 54.339844 L 4.402344 85.078125 Z M -12.578125 28.398438 " clip-rule="nonzero"/></clipPath><clipPath id="702426dbf2"><path d="M -5.035156 51.625 L 82.867188 0.25 L 100.765625 30.484375 L 12.863281 81.863281 Z M -5.035156 51.625 " clip-rule="nonzero"/></clipPath><clipPath id="16bb733878"><path d="M -12.578125 28.398438 L 91.355469 -2.339844 L 108.339844 54.339844 L 4.402344 85.078125 Z M -12.578125 28.398438 " clip-rule="nonzero"/></clipPath><clipPath id="ad23c146a7"><path d="M -5.035156 51.625 L 82.867188 0.25 L 100.765625 30.484375 L 12.863281 81.863281 Z M -5.035156 51.625 " clip-rule="nonzero"/></clipPath><clipPath id="7e068e1d2c"><path d="M 29 15.402344 L 71.65625 15.402344 L 71.65625 34.867188 L 29 34.867188 Z M 29 15.402344 " clip-rule="nonzero"/></clipPath><clipPath id="5a275b98fa"><path d="M 29.375 19.742188 L 67.328125 9.644531 L 71.324219 24.457031 L 33.367188 34.558594 Z M 29.375 19.742188 " clip-rule="nonzero"/></clipPath><clipPath id="7acb2e2770"><path d="M -17.621094 32.246094 L 81.332031 5.917969 L 96.578125 62.484375 L -2.378906 88.8125 Z M -17.621094 32.246094 " clip-rule="nonzero"/></clipPath><clipPath id="10c29e1b26"><path d="M -17.621094 32.246094 L 81.332031 5.917969 L 96.578125 62.484375 L -2.378906 88.8125 Z M -17.621094 32.246094 " clip-rule="nonzero"/></clipPath><clipPath id="4d471f43f3"><path d="M -11.390625 37.554688 L 81.210938 12.921875 L 90.324219 46.730469 L -2.277344 71.367188 Z M -11.390625 37.554688 " clip-rule="nonzero"/></clipPath><clipPath id="6d73c30315"><path d="M -10.691406 53.488281 L 70.816406 8.738281 L 88.25 40.214844 L 6.742188 84.964844 Z M -10.691406 53.488281 " clip-rule="nonzero"/></clipPath><clipPath id="a630875976"><path d="M -17.753906 29.492188 L 89.195312 1.039062 L 104.960938 59.558594 L -1.984375 88.011719 Z M -17.753906 29.492188 " clip-rule="nonzero"/></clipPath><clipPath id="d261a4080e"><path d="M -10.691406 53.488281 L 80.457031 3.445312 L 97.890625 34.917969 L 6.742188 84.964844 Z M -10.691406 53.488281 " clip-rule="nonzero"/></clipPath><clipPath id="52c3af29e5"><path d="M -17.753906 29.492188 L 89.195312 1.039062 L 104.960938 59.558594 L -1.984375 88.011719 Z M -17.753906 29.492188 " clip-rule="nonzero"/></clipPath><clipPath id="58296fe315"><path d="M -10.691406 53.488281 L 80.457031 3.445312 L 97.890625 34.917969 L 6.742188 84.964844 Z M -10.691406 53.488281 " clip-rule="nonzero"/></clipPath><clipPath id="75af090716"><path d="M 65 28 L 71.65625 28 L 71.65625 34.867188 L 65 34.867188 Z M 65 28 " clip-rule="nonzero"/></clipPath><clipPath id="a9eef056ab"><path d="M 29.375 19.742188 L 67.328125 9.644531 L 71.324219 24.457031 L 33.367188 34.558594 Z M 29.375 19.742188 " clip-rule="nonzero"/></clipPath><clipPath id="2288b48af2"><path d="M -17.621094 32.246094 L 81.332031 5.917969 L 96.578125 62.484375 L -2.378906 88.8125 Z M -17.621094 32.246094 " clip-rule="nonzero"/></clipPath><clipPath id="3c7cdff856"><path d="M -17.621094 32.246094 L 81.332031 5.917969 L 96.578125 62.484375 L -2.378906 88.8125 Z M -17.621094 32.246094 " clip-rule="nonzero"/></clipPath><clipPath id="87912347cb"><path d="M 60.890625 30.867188 L 79.148438 26.007812 L 84.40625 45.515625 L 66.148438 50.375 Z M 60.890625 30.867188 " clip-rule="nonzero"/></clipPath><clipPath id="979b073700"><path d="M -10.691406 53.488281 L 70.816406 8.738281 L 88.25 40.214844 L 6.742188 84.964844 Z M -10.691406 53.488281 " clip-rule="nonzero"/></clipPath><clipPath id="962a2971e8"><path d="M -17.753906 29.492188 L 89.195312 1.039062 L 104.960938 59.558594 L -1.984375 88.011719 Z M -17.753906 29.492188 " clip-rule="nonzero"/></clipPath><clipPath id="88b6de31e2"><path d="M -10.691406 53.488281 L 80.457031 3.445312 L 97.890625 34.917969 L 6.742188 84.964844 Z M -10.691406 53.488281 " clip-rule="nonzero"/></clipPath><clipPath id="45cc209702"><path d="M -17.753906 29.492188 L 89.195312 1.039062 L 104.960938 59.558594 L -1.984375 88.011719 Z M -17.753906 29.492188 " clip-rule="nonzero"/></clipPath><clipPath id="176abed515"><path d="M -10.691406 53.488281 L 80.457031 3.445312 L 97.890625 34.917969 L 6.742188 84.964844 Z M -10.691406 53.488281 " clip-rule="nonzero"/></clipPath><clipPath id="bf8cb91996"><path d="M 57.699219 27.066406 L 71.65625 27.066406 L 71.65625 34.867188 L 57.699219 34.867188 Z M 57.699219 27.066406 " clip-rule="nonzero"/></clipPath><clipPath id="1b0eca31f3"><path d="M 29.375 19.742188 L 67.328125 9.644531 L 71.324219 24.457031 L 33.367188 34.558594 Z M 29.375 19.742188 " clip-rule="nonzero"/></clipPath><clipPath id="2cd7fbbe1b"><path d="M -17.621094 32.246094 L 81.332031 5.917969 L 96.578125 62.484375 L -2.378906 88.8125 Z M -17.621094 32.246094 " clip-rule="nonzero"/></clipPath><clipPath id="1dccc89464"><path d="M -17.621094 32.246094 L 81.332031 5.917969 L 96.578125 62.484375 L -2.378906 88.8125 Z M -17.621094 32.246094 " clip-rule="nonzero"/></clipPath><clipPath id="ea9b6a017e"><path d="M 55.925781 28.007812 L 78.097656 22.109375 L 81.953125 36.414062 L 59.78125 42.3125 Z M 55.925781 28.007812 " clip-rule="nonzero"/></clipPath><clipPath id="5127781b27"><path d="M -10.691406 53.488281 L 70.816406 8.738281 L 88.25 40.214844 L 6.742188 84.964844 Z M -10.691406 53.488281 " clip-rule="nonzero"/></clipPath><clipPath id="6819c72a89"><path d="M -17.753906 29.492188 L 89.195312 1.039062 L 104.960938 59.558594 L -1.984375 88.011719 Z M -17.753906 29.492188 " clip-rule="nonzero"/></clipPath><clipPath id="cc6011b7f0"><path d="M -10.691406 53.488281 L 80.457031 3.445312 L 97.890625 34.917969 L 6.742188 84.964844 Z M -10.691406 53.488281 " clip-rule="nonzero"/></clipPath><clipPath id="28d300c1f0"><path d="M -17.753906 29.492188 L 89.195312 1.039062 L 104.960938 59.558594 L -1.984375 88.011719 Z M -17.753906 29.492188 " clip-rule="nonzero"/></clipPath><clipPath id="c7e1c09f6d"><path d="M -10.691406 53.488281 L 80.457031 3.445312 L 97.890625 34.917969 L 6.742188 84.964844 Z M -10.691406 53.488281 " clip-rule="nonzero"/></clipPath><clipPath id="bcf4515fe4"><path d="M 29 15.402344 L 71.65625 15.402344 L 71.65625 34.867188 L 29 34.867188 Z M 29 15.402344 " clip-rule="nonzero"/></clipPath><clipPath id="1077e76d05"><path d="M 29.375 19.742188 L 67.328125 9.644531 L 71.324219 24.457031 L 33.367188 34.558594 Z M 29.375 19.742188 " clip-rule="nonzero"/></clipPath><clipPath id="89ddf1123d"><path d="M -17.621094 32.246094 L 81.332031 5.917969 L 96.578125 62.484375 L -2.378906 88.8125 Z M -17.621094 32.246094 " clip-rule="nonzero"/></clipPath><clipPath id="4a108cff26"><path d="M -17.621094 32.246094 L 81.332031 5.917969 L 96.578125 62.484375 L -2.378906 88.8125 Z M -17.621094 32.246094 " clip-rule="nonzero"/></clipPath><clipPath id="2501704bb3"><path d="M -11.390625 37.554688 L 81.210938 12.921875 L 90.324219 46.730469 L -2.277344 71.367188 Z M -11.390625 37.554688 " clip-rule="nonzero"/></clipPath><clipPath id="fd82b2f2b7"><path d="M -10.691406 53.488281 L 70.816406 8.738281 L 88.25 40.214844 L 6.742188 84.964844 Z M -10.691406 53.488281 " clip-rule="nonzero"/></clipPath><clipPath id="c9c0658f68"><path d="M -17.753906 29.492188 L 89.195312 1.039062 L 104.960938 59.558594 L -1.984375 88.011719 Z M -17.753906 29.492188 " clip-rule="nonzero"/></clipPath><clipPath id="641f695c0a"><path d="M -10.691406 53.488281 L 80.457031 3.445312 L 97.890625 34.917969 L 6.742188 84.964844 Z M -10.691406 53.488281 " clip-rule="nonzero"/></clipPath><clipPath id="f1fce4603e"><path d="M -17.753906 29.492188 L 89.195312 1.039062 L 104.960938 59.558594 L -1.984375 88.011719 Z M -17.753906 29.492188 " clip-rule="nonzero"/></clipPath><clipPath id="d5b5e4d209"><path d="M -10.691406 53.488281 L 80.457031 3.445312 L 97.890625 34.917969 L 6.742188 84.964844 Z M -10.691406 53.488281 " clip-rule="nonzero"/></clipPath><clipPath id="75d8291b40"><path d="M 65 28 L 71.65625 28 L 71.65625 34.867188 L 65 34.867188 Z M 65 28 " clip-rule="nonzero"/></clipPath><clipPath id="faf199aa58"><path d="M 29.375 19.742188 L 67.328125 9.644531 L 71.324219 24.457031 L 33.367188 34.558594 Z M 29.375 19.742188 " clip-rule="nonzero"/></clipPath><clipPath id="d552cc5b82"><path d="M -17.621094 32.246094 L 81.332031 5.917969 L 96.578125 62.484375 L -2.378906 88.8125 Z M -17.621094 32.246094 " clip-rule="nonzero"/></clipPath><clipPath id="fa4770e9d8"><path d="M -17.621094 32.246094 L 81.332031 5.917969 L 96.578125 62.484375 L -2.378906 88.8125 Z M -17.621094 32.246094 " clip-rule="nonzero"/></clipPath><clipPath id="210b8a941b"><path d="M 60.890625 30.867188 L 79.148438 26.007812 L 84.40625 45.515625 L 66.148438 50.375 Z M 60.890625 30.867188 " clip-rule="nonzero"/></clipPath><clipPath id="072090be7b"><path d="M -10.691406 53.488281 L 70.816406 8.738281 L 88.25 40.214844 L 6.742188 84.964844 Z M -10.691406 53.488281 " clip-rule="nonzero"/></clipPath><clipPath id="401d07ea17"><path d="M -17.753906 29.492188 L 89.195312 1.039062 L 104.960938 59.558594 L -1.984375 88.011719 Z M -17.753906 29.492188 " clip-rule="nonzero"/></clipPath><clipPath id="2afb4b18b3"><path d="M -10.691406 53.488281 L 80.457031 3.445312 L 97.890625 34.917969 L 6.742188 84.964844 Z M -10.691406 53.488281 " clip-rule="nonzero"/></clipPath><clipPath id="4fd3bf1cf9"><path d="M -17.753906 29.492188 L 89.195312 1.039062 L 104.960938 59.558594 L -1.984375 88.011719 Z M -17.753906 29.492188 " clip-rule="nonzero"/></clipPath><clipPath id="db15505008"><path d="M -10.691406 53.488281 L 80.457031 3.445312 L 97.890625 34.917969 L 6.742188 84.964844 Z M -10.691406 53.488281 " clip-rule="nonzero"/></clipPath><clipPath id="ed9899fc9e"><path d="M 57.699219 27.066406 L 71.65625 27.066406 L 71.65625 34.867188 L 57.699219 34.867188 Z M 57.699219 27.066406 " clip-rule="nonzero"/></clipPath><clipPath id="da65fcf8ee"><path d="M 29.375 19.742188 L 67.328125 9.644531 L 71.324219 24.457031 L 33.367188 34.558594 Z M 29.375 19.742188 " clip-rule="nonzero"/></clipPath><clipPath id="890fbeff1f"><path d="M -17.621094 32.246094 L 81.332031 5.917969 L 96.578125 62.484375 L -2.378906 88.8125 Z M -17.621094 32.246094 " clip-rule="nonzero"/></clipPath><clipPath id="8ad2329009"><path d="M -17.621094 32.246094 L 81.332031 5.917969 L 96.578125 62.484375 L -2.378906 88.8125 Z M -17.621094 32.246094 " clip-rule="nonzero"/></clipPath><clipPath id="9ccd115400"><path d="M 55.925781 28.007812 L 78.097656 22.109375 L 81.953125 36.414062 L 59.78125 42.3125 Z M 55.925781 28.007812 " clip-rule="nonzero"/></clipPath><clipPath id="8acb166b64"><path d="M -10.691406 53.488281 L 70.816406 8.738281 L 88.25 40.214844 L 6.742188 84.964844 Z M -10.691406 53.488281 " clip-rule="nonzero"/></clipPath><clipPath id="bc2fe2cb3d"><path d="M -17.753906 29.492188 L 89.195312 1.039062 L 104.960938 59.558594 L -1.984375 88.011719 Z M -17.753906 29.492188 " clip-rule="nonzero"/></clipPath><clipPath id="ea479e2fd5"><path d="M -10.691406 53.488281 L 80.457031 3.445312 L 97.890625 34.917969 L 6.742188 84.964844 Z M -10.691406 53.488281 " clip-rule="nonzero"/></clipPath><clipPath id="bc3039eda5"><path d="M -17.753906 29.492188 L 89.195312 1.039062 L 104.960938 59.558594 L -1.984375 88.011719 Z M -17.753906 29.492188 " clip-rule="nonzero"/></clipPath><clipPath id="8a1154fd6d"><path d="M -10.691406 53.488281 L 80.457031 3.445312 L 97.890625 34.917969 L 6.742188 84.964844 Z M -10.691406 53.488281 " clip-rule="nonzero"/></clipPath><clipPath id="89430d22f6"><path d="M 34.144531 31.398438 L 73.402344 31.398438 L 73.402344 62 L 34.144531 62 Z M 34.144531 31.398438 " clip-rule="nonzero"/></clipPath><clipPath id="0477409769"><path d="M 34.800781 41.769531 L 66.976562 31.890625 L 73.195312 51.875 L 41.015625 61.75 Z M 34.800781 41.769531 " clip-rule="nonzero"/></clipPath><clipPath id="e47759d666"><path d="M 34.601562 41.257812 L 68.121094 30.96875 L 74.75 52.285156 L 41.230469 62.574219 Z M 34.601562 41.257812 " clip-rule="nonzero"/></clipPath><clipPath id="2d79838923"><path d="M -7.214844 30.023438 L 85.96875 1.417969 L 102.542969 54.703125 L 9.355469 83.3125 Z M -7.214844 30.023438 " clip-rule="nonzero"/></clipPath><clipPath id="9dd7f8cd1d"><path d="M -1.085938 34.855469 L 86.109375 8.085938 L 96.015625 39.9375 L 8.820312 66.703125 Z M -1.085938 34.855469 " clip-rule="nonzero"/></clipPath><clipPath id="1143752a00"><path d="M 0.15625 49.996094 L 76.0625 4.480469 L 93.804688 33.8125 L 17.898438 79.324219 Z M 0.15625 49.996094 " clip-rule="nonzero"/></clipPath><clipPath id="9681321454"><path d="M -7.441406 27.410156 L 93.269531 -3.503906 L 110.410156 51.617188 L 9.703125 82.535156 Z M -7.441406 27.410156 " clip-rule="nonzero"/></clipPath><clipPath id="18e9017f5d"><path d="M 0.15625 49.996094 L 85.042969 -0.902344 L 102.785156 28.421875 L 17.898438 79.324219 Z M 0.15625 49.996094 " clip-rule="nonzero"/></clipPath><clipPath id="c0964ca151"><path d="M -7.441406 27.410156 L 93.269531 -3.503906 L 110.410156 51.617188 L 9.703125 82.535156 Z M -7.441406 27.410156 " clip-rule="nonzero"/></clipPath><clipPath id="2e3790550b"><path d="M 0.15625 49.996094 L 85.042969 -0.902344 L 102.785156 28.421875 L 17.898438 79.324219 Z M 0.15625 49.996094 " clip-rule="nonzero"/></clipPath><clipPath id="80dbdb352f"><path d="M 1 27.066406 L 70.785156 27.066406 L 70.785156 67.804688 L 1 67.804688 Z M 1 27.066406 " clip-rule="nonzero"/></clipPath><clipPath id="4dda305afe"><path d="M -5.144531 46.320312 L 59.414062 27.226562 L 70.222656 63.308594 L 5.664062 82.402344 Z M -5.144531 46.320312 " clip-rule="nonzero"/></clipPath><clipPath id="5e89cdf222"><path d="M -5.542969 46.382812 L 59.6875 27.089844 L 70.699219 63.839844 L 5.46875 83.132812 Z M -5.542969 46.382812 " clip-rule="nonzero"/></clipPath><clipPath id="58a957f2ac"><path d="M -12.433594 33.152344 L 83.734375 4.710938 L 100.148438 59.503906 L 3.984375 87.941406 Z M -12.433594 33.152344 " clip-rule="nonzero"/></clipPath><clipPath id="759c2447a4"><path d="M -6.1875 38.164062 L 83.800781 11.550781 L 93.609375 44.300781 L 3.625 70.914062 Z M -6.1875 38.164062 " clip-rule="nonzero"/></clipPath><clipPath id="29e13d6bf5"><path d="M -5.085938 53.695312 L 73.511719 7.761719 L 91.410156 38 L 12.8125 83.933594 Z M -5.085938 53.695312 " clip-rule="nonzero"/></clipPath><clipPath id="d500e7ca9c"><path d="M -12.628906 30.472656 L 91.296875 -0.265625 L 108.277344 56.414062 L 4.351562 87.152344 Z M -12.628906 30.472656 " clip-rule="nonzero"/></clipPath><clipPath id="56f08837ea"><path d="M -5.085938 53.695312 L 82.808594 2.324219 L 100.703125 32.558594 L 12.8125 83.933594 Z M -5.085938 53.695312 " clip-rule="nonzero"/></clipPath><clipPath id="51a9fdce23"><path d="M -12.628906 30.472656 L 91.296875 -0.265625 L 108.277344 56.414062 L 4.351562 87.152344 Z M -12.628906 30.472656 " clip-rule="nonzero"/></clipPath><clipPath id="6f4a087431"><path d="M -5.085938 53.695312 L 82.808594 2.324219 L 100.703125 32.558594 L 12.8125 83.933594 Z M -5.085938 53.695312 " clip-rule="nonzero"/></clipPath><clipPath id="cb018dcc4a"><path d="M 61.1875 27.066406 L 70.785156 27.066406 L 70.785156 35.734375 L 61.1875 35.734375 Z M 61.1875 27.066406 " clip-rule="nonzero"/></clipPath><clipPath id="01c9bc7e38"><path d="M -5.144531 46.320312 L 59.414062 27.226562 L 70.222656 63.308594 L 5.664062 82.402344 Z M -5.144531 46.320312 " clip-rule="nonzero"/></clipPath><clipPath id="5300402d3c"><path d="M -5.542969 46.382812 L 59.6875 27.089844 L 70.699219 63.839844 L 5.46875 83.132812 Z M -5.542969 46.382812 " clip-rule="nonzero"/></clipPath><clipPath id="2c09315215"><path d="M -12.433594 33.152344 L 83.734375 4.710938 L 100.148438 59.503906 L 3.984375 87.941406 Z M -12.433594 33.152344 " clip-rule="nonzero"/></clipPath><clipPath id="a27da7e846"><path d="M 59.449219 26.976562 L 80.992188 20.605469 L 85.144531 34.460938 L 63.597656 40.832031 Z M 59.449219 26.976562 " clip-rule="nonzero"/></clipPath><clipPath id="cee490c9fd"><path d="M -5.085938 53.695312 L 73.511719 7.761719 L 91.410156 38 L 12.8125 83.933594 Z M -5.085938 53.695312 " clip-rule="nonzero"/></clipPath><clipPath id="fe6ba4806e"><path d="M -12.628906 30.472656 L 91.296875 -0.265625 L 108.277344 56.414062 L 4.351562 87.152344 Z M -12.628906 30.472656 " clip-rule="nonzero"/></clipPath><clipPath id="93bcd03817"><path d="M -5.085938 53.695312 L 82.808594 2.324219 L 100.703125 32.558594 L 12.8125 83.933594 Z M -5.085938 53.695312 " clip-rule="nonzero"/></clipPath><clipPath id="048f4e439d"><path d="M -12.628906 30.472656 L 91.296875 -0.265625 L 108.277344 56.414062 L 4.351562 87.152344 Z M -12.628906 30.472656 " clip-rule="nonzero"/></clipPath><clipPath id="565c9c1885"><path d="M -5.085938 53.695312 L 82.808594 2.324219 L 100.703125 32.558594 L 12.8125 83.933594 Z M -5.085938 53.695312 " clip-rule="nonzero"/></clipPath><clipPath id="cfd5bcf42c"><path d="M 1 27.066406 L 70.785156 27.066406 L 70.785156 67.804688 L 1 67.804688 Z M 1 27.066406 " clip-rule="nonzero"/></clipPath><clipPath id="20217cc13b"><path d="M -5.144531 46.320312 L 59.414062 27.226562 L 70.222656 63.308594 L 5.664062 82.402344 Z M -5.144531 46.320312 " clip-rule="nonzero"/></clipPath><clipPath id="fca65d9402"><path d="M -5.542969 46.382812 L 59.6875 27.089844 L 70.699219 63.839844 L 5.46875 83.132812 Z M -5.542969 46.382812 " clip-rule="nonzero"/></clipPath><clipPath id="d21cfa34c2"><path d="M -12.433594 33.152344 L 83.734375 4.710938 L 100.148438 59.503906 L 3.984375 87.941406 Z M -12.433594 33.152344 " clip-rule="nonzero"/></clipPath><clipPath id="5c42f871c1"><path d="M -6.1875 38.164062 L 83.800781 11.550781 L 93.609375 44.300781 L 3.625 70.914062 Z M -6.1875 38.164062 " clip-rule="nonzero"/></clipPath><clipPath id="ca706a7172"><path d="M -5.085938 53.695312 L 73.511719 7.761719 L 91.410156 38 L 12.8125 83.933594 Z M -5.085938 53.695312 " clip-rule="nonzero"/></clipPath><clipPath id="b022dc530b"><path d="M -12.628906 30.472656 L 91.296875 -0.265625 L 108.277344 56.414062 L 4.351562 87.152344 Z M -12.628906 30.472656 " clip-rule="nonzero"/></clipPath><clipPath id="44fe57d4c1"><path d="M -5.085938 53.695312 L 82.808594 2.324219 L 100.703125 32.558594 L 12.8125 83.933594 Z M -5.085938 53.695312 " clip-rule="nonzero"/></clipPath><clipPath id="2f877bb49f"><path d="M -12.628906 30.472656 L 91.296875 -0.265625 L 108.277344 56.414062 L 4.351562 87.152344 Z M -12.628906 30.472656 " clip-rule="nonzero"/></clipPath><clipPath id="44c22c08fe"><path d="M -5.085938 53.695312 L 82.808594 2.324219 L 100.703125 32.558594 L 12.8125 83.933594 Z M -5.085938 53.695312 " clip-rule="nonzero"/></clipPath><clipPath id="df5a657067"><path d="M 61.1875 27.066406 L 70.785156 27.066406 L 70.785156 35.734375 L 61.1875 35.734375 Z M 61.1875 27.066406 " clip-rule="nonzero"/></clipPath><clipPath id="eac98b08ee"><path d="M -5.144531 46.320312 L 59.414062 27.226562 L 70.222656 63.308594 L 5.664062 82.402344 Z M -5.144531 46.320312 " clip-rule="nonzero"/></clipPath><clipPath id="5a90cf55a0"><path d="M -5.542969 46.382812 L 59.6875 27.089844 L 70.699219 63.839844 L 5.46875 83.132812 Z M -5.542969 46.382812 " clip-rule="nonzero"/></clipPath><clipPath id="68663e18f9"><path d="M -12.433594 33.152344 L 83.734375 4.710938 L 100.148438 59.503906 L 3.984375 87.941406 Z M -12.433594 33.152344 " clip-rule="nonzero"/></clipPath><clipPath id="aaab29fdeb"><path d="M 59.449219 26.976562 L 80.992188 20.605469 L 85.144531 34.460938 L 63.597656 40.832031 Z M 59.449219 26.976562 " clip-rule="nonzero"/></clipPath><clipPath id="bd522a8b6f"><path d="M -5.085938 53.695312 L 73.511719 7.761719 L 91.410156 38 L 12.8125 83.933594 Z M -5.085938 53.695312 " clip-rule="nonzero"/></clipPath><clipPath id="c58f6e323f"><path d="M -12.628906 30.472656 L 91.296875 -0.265625 L 108.277344 56.414062 L 4.351562 87.152344 Z M -12.628906 30.472656 " clip-rule="nonzero"/></clipPath><clipPath id="a23baa501b"><path d="M -5.085938 53.695312 L 82.808594 2.324219 L 100.703125 32.558594 L 12.8125 83.933594 Z M -5.085938 53.695312 " clip-rule="nonzero"/></clipPath><clipPath id="2b6cd083ce"><path d="M -12.628906 30.472656 L 91.296875 -0.265625 L 108.277344 56.414062 L 4.351562 87.152344 Z M -12.628906 30.472656 " clip-rule="nonzero"/></clipPath><clipPath id="73bc297ec0"><path d="M -5.085938 53.695312 L 82.808594 2.324219 L 100.703125 32.558594 L 12.8125 83.933594 Z M -5.085938 53.695312 " clip-rule="nonzero"/></clipPath><clipPath id="a05e5e97a0"><path d="M 53.335938 19.265625 L 80 19.265625 L 80 53.9375 L 53.335938 53.9375 Z M 53.335938 19.265625 " clip-rule="nonzero"/></clipPath><clipPath id="d22e95add8"><path d="M 53.375 25.933594 L 68.3125 19.875 L 79.714844 47.628906 L 64.777344 53.6875 Z M 53.375 25.933594 " clip-rule="nonzero"/></clipPath><clipPath id="4d120c3d69"><path d="M 53.121094 25.984375 L 68.714844 19.65625 L 80.382812 48.058594 L 64.789062 54.378906 Z M 53.121094 25.984375 " clip-rule="nonzero"/></clipPath><clipPath id="a1a28eed3b"><path d="M -2.449219 32.71875 L 90.449219 -4.960938 L 112.195312 47.964844 L 19.296875 85.640625 Z M -2.449219 32.71875 " clip-rule="nonzero"/></clipPath><clipPath id="d49568f556"><path d="M 4.261719 37.089844 L 91.1875 1.835938 L 104.183594 33.46875 L 17.257812 68.726562 Z M 4.261719 37.089844 " clip-rule="nonzero"/></clipPath><clipPath id="dc3d999351"><path d="M 6.894531 52.441406 L 80.574219 -0.933594 L 101.371094 27.414062 L 27.691406 80.792969 Z M 6.894531 52.441406 " clip-rule="nonzero"/></clipPath><clipPath id="74ad1b763e"><path d="M -2.90625 30.0625 L 97.480469 -10.652344 L 119.976562 44.097656 L 19.585938 84.816406 Z M -2.90625 30.0625 " clip-rule="nonzero"/></clipPath><clipPath id="421b95f69b"><path d="M 6.894531 52.441406 L 89.289062 -7.246094 L 110.085938 21.097656 L 27.691406 80.792969 Z M 6.894531 52.441406 " clip-rule="nonzero"/></clipPath><clipPath id="c76d0371b3"><path d="M -2.90625 30.0625 L 97.480469 -10.652344 L 119.976562 44.097656 L 19.585938 84.816406 Z M -2.90625 30.0625 " clip-rule="nonzero"/></clipPath><clipPath id="039137762b"><path d="M 6.894531 52.441406 L 89.289062 -7.246094 L 110.085938 21.097656 L 27.691406 80.792969 Z M 6.894531 52.441406 " clip-rule="nonzero"/></clipPath><clipPath id="8b6dce5d5f"><path d="M 70 19.265625 L 80 19.265625 L 80 27 L 70 27 Z M 70 19.265625 " clip-rule="nonzero"/></clipPath><clipPath id="7041387026"><path d="M 53.375 25.933594 L 68.3125 19.875 L 79.714844 47.628906 L 64.777344 53.6875 Z M 53.375 25.933594 " clip-rule="nonzero"/></clipPath><clipPath id="707d5fabd9"><path d="M 53.121094 25.984375 L 68.714844 19.65625 L 80.382812 48.058594 L 64.789062 54.378906 Z M 53.121094 25.984375 " clip-rule="nonzero"/></clipPath><clipPath id="4042be69d7"><path d="M -2.449219 32.71875 L 90.449219 -4.960938 L 112.195312 47.964844 L 19.296875 85.640625 Z M -2.449219 32.71875 " clip-rule="nonzero"/></clipPath><clipPath id="fc145a4bd1"><path d="M 68.476562 19.5625 L 89.289062 11.121094 L 94.789062 24.507812 L 73.972656 32.945312 Z M 68.476562 19.5625 " clip-rule="nonzero"/></clipPath><clipPath id="7d0dd46862"><path d="M 6.894531 52.441406 L 80.574219 -0.933594 L 101.371094 27.414062 L 27.691406 80.792969 Z M 6.894531 52.441406 " clip-rule="nonzero"/></clipPath><clipPath id="1d3b66cab1"><path d="M -2.90625 30.0625 L 97.480469 -10.652344 L 119.976562 44.097656 L 19.585938 84.816406 Z M -2.90625 30.0625 " clip-rule="nonzero"/></clipPath><clipPath id="81f8a399b8"><path d="M 6.894531 52.441406 L 89.289062 -7.246094 L 110.085938 21.097656 L 27.691406 80.792969 Z M 6.894531 52.441406 " clip-rule="nonzero"/></clipPath><clipPath id="e4681d65e9"><path d="M -2.90625 30.0625 L 97.480469 -10.652344 L 119.976562 44.097656 L 19.585938 84.816406 Z M -2.90625 30.0625 " clip-rule="nonzero"/></clipPath><clipPath id="76ee02e3ba"><path d="M 6.894531 52.441406 L 89.289062 -7.246094 L 110.085938 21.097656 L 27.691406 80.792969 Z M 6.894531 52.441406 " clip-rule="nonzero"/></clipPath><clipPath id="aa56f721fc"><path d="M 53.335938 19.265625 L 80 19.265625 L 80 53.9375 L 53.335938 53.9375 Z M 53.335938 19.265625 " clip-rule="nonzero"/></clipPath><clipPath id="85a0240468"><path d="M 53.375 25.933594 L 68.3125 19.875 L 79.714844 47.628906 L 64.777344 53.6875 Z M 53.375 25.933594 " clip-rule="nonzero"/></clipPath><clipPath id="d23fa56200"><path d="M 53.121094 25.984375 L 68.714844 19.65625 L 80.382812 48.058594 L 64.789062 54.378906 Z M 53.121094 25.984375 " clip-rule="nonzero"/></clipPath><clipPath id="3151938ebe"><path d="M -2.449219 32.71875 L 90.449219 -4.960938 L 112.195312 47.964844 L 19.296875 85.640625 Z M -2.449219 32.71875 " clip-rule="nonzero"/></clipPath><clipPath id="74749cd30a"><path d="M 4.261719 37.089844 L 91.1875 1.835938 L 104.183594 33.46875 L 17.257812 68.726562 Z M 4.261719 37.089844 " clip-rule="nonzero"/></clipPath><clipPath id="a5d86009c7"><path d="M 6.894531 52.441406 L 80.574219 -0.933594 L 101.371094 27.414062 L 27.691406 80.792969 Z M 6.894531 52.441406 " clip-rule="nonzero"/></clipPath><clipPath id="576a49ece0"><path d="M -2.90625 30.0625 L 97.480469 -10.652344 L 119.976562 44.097656 L 19.585938 84.816406 Z M -2.90625 30.0625 " clip-rule="nonzero"/></clipPath><clipPath id="2fb3d9b4a3"><path d="M 6.894531 52.441406 L 89.289062 -7.246094 L 110.085938 21.097656 L 27.691406 80.792969 Z M 6.894531 52.441406 " clip-rule="nonzero"/></clipPath><clipPath id="8198138d4d"><path d="M -2.90625 30.0625 L 97.480469 -10.652344 L 119.976562 44.097656 L 19.585938 84.816406 Z M -2.90625 30.0625 " clip-rule="nonzero"/></clipPath><clipPath id="4116f21ed4"><path d="M 6.894531 52.441406 L 89.289062 -7.246094 L 110.085938 21.097656 L 27.691406 80.792969 Z M 6.894531 52.441406 " clip-rule="nonzero"/></clipPath><clipPath id="9ff740b1bf"><path d="M 70 19.265625 L 80 19.265625 L 80 27 L 70 27 Z M 70 19.265625 " clip-rule="nonzero"/></clipPath><clipPath id="bbfad8e3bd"><path d="M 53.375 25.933594 L 68.3125 19.875 L 79.714844 47.628906 L 64.777344 53.6875 Z M 53.375 25.933594 " clip-rule="nonzero"/></clipPath><clipPath id="abed08a2c1"><path d="M 53.121094 25.984375 L 68.714844 19.65625 L 80.382812 48.058594 L 64.789062 54.378906 Z M 53.121094 25.984375 " clip-rule="nonzero"/></clipPath><clipPath id="8f3ede6f02"><path d="M -2.449219 32.71875 L 90.449219 -4.960938 L 112.195312 47.964844 L 19.296875 85.640625 Z M -2.449219 32.71875 " clip-rule="nonzero"/></clipPath><clipPath id="1ec83e5dc2"><path d="M 68.476562 19.5625 L 89.289062 11.121094 L 94.789062 24.507812 L 73.972656 32.945312 Z M 68.476562 19.5625 " clip-rule="nonzero"/></clipPath><clipPath id="d23e2a001d"><path d="M 6.894531 52.441406 L 80.574219 -0.933594 L 101.371094 27.414062 L 27.691406 80.792969 Z M 6.894531 52.441406 " clip-rule="nonzero"/></clipPath><clipPath id="52a73e2abc"><path d="M -2.90625 30.0625 L 97.480469 -10.652344 L 119.976562 44.097656 L 19.585938 84.816406 Z M -2.90625 30.0625 " clip-rule="nonzero"/></clipPath><clipPath id="523f0de17c"><path d="M 6.894531 52.441406 L 89.289062 -7.246094 L 110.085938 21.097656 L 27.691406 80.792969 Z M 6.894531 52.441406 " clip-rule="nonzero"/></clipPath><clipPath id="d876606475"><path d="M -2.90625 30.0625 L 97.480469 -10.652344 L 119.976562 44.097656 L 19.585938 84.816406 Z M -2.90625 30.0625 " clip-rule="nonzero"/></clipPath><clipPath id="4d25507598"><path d="M 6.894531 52.441406 L 89.289062 -7.246094 L 110.085938 21.097656 L 27.691406 80.792969 Z M 6.894531 52.441406 " clip-rule="nonzero"/></clipPath><clipPath id="d2db4eaedc"><path d="M 62.324219 1.726562 L 81.589844 1.726562 L 81.589844 20.992188 L 62.324219 20.992188 Z M 62.324219 1.726562 " clip-rule="nonzero"/></clipPath><clipPath id="7f375fecdb"><path d="M 71.957031 1.726562 C 66.636719 1.726562 62.324219 6.039062 62.324219 11.359375 C 62.324219 16.679688 66.636719 20.992188 71.957031 20.992188 C 77.277344 20.992188 81.589844 16.679688 81.589844 11.359375 C 81.589844 6.039062 77.277344 1.726562 71.957031 1.726562 Z M 71.957031 1.726562 " clip-rule="nonzero"/></clipPath><clipPath id="b746ac0090"><path d="M 0.324219 0.726562 L 19.589844 0.726562 L 19.589844 19.992188 L 0.324219 19.992188 Z M 0.324219 0.726562 " clip-rule="nonzero"/></clipPath><clipPath id="5a5bf33183"><path d="M 9.957031 0.726562 C 4.636719 0.726562 0.324219 5.039062 0.324219 10.359375 C 0.324219 15.679688 4.636719 19.992188 9.957031 19.992188 C 15.277344 19.992188 19.589844 15.679688 19.589844 10.359375 C 19.589844 5.039062 15.277344 0.726562 9.957031 0.726562 Z M 9.957031 0.726562 " clip-rule="nonzero"/></clipPath><clipPath id="6ba0de7f12"><rect x="0" width="20" y="0" height="20"/></clipPath><clipPath id="230e971d45"><path d="M 23.84375 0.238281 L 63 0.238281 L 63 81 L 23.84375 81 Z M 23.84375 0.238281 " clip-rule="nonzero"/></clipPath><clipPath id="b62083e426"><path d="M 8 0.238281 L 22.417969 0.238281 L 22.417969 58.214844 L 8 58.214844 Z M 8 0.238281 " clip-rule="nonzero"/></clipPath><clipPath id="937d0ce5fb"><path d="M 7 0.238281 L 22.417969 0.238281 L 22.417969 58.214844 L 7 58.214844 Z M 7 0.238281 " clip-rule="nonzero"/></clipPath><clipPath id="8a7acaf4cc"><path d="M 59 16 L 77 16 L 77 49 L 59 49 Z M 59 16 " clip-rule="nonzero"/></clipPath><clipPath id="a92a53e8e2"><path d="M 59.648438 17.921875 L 63.777344 16.234375 L 76.417969 47.203125 L 72.289062 48.886719 Z M 59.648438 17.921875 " clip-rule="nonzero"/></clipPath><clipPath id="98d666ba07"><path d="M 59.183594 17.992188 L 64.691406 15.746094 L 77.613281 47.402344 L 72.109375 49.648438 Z M 59.183594 17.992188 " clip-rule="nonzero"/></clipPath><clipPath id="41ffc07ef8"><path d="M 0.117188 25.195312 L 98.527344 -14.976562 L 121.5625 41.457031 L 23.152344 81.628906 Z M 0.117188 25.195312 " clip-rule="nonzero"/></clipPath><clipPath id="0bd2b00103"><path d="M 7.222656 29.863281 L 99.308594 -7.726562 L 113.078125 26 L 20.992188 63.589844 Z M 7.222656 29.863281 " clip-rule="nonzero"/></clipPath><clipPath id="0209ffb8bf"><path d="M 10.011719 46.230469 L 88.066406 -10.683594 L 110.097656 19.542969 L 32.042969 76.457031 Z M 10.011719 46.230469 " clip-rule="nonzero"/></clipPath><clipPath id="38f3154454"><path d="M -0.375 22.371094 L 105.980469 -21.042969 L 129.808594 37.332031 L 23.457031 80.746094 Z M -0.375 22.371094 " clip-rule="nonzero"/></clipPath><clipPath id="6c679f4160"><path d="M 10.011719 46.230469 L 97.300781 -17.414062 L 119.332031 12.808594 L 32.042969 76.457031 Z M 10.011719 46.230469 " clip-rule="nonzero"/></clipPath><clipPath id="975204529f"><path d="M -0.375 22.371094 L 105.980469 -21.042969 L 129.808594 37.332031 L 23.457031 80.746094 Z M -0.375 22.371094 " clip-rule="nonzero"/></clipPath><clipPath id="dcc9d244bc"><path d="M 10.011719 46.230469 L 97.300781 -17.414062 L 119.332031 12.808594 L 32.042969 76.457031 Z M 10.011719 46.230469 " clip-rule="nonzero"/></clipPath></defs><g clip-path="url(#6fe7bdf8a3)"><g transform="matrix(1, 0, 0, 1, 65, 33)"><g clip-path="url(#55996daa4e)"><g clip-path="url(#dd678ba067)"><path fill="#002f87" d="M 0.660156 0.0390625 L 13.253906 0.0390625 L 13.253906 47.320312 L 0.660156 47.320312 Z M 0.660156 0.0390625 " fill-opacity="1" fill-rule="nonzero"/></g></g></g></g><g clip-path="url(#9becab46c1)"><path fill="#002f87" d="M 8.121094 0.605469 L 21.183594 0.605469 L 21.183594 80.703125 L 8.121094 80.703125 Z M 62.5625 80.703125 L 48.722656 80.703125 L 33.578125 51.699219 C 33.363281 51.699219 33.125 51.726562 32.871094 51.769531 C 32.605469 51.796875 32.21875 51.804688 31.703125 51.804688 C 31.210938 51.804688 30.46875 51.804688 29.480469 51.804688 C 28.507812 51.804688 27.230469 51.804688 25.632812 51.804688 L 25.632812 42.222656 L 33.046875 42.222656 C 34.644531 42.222656 36.234375 41.957031 37.8125 41.410156 C 39.410156 40.875 40.859375 39.992188 42.15625 38.769531 C 43.472656 37.527344 44.53125 35.800781 45.332031 33.589844 C 46.128906 31.386719 46.535156 28.644531 46.535156 25.378906 C 46.535156 24.089844 46.339844 22.59375 45.96875 20.902344 C 45.617188 19.191406 44.875 17.554688 43.746094 16.003906 C 42.632812 14.4375 41.0625 13.132812 39.011719 12.09375 C 36.984375 11.035156 34.300781 10.507812 30.964844 10.507812 L 25.632812 10.507812 L 25.632812 0.605469 L 31.175781 0.605469 C 34.582031 0.605469 37.964844 1.160156 41.308594 2.261719 C 44.644531 3.34375 47.636719 4.976562 50.277344 7.160156 C 52.933594 9.328125 55.078125 11.941406 56.703125 15.019531 C 58.34375 18.101562 59.171875 21.554688 59.171875 25.378906 C 59.171875 31.183594 57.832031 36.117188 55.148438 40.175781 C 52.464844 44.222656 48.828125 47.226562 44.238281 49.199219 Z M 62.5625 80.703125 " fill-opacity="1" fill-rule="nonzero"/></g><g clip-path="url(#f845c9c4af)"><path fill="#002f87" d="M 7.746094 0.605469 L 20.808594 0.605469 L 20.808594 80.703125 L 7.746094 80.703125 Z M 62.1875 80.703125 L 48.347656 80.703125 L 33.203125 51.699219 C 32.988281 51.699219 32.75 51.726562 32.496094 51.769531 C 32.230469 51.796875 31.84375 51.804688 31.332031 51.804688 C 30.835938 51.804688 30.09375 51.804688 29.105469 51.804688 C 28.136719 51.804688 26.855469 51.804688 25.257812 51.804688 L 25.257812 42.222656 L 32.671875 42.222656 C 34.269531 42.222656 35.859375 41.957031 37.4375 41.410156 C 39.035156 40.875 40.484375 39.992188 41.78125 38.769531 C 43.097656 37.527344 44.15625 35.800781 44.960938 33.589844 C 45.753906 31.386719 46.160156 28.644531 46.160156 25.378906 C 46.160156 24.089844 45.964844 22.59375 45.59375 20.902344 C 45.242188 19.191406 44.5 17.554688 43.371094 16.003906 C 42.257812 14.4375 40.6875 13.132812 38.640625 12.09375 C 36.609375 11.035156 33.925781 10.507812 30.589844 10.507812 L 25.257812 10.507812 L 25.257812 0.605469 L 30.800781 0.605469 C 34.207031 0.605469 37.589844 1.160156 40.933594 2.261719 C 44.269531 3.34375 47.261719 4.976562 49.902344 7.160156 C 52.558594 9.328125 54.703125 11.941406 56.328125 15.019531 C 57.96875 18.101562 58.800781 21.554688 58.800781 25.378906 C 58.800781 31.183594 57.457031 36.117188 54.773438 40.175781 C 52.089844 44.222656 48.453125 47.226562 43.863281 49.199219 Z M 62.1875 80.703125 " fill-opacity="1" fill-rule="nonzero"/></g><g clip-path="url(#133fc0264b)"><g clip-path="url(#a22a9539af)"><g clip-path="url(#34bc36a03c)"><path fill="#36d167" d="M 82.136719 -14.738281 C 81.457031 -15.046875 80.753906 -15.300781 80.035156 -15.5 C 79.3125 -15.695312 78.582031 -15.839844 77.847656 -15.941406 C 76.378906 -16.136719 74.890625 -16.160156 73.425781 -16.050781 C 71.960938 -15.953125 70.515625 -15.707031 69.09375 -15.386719 C 68.386719 -15.21875 67.679688 -15.035156 66.984375 -14.828125 C 66.292969 -14.613281 65.601562 -14.394531 64.921875 -14.144531 C 64.242188 -13.898438 63.566406 -13.636719 62.898438 -13.355469 C 62.230469 -13.078125 61.574219 -12.78125 60.921875 -12.472656 C 58.320312 -11.226562 55.832031 -9.773438 53.464844 -8.140625 C 52.285156 -7.328125 51.128906 -6.46875 50.003906 -5.578125 C 48.882812 -4.691406 47.792969 -3.753906 46.730469 -2.792969 C 44.601562 -0.871094 42.601562 1.1875 40.730469 3.367188 C 38.855469 5.542969 37.117188 7.839844 35.539062 10.265625 C 34.75 11.472656 34 12.714844 33.300781 13.984375 C 32.601562 15.257812 31.945312 16.558594 31.351562 17.894531 C 30.160156 20.566406 29.167969 23.359375 28.550781 26.296875 C 28.238281 27.769531 28.015625 29.273438 27.917969 30.8125 C 27.824219 32.351562 27.855469 33.929688 28.074219 35.523438 C 28.304688 37.113281 28.71875 38.726562 29.414062 40.28125 C 30.101562 41.832031 31.082031 43.316406 32.316406 44.566406 C 32.46875 44.722656 32.628906 44.871094 32.785156 45.023438 C 32.949219 45.171875 33.121094 45.3125 33.285156 45.453125 C 33.453125 45.597656 33.621094 45.742188 33.792969 45.875 L 34.328125 46.257812 L 34.597656 46.445312 L 34.734375 46.542969 L 34.875 46.621094 L 35.441406 46.953125 L 35.726562 47.121094 C 35.820312 47.171875 35.921875 47.214844 36.015625 47.261719 L 36.605469 47.546875 C 38.183594 48.261719 39.839844 48.6875 41.472656 48.890625 C 43.105469 49.09375 44.714844 49.070312 46.277344 48.921875 C 47.839844 48.765625 49.359375 48.476562 50.828125 48.085938 C 52.304688 47.703125 53.730469 47.207031 55.113281 46.65625 C 55.808594 46.382812 56.480469 46.066406 57.15625 45.765625 C 57.820312 45.441406 58.488281 45.125 59.136719 44.777344 C 60.441406 44.101562 61.695312 43.339844 62.917969 42.550781 C 64.148438 41.769531 65.320312 40.914062 66.476562 40.039062 C 67.617188 39.148438 68.742188 38.242188 69.808594 37.277344 C 70.324219 36.824219 70.824219 36.351562 71.320312 35.882812 L 73.898438 43.359375 L 81.617188 20.722656 L 60.152344 31.515625 L 67.726562 32.945312 C 67.417969 33.1875 67.109375 33.429688 66.792969 33.660156 C 66.523438 33.863281 66.261719 34.066406 65.988281 34.261719 L 65.175781 34.84375 C 64.910156 35.039062 64.632812 35.226562 64.359375 35.414062 L 63.535156 35.972656 L 62.695312 36.515625 L 62.277344 36.785156 L 61.851562 37.039062 L 61.003906 37.558594 L 60.144531 38.054688 C 59.859375 38.226562 59.570312 38.382812 59.28125 38.539062 C 58.992188 38.691406 58.703125 38.851562 58.410156 39 C 57.820312 39.292969 57.242188 39.601562 56.648438 39.871094 C 56.058594 40.160156 55.460938 40.410156 54.863281 40.671875 C 54.261719 40.90625 53.664062 41.15625 53.054688 41.367188 C 51.847656 41.8125 50.625 42.191406 49.402344 42.472656 C 48.175781 42.753906 46.949219 42.96875 45.746094 43.066406 C 44.539062 43.171875 43.347656 43.152344 42.226562 43.007812 C 41.097656 42.863281 40.035156 42.578125 39.082031 42.144531 C 38.128906 41.710938 37.292969 41.128906 36.558594 40.417969 C 35.839844 39.707031 35.253906 38.847656 34.808594 37.878906 C 34.363281 36.910156 34.058594 35.824219 33.886719 34.679688 C 33.707031 33.539062 33.652344 32.339844 33.710938 31.121094 C 33.761719 29.902344 33.921875 28.664062 34.160156 27.425781 C 34.644531 24.945312 35.425781 22.472656 36.429688 20.0625 C 37.4375 17.65625 38.648438 15.308594 40.011719 13.042969 C 40.699219 11.90625 41.421875 10.796875 42.1875 9.703125 C 42.945312 8.613281 43.738281 7.539062 44.566406 6.492188 C 45.394531 5.445312 46.257812 4.421875 47.144531 3.421875 C 48.039062 2.425781 48.953125 1.445312 49.898438 0.496094 C 50.847656 -0.449219 51.820312 -1.371094 52.824219 -2.253906 C 53.828125 -3.144531 54.855469 -4.003906 55.917969 -4.828125 C 58.035156 -6.46875 60.253906 -7.980469 62.589844 -9.289062 C 64.921875 -10.59375 67.355469 -11.707031 69.886719 -12.511719 C 71.148438 -12.910156 72.433594 -13.226562 73.734375 -13.4375 C 75.027344 -13.65625 76.339844 -13.75 77.636719 -13.695312 C 78.289062 -13.667969 78.933594 -13.601562 79.570312 -13.488281 C 80.207031 -13.382812 80.835938 -13.230469 81.445312 -13.027344 C 82.667969 -12.617188 83.820312 -12 84.839844 -11.183594 C 85.109375 -10.96875 85.507812 -10.976562 85.765625 -11.222656 C 86.042969 -11.492188 86.050781 -11.933594 85.78125 -12.207031 C 84.753906 -13.265625 83.496094 -14.117188 82.136719 -14.738281 Z M 82.136719 -14.738281 " fill-opacity="1" fill-rule="nonzero"/></g></g></g><g clip-path="url(#6307ca2f6d)"><g clip-path="url(#46ca44e78e)"><g clip-path="url(#6e6a5a6443)"><g clip-path="url(#5802b40d76)"><g clip-path="url(#4669b278a6)"><g clip-path="url(#193f471331)"><g clip-path="url(#5aeff18ef2)"><g clip-path="url(#3d465df665)"><g clip-path="url(#f014dbf8f7)"><g clip-path="url(#d014c6e5d7)"><path fill="#36d167" d="M 79.691406 33.507812 C 67.296875 43.496094 53.691406 51.5 39.363281 58.292969 C 32.160156 61.617188 24.800781 64.625 17.039062 66.527344 C 12.742188 67.457031 4.046875 69.457031 1.664062 64.371094 C -0.851562 58.257812 9.949219 49.363281 14.085938 45.8125 C 29.324219 33.59375 46.550781 23.640625 65.082031 17.34375 C 72.453125 14.84375 80.007812 12.742188 87.6875 11.457031 C 83.863281 12.226562 80.097656 13.257812 76.375 14.386719 C 54.089844 21.101562 33.546875 32.972656 16.082031 48.164062 C 12.890625 51.042969 4.9375 58.40625 5.125 62.578125 C 5.339844 63.46875 6.933594 63.558594 7.890625 63.597656 C 10.554688 63.621094 13.234375 62.984375 15.886719 62.285156 C 19.488281 61.28125 23.078125 59.902344 26.585938 58.460938 C 37.175781 53.976562 47.269531 48.273438 56.875 41.980469 C 63.265625 37.757812 69.457031 33.207031 75.089844 28.246094 C 75.097656 28.214844 79.691406 33.507812 79.691406 33.507812 Z M 79.691406 33.507812 " fill-opacity="1" fill-rule="nonzero"/></g></g></g></g></g></g></g></g></g></g><g clip-path="url(#8308570fa5)"><g clip-path="url(#12b87dfcdf)"><g clip-path="url(#682ae9aad9)"><g clip-path="url(#a0d84cf03c)"><g clip-path="url(#3dc20fa878)"><g clip-path="url(#1f680035f1)"><g clip-path="url(#814ad91ee0)"><g clip-path="url(#e0764caa5b)"><g clip-path="url(#244fce6f93)"><g clip-path="url(#e0f3ff42d7)"><path fill="#36d167" d="M 65.359375 26.660156 L 78.507812 26.835938 C 80.851562 26.847656 82.703125 28.765625 82.65625 31.09375 C 82.640625 33.417969 80.710938 35.257812 78.371094 35.207031 L 65.21875 35.03125 C 62.878906 35.019531 61.023438 33.101562 61.074219 30.777344 C 61.125 29.414062 61.796875 28.203125 62.8125 27.449219 C 63.539062 26.953125 64.425781 26.636719 65.359375 26.660156 Z M 65.359375 26.660156 " fill-opacity="1" fill-rule="nonzero"/></g></g></g></g></g></g></g></g></g></g><g clip-path="url(#a3fd247fdf)"><g clip-path="url(#46d1536d33)"><g clip-path="url(#445462bd56)"><g clip-path="url(#89967e38ba)"><g clip-path="url(#e3355a9f6f)"><g clip-path="url(#01bb6a7291)"><g clip-path="url(#6706ec2b55)"><g clip-path="url(#6950caaaee)"><g clip-path="url(#e1281f2761)"><g clip-path="url(#439bf3062d)"><path fill="#36d167" d="M 79.691406 33.507812 C 67.296875 43.496094 53.691406 51.5 39.363281 58.292969 C 32.160156 61.617188 24.800781 64.625 17.039062 66.527344 C 12.742188 67.457031 4.046875 69.457031 1.664062 64.371094 C -0.851562 58.257812 9.949219 49.363281 14.085938 45.8125 C 29.324219 33.59375 46.550781 23.640625 65.082031 17.34375 C 72.453125 14.84375 80.007812 12.742188 87.6875 11.457031 C 83.863281 12.226562 80.097656 13.257812 76.375 14.386719 C 54.089844 21.101562 33.546875 32.972656 16.082031 48.164062 C 12.890625 51.042969 4.9375 58.40625 5.125 62.578125 C 5.339844 63.46875 6.933594 63.558594 7.890625 63.597656 C 10.554688 63.621094 13.234375 62.984375 15.886719 62.285156 C 19.488281 61.28125 23.078125 59.902344 26.585938 58.460938 C 37.175781 53.976562 47.269531 48.273438 56.875 41.980469 C 63.265625 37.757812 69.457031 33.207031 75.089844 28.246094 C 75.097656 28.214844 79.691406 33.507812 79.691406 33.507812 Z M 79.691406 33.507812 " fill-opacity="1" fill-rule="nonzero"/></g></g></g></g></g></g></g></g></g></g><g clip-path="url(#e283e117a8)"><g clip-path="url(#7c9c096db0)"><g clip-path="url(#a546364998)"><g clip-path="url(#8a6c23a6fc)"><g clip-path="url(#c0eec6b235)"><g clip-path="url(#bb6aa447eb)"><g clip-path="url(#5e34bc38e1)"><g clip-path="url(#7b4140b0ee)"><g clip-path="url(#4160f2985d)"><g clip-path="url(#d9af51ba84)"><path fill="#36d167" d="M 65.359375 26.660156 L 78.507812 26.835938 C 80.851562 26.847656 82.703125 28.765625 82.65625 31.09375 C 82.640625 33.417969 80.710938 35.257812 78.371094 35.207031 L 65.21875 35.03125 C 62.878906 35.019531 61.023438 33.101562 61.074219 30.777344 C 61.125 29.414062 61.796875 28.203125 62.8125 27.449219 C 63.539062 26.953125 64.425781 26.636719 65.359375 26.660156 Z M 65.359375 26.660156 " fill-opacity="1" fill-rule="nonzero"/></g></g></g></g></g></g></g></g></g></g><g clip-path="url(#c7eb6c3ea9)"><g clip-path="url(#f342c03c7f)"><g clip-path="url(#bacc3a474d)"><g clip-path="url(#0bc74d90b4)"><g clip-path="url(#d9562bb5ad)"><g clip-path="url(#34cb533f7d)"><g clip-path="url(#c2ee2aa47e)"><g clip-path="url(#702426dbf2)"><g clip-path="url(#16bb733878)"><g clip-path="url(#ad23c146a7)"><path fill="#36d167" d="M 80.015625 31.269531 C 67.617188 41.261719 54.011719 49.265625 39.683594 56.058594 C 32.480469 59.382812 25.121094 62.390625 17.359375 64.296875 C 13.0625 65.222656 4.363281 67.222656 1.980469 62.136719 C -0.535156 56.023438 10.269531 47.128906 14.40625 43.578125 C 29.644531 31.359375 46.871094 21.40625 65.402344 15.105469 C 72.777344 12.609375 80.335938 10.507812 88.015625 9.222656 C 84.191406 9.988281 80.425781 11.023438 76.699219 12.152344 C 54.414062 18.867188 33.871094 30.734375 16.402344 45.929688 C 13.210938 48.8125 5.253906 56.171875 5.441406 60.34375 C 5.65625 61.238281 7.25 61.324219 8.210938 61.359375 C 10.875 61.386719 13.550781 60.75 16.207031 60.050781 C 19.804688 59.046875 23.398438 57.667969 26.90625 56.226562 C 37.496094 51.742188 47.59375 46.039062 57.199219 39.746094 C 63.585938 35.523438 69.78125 30.972656 75.414062 26.011719 C 75.421875 25.976562 80.015625 31.269531 80.015625 31.269531 Z M 80.015625 31.269531 " fill-opacity="1" fill-rule="nonzero"/><path fill="#36d167" d="M 80.015625 31.269531 C 67.617188 41.261719 54.011719 49.265625 39.683594 56.058594 C 32.480469 59.382812 25.121094 62.390625 17.359375 64.296875 C 13.0625 65.222656 4.363281 67.222656 1.980469 62.136719 C -0.535156 56.023438 10.269531 47.128906 14.40625 43.578125 C 29.644531 31.359375 46.871094 21.40625 65.402344 15.105469 C 72.777344 12.609375 80.335938 10.507812 88.015625 9.222656 C 84.191406 9.988281 80.425781 11.023438 76.699219 12.152344 C 54.414062 18.867188 33.871094 30.734375 16.402344 45.929688 C 13.210938 48.8125 5.253906 56.171875 5.441406 60.34375 C 5.65625 61.238281 7.25 61.324219 8.210938 61.359375 C 10.875 61.386719 13.550781 60.75 16.207031 60.050781 C 19.804688 59.046875 23.398438 57.667969 26.90625 56.226562 C 37.496094 51.742188 47.59375 46.039062 57.199219 39.746094 C 63.585938 35.523438 69.78125 30.972656 75.414062 26.011719 C 75.421875 25.976562 80.015625 31.269531 80.015625 31.269531 Z M 80.015625 31.269531 " fill-opacity="1" fill-rule="nonzero"/></g></g></g></g></g></g></g></g></g></g><g clip-path="url(#7e068e1d2c)"><g clip-path="url(#5a275b98fa)"><g clip-path="url(#7acb2e2770)"><g clip-path="url(#10c29e1b26)"><g clip-path="url(#4d471f43f3)"><g clip-path="url(#6d73c30315)"><g clip-path="url(#a630875976)"><g clip-path="url(#d261a4080e)"><g clip-path="url(#52c3af29e5)"><g clip-path="url(#58296fe315)"><path fill="#36d167" d="M 76.691406 35.121094 C 63.753906 44.992188 49.648438 52.789062 34.832031 59.328125 C 27.390625 62.519531 19.792969 65.386719 11.8125 67.109375 C 7.402344 67.9375 -1.527344 69.726562 -3.820312 64.457031 C -6.21875 58.125 5.054688 49.332031 9.375 45.8125 C 25.265625 33.75 43.128906 24.058594 62.21875 18.148438 C 69.8125 15.804688 77.585938 13.871094 85.457031 12.78125 C 81.535156 13.453125 77.664062 14.402344 73.828125 15.449219 C 50.894531 21.675781 29.597656 33.230469 11.34375 48.277344 C 8.007812 51.140625 -0.3125 58.441406 -0.238281 62.714844 C -0.0429688 63.640625 1.582031 63.773438 2.558594 63.839844 C 5.277344 63.945312 8.027344 63.367188 10.753906 62.730469 C 14.457031 61.804688 18.164062 60.5 21.785156 59.125 C 32.71875 54.84375 43.183594 49.296875 53.160156 43.132812 C 59.796875 38.996094 66.246094 34.519531 72.132812 29.601562 C 72.148438 29.566406 76.691406 35.121094 76.691406 35.121094 Z M 76.691406 35.121094 " fill-opacity="1" fill-rule="nonzero"/></g></g></g></g></g></g></g></g></g></g><g clip-path="url(#75af090716)"><g clip-path="url(#a9eef056ab)"><g clip-path="url(#2288b48af2)"><g clip-path="url(#3c7cdff856)"><g clip-path="url(#87912347cb)"><g clip-path="url(#979b073700)"><g clip-path="url(#962a2971e8)"><g clip-path="url(#88b6de31e2)"><g clip-path="url(#45cc209702)"><g clip-path="url(#176abed515)"><path fill="#36d167" d="M 77.371094 28.660156 C 79.484375 29.667969 80.429688 32.257812 79.355469 34.394531 L 73.320312 46.867188 C 72.3125 48.960938 69.699219 49.875 67.570312 48.832031 C 65.445312 47.792969 64.515625 45.226562 65.589844 43.097656 L 71.625 30.625 C 71.984375 29.941406 72.453125 29.390625 73.054688 28.984375 C 74.285156 28.105469 75.945312 27.9375 77.371094 28.660156 Z M 77.371094 28.660156 " fill-opacity="1" fill-rule="nonzero"/></g></g></g></g></g></g></g></g></g></g><g clip-path="url(#bf8cb91996)"><g clip-path="url(#1b0eca31f3)"><g clip-path="url(#2cd7fbbe1b)"><g clip-path="url(#1dccc89464)"><g clip-path="url(#ea9b6a017e)"><g clip-path="url(#5127781b27)"><g clip-path="url(#6819c72a89)"><g clip-path="url(#cc6011b7f0)"><g clip-path="url(#28d300c1f0)"><g clip-path="url(#c7e1c09f6d)"><path fill="#36d167" d="M 62.246094 27.691406 L 75.664062 28.253906 C 78.058594 28.339844 79.894531 30.355469 79.78125 32.734375 C 79.703125 35.113281 77.683594 36.9375 75.292969 36.824219 L 61.875 36.261719 C 59.480469 36.179688 57.644531 34.167969 57.757812 31.78125 C 57.84375 30.394531 58.566406 29.171875 59.621094 28.429688 C 60.382812 27.941406 61.289062 27.640625 62.246094 27.691406 Z M 62.246094 27.691406 " fill-opacity="1" fill-rule="nonzero"/></g></g></g></g></g></g></g></g></g></g><g clip-path="url(#bcf4515fe4)"><g clip-path="url(#1077e76d05)"><g clip-path="url(#89ddf1123d)"><g clip-path="url(#4a108cff26)"><g clip-path="url(#2501704bb3)"><g clip-path="url(#fd82b2f2b7)"><g clip-path="url(#c9c0658f68)"><g clip-path="url(#641f695c0a)"><g clip-path="url(#f1fce4603e)"><g clip-path="url(#d5b5e4d209)"><path fill="#36d167" d="M 76.691406 35.121094 C 63.753906 44.992188 49.648438 52.789062 34.832031 59.328125 C 27.390625 62.519531 19.792969 65.386719 11.8125 67.109375 C 7.402344 67.9375 -1.527344 69.726562 -3.820312 64.457031 C -6.21875 58.125 5.054688 49.332031 9.375 45.8125 C 25.265625 33.75 43.128906 24.058594 62.21875 18.148438 C 69.8125 15.804688 77.585938 13.871094 85.457031 12.78125 C 81.535156 13.453125 77.664062 14.402344 73.828125 15.449219 C 50.894531 21.675781 29.597656 33.230469 11.34375 48.277344 C 8.007812 51.140625 -0.3125 58.441406 -0.238281 62.714844 C -0.0429688 63.640625 1.582031 63.773438 2.558594 63.839844 C 5.277344 63.945312 8.027344 63.367188 10.753906 62.730469 C 14.457031 61.804688 18.164062 60.5 21.785156 59.125 C 32.71875 54.84375 43.183594 49.296875 53.160156 43.132812 C 59.796875 38.996094 66.246094 34.519531 72.132812 29.601562 C 72.148438 29.566406 76.691406 35.121094 76.691406 35.121094 Z M 76.691406 35.121094 " fill-opacity="1" fill-rule="nonzero"/></g></g></g></g></g></g></g></g></g></g><g clip-path="url(#75d8291b40)"><g clip-path="url(#faf199aa58)"><g clip-path="url(#d552cc5b82)"><g clip-path="url(#fa4770e9d8)"><g clip-path="url(#210b8a941b)"><g clip-path="url(#072090be7b)"><g clip-path="url(#401d07ea17)"><g clip-path="url(#2afb4b18b3)"><g clip-path="url(#4fd3bf1cf9)"><g clip-path="url(#db15505008)"><path fill="#36d167" d="M 77.371094 28.660156 C 79.484375 29.667969 80.429688 32.257812 79.355469 34.394531 L 73.320312 46.867188 C 72.3125 48.960938 69.699219 49.875 67.570312 48.832031 C 65.445312 47.792969 64.515625 45.226562 65.589844 43.097656 L 71.625 30.625 C 71.984375 29.941406 72.453125 29.390625 73.054688 28.984375 C 74.285156 28.105469 75.945312 27.9375 77.371094 28.660156 Z M 77.371094 28.660156 " fill-opacity="1" fill-rule="nonzero"/></g></g></g></g></g></g></g></g></g></g><g clip-path="url(#ed9899fc9e)"><g clip-path="url(#da65fcf8ee)"><g clip-path="url(#890fbeff1f)"><g clip-path="url(#8ad2329009)"><g clip-path="url(#9ccd115400)"><g clip-path="url(#8acb166b64)"><g clip-path="url(#bc2fe2cb3d)"><g clip-path="url(#ea479e2fd5)"><g clip-path="url(#bc3039eda5)"><g clip-path="url(#8a1154fd6d)"><path fill="#36d167" d="M 62.246094 27.691406 L 75.664062 28.253906 C 78.058594 28.339844 79.894531 30.355469 79.78125 32.734375 C 79.703125 35.113281 77.683594 36.9375 75.292969 36.824219 L 61.875 36.261719 C 59.480469 36.179688 57.644531 34.167969 57.757812 31.78125 C 57.84375 30.394531 58.566406 29.171875 59.621094 28.429688 C 60.382812 27.941406 61.289062 27.640625 62.246094 27.691406 Z M 62.246094 27.691406 " fill-opacity="1" fill-rule="nonzero"/></g></g></g></g></g></g></g></g></g></g><g clip-path="url(#89430d22f6)"><g clip-path="url(#0477409769)"><g clip-path="url(#e47759d666)"><g clip-path="url(#2d79838923)"><g clip-path="url(#9dd7f8cd1d)"><g clip-path="url(#1143752a00)"><g clip-path="url(#9681321454)"><g clip-path="url(#18e9017f5d)"><g clip-path="url(#c0964ca151)"><g clip-path="url(#2e3790550b)"><path fill="#36d167" d="M 82.621094 29.375 C 70.675781 39.230469 57.539062 47.160156 43.683594 53.914062 C 36.71875 57.21875 29.59375 60.21875 22.066406 62.148438 C 17.898438 63.09375 9.46875 65.121094 7.09375 60.183594 C 4.578125 54.242188 14.988281 45.476562 18.96875 41.96875 C 33.644531 29.917969 50.285156 20.054688 68.230469 13.742188 C 75.371094 11.242188 82.695312 9.125 90.148438 7.800781 C 86.4375 8.582031 82.789062 9.625 79.179688 10.761719 C 57.585938 17.507812 37.746094 29.269531 20.929688 44.246094 C 17.863281 47.085938 10.207031 54.335938 10.441406 58.402344 C 10.660156 59.273438 12.210938 59.34375 13.144531 59.371094 C 15.734375 59.371094 18.328125 58.726562 20.898438 58.019531 C 24.386719 57.007812 27.867188 55.628906 31.261719 54.191406 C 41.503906 49.722656 51.257812 44.074219 60.527344 37.847656 C 66.691406 33.671875 72.664062 29.175781 78.085938 24.289062 C 78.09375 24.253906 82.621094 29.375 82.621094 29.375 Z M 82.621094 29.375 " fill-opacity="1" fill-rule="nonzero"/><path fill="#36d167" d="M 82.621094 29.375 C 70.675781 39.230469 57.539062 47.160156 43.683594 53.914062 C 36.71875 57.21875 29.59375 60.21875 22.066406 62.148438 C 17.898438 63.09375 9.46875 65.121094 7.09375 60.183594 C 4.578125 54.242188 14.988281 45.476562 18.96875 41.96875 C 33.644531 29.917969 50.285156 20.054688 68.230469 13.742188 C 75.371094 11.242188 82.695312 9.125 90.148438 7.800781 C 86.4375 8.582031 82.789062 9.625 79.179688 10.761719 C 57.585938 17.507812 37.746094 29.269531 20.929688 44.246094 C 17.863281 47.085938 10.207031 54.335938 10.441406 58.402344 C 10.660156 59.273438 12.210938 59.34375 13.144531 59.371094 C 15.734375 59.371094 18.328125 58.726562 20.898438 58.019531 C 24.386719 57.007812 27.867188 55.628906 31.261719 54.191406 C 41.503906 49.722656 51.257812 44.074219 60.527344 37.847656 C 66.691406 33.671875 72.664062 29.175781 78.085938 24.289062 C 78.09375 24.253906 82.621094 29.375 82.621094 29.375 Z M 82.621094 29.375 " fill-opacity="1" fill-rule="nonzero"/></g></g></g></g></g></g></g></g></g></g><g clip-path="url(#80dbdb352f)"><g clip-path="url(#4dda305afe)"><g clip-path="url(#5e89cdf222)"><g clip-path="url(#58a957f2ac)"><g clip-path="url(#759c2447a4)"><g clip-path="url(#29e13d6bf5)"><g clip-path="url(#d500e7ca9c)"><g clip-path="url(#56f08837ea)"><g clip-path="url(#51a9fdce23)"><g clip-path="url(#6f4a087431)"><path fill="#36d167" d="M 79.957031 33.34375 C 67.5625 43.335938 53.957031 51.339844 39.628906 58.132812 C 32.425781 61.457031 25.066406 64.460938 17.304688 66.367188 C 13.007812 67.296875 4.3125 69.292969 1.929688 64.207031 C -0.585938 58.097656 10.214844 49.203125 14.351562 45.652344 C 29.589844 33.429688 46.816406 23.476562 65.34375 17.179688 C 72.71875 14.683594 80.277344 12.582031 87.953125 11.292969 C 84.128906 12.0625 80.363281 13.097656 76.640625 14.222656 C 54.355469 20.9375 33.8125 32.808594 16.347656 48 C 13.15625 50.882812 5.203125 58.242188 5.390625 62.414062 C 5.605469 63.308594 7.199219 63.394531 8.15625 63.433594 C 10.824219 63.457031 13.5 62.824219 16.152344 62.121094 C 19.753906 61.117188 23.34375 59.738281 26.851562 58.300781 C 37.441406 53.8125 47.535156 48.113281 57.140625 41.816406 C 63.53125 37.597656 69.722656 33.046875 75.355469 28.085938 C 75.363281 28.050781 79.957031 33.34375 79.957031 33.34375 Z M 79.957031 33.34375 " fill-opacity="1" fill-rule="nonzero"/></g></g></g></g></g></g></g></g></g></g><g clip-path="url(#cb018dcc4a)"><g clip-path="url(#01c9bc7e38)"><g clip-path="url(#5300402d3c)"><g clip-path="url(#2c09315215)"><g clip-path="url(#a27da7e846)"><g clip-path="url(#cee490c9fd)"><g clip-path="url(#fe6ba4806e)"><g clip-path="url(#93bcd03817)"><g clip-path="url(#048f4e439d)"><g clip-path="url(#565c9c1885)"><path fill="#36d167" d="M 65.625 26.496094 L 78.773438 26.671875 C 81.117188 26.6875 82.96875 28.601562 82.917969 30.929688 C 82.90625 33.253906 80.976562 35.09375 78.636719 35.046875 L 65.484375 34.871094 C 63.144531 34.855469 61.289062 32.941406 61.339844 30.613281 C 61.390625 29.253906 62.0625 28.042969 63.078125 27.289062 C 63.804688 26.792969 64.6875 26.472656 65.625 26.496094 Z M 65.625 26.496094 " fill-opacity="1" fill-rule="nonzero"/></g></g></g></g></g></g></g></g></g></g><g clip-path="url(#cfd5bcf42c)"><g clip-path="url(#20217cc13b)"><g clip-path="url(#fca65d9402)"><g clip-path="url(#d21cfa34c2)"><g clip-path="url(#5c42f871c1)"><g clip-path="url(#ca706a7172)"><g clip-path="url(#b022dc530b)"><g clip-path="url(#44fe57d4c1)"><g clip-path="url(#2f877bb49f)"><g clip-path="url(#44c22c08fe)"><path fill="#36d167" d="M 79.957031 33.34375 C 67.5625 43.335938 53.957031 51.339844 39.628906 58.132812 C 32.425781 61.457031 25.066406 64.460938 17.304688 66.367188 C 13.007812 67.296875 4.3125 69.292969 1.929688 64.207031 C -0.585938 58.097656 10.214844 49.203125 14.351562 45.652344 C 29.589844 33.429688 46.816406 23.476562 65.34375 17.179688 C 72.71875 14.683594 80.277344 12.582031 87.953125 11.292969 C 84.128906 12.0625 80.363281 13.097656 76.640625 14.222656 C 54.355469 20.9375 33.8125 32.808594 16.347656 48 C 13.15625 50.882812 5.203125 58.242188 5.390625 62.414062 C 5.605469 63.308594 7.199219 63.394531 8.15625 63.433594 C 10.824219 63.457031 13.5 62.824219 16.152344 62.121094 C 19.753906 61.117188 23.34375 59.738281 26.851562 58.300781 C 37.441406 53.8125 47.535156 48.113281 57.140625 41.816406 C 63.53125 37.597656 69.722656 33.046875 75.355469 28.085938 C 75.363281 28.050781 79.957031 33.34375 79.957031 33.34375 Z M 79.957031 33.34375 " fill-opacity="1" fill-rule="nonzero"/></g></g></g></g></g></g></g></g></g></g><g clip-path="url(#df5a657067)"><g clip-path="url(#eac98b08ee)"><g clip-path="url(#5a90cf55a0)"><g clip-path="url(#68663e18f9)"><g clip-path="url(#aaab29fdeb)"><g clip-path="url(#bd522a8b6f)"><g clip-path="url(#c58f6e323f)"><g clip-path="url(#a23baa501b)"><g clip-path="url(#2b6cd083ce)"><g clip-path="url(#73bc297ec0)"><path fill="#36d167" d="M 65.625 26.496094 L 78.773438 26.671875 C 81.117188 26.6875 82.96875 28.601562 82.917969 30.929688 C 82.90625 33.253906 80.976562 35.09375 78.636719 35.046875 L 65.484375 34.871094 C 63.144531 34.855469 61.289062 32.941406 61.339844 30.613281 C 61.390625 29.253906 62.0625 28.042969 63.078125 27.289062 C 63.804688 26.792969 64.6875 26.472656 65.625 26.496094 Z M 65.625 26.496094 " fill-opacity="1" fill-rule="nonzero"/></g></g></g></g></g></g></g></g></g></g><g clip-path="url(#a05e5e97a0)"><g clip-path="url(#d22e95add8)"><g clip-path="url(#4d120c3d69)"><g clip-path="url(#a1a28eed3b)"><g clip-path="url(#d49568f556)"><g clip-path="url(#dc3d999351)"><g clip-path="url(#74ad1b763e)"><g clip-path="url(#421b95f69b)"><g clip-path="url(#c76d0371b3)"><g clip-path="url(#039137762b)"><path fill="#36d167" d="M 89.515625 23.898438 C 78.167969 35.054688 65.417969 44.339844 51.832031 52.496094 C 44.992188 56.507812 37.960938 60.214844 30.425781 62.871094 C 26.242188 64.210938 17.789062 67.050781 14.910156 62.222656 C 11.804688 56.382812 21.679688 46.480469 25.445312 42.539062 C 39.398438 28.894531 55.5625 17.3125 73.378906 9.234375 C 80.46875 6.035156 87.78125 3.207031 95.296875 1.179688 C 91.570312 2.316406 87.921875 3.710938 84.328125 5.195312 C 62.8125 14.046875 43.542969 27.863281 27.660156 44.6875 C 24.769531 47.863281 17.578125 55.964844 18.179688 60.097656 C 18.480469 60.96875 20.074219 60.898438 21.035156 60.839844 C 23.691406 60.605469 26.289062 59.710938 28.859375 58.757812 C 32.34375 57.40625 35.78125 55.6875 39.128906 53.914062 C 49.222656 48.414062 58.707031 41.757812 67.644531 34.554688 C 73.585938 29.734375 79.300781 24.601562 84.414062 19.117188 C 84.421875 19.078125 89.515625 23.898438 89.515625 23.898438 Z M 89.515625 23.898438 " fill-opacity="1" fill-rule="nonzero"/></g></g></g></g></g></g></g></g></g></g><g clip-path="url(#8b6dce5d5f)"><g clip-path="url(#7041387026)"><g clip-path="url(#707d5fabd9)"><g clip-path="url(#4042be69d7)"><g clip-path="url(#fc145a4bd1)"><g clip-path="url(#7d0dd46862)"><g clip-path="url(#1d3b66cab1)"><g clip-path="url(#81f8a399b8)"><g clip-path="url(#e4681d65e9)"><g clip-path="url(#76ee02e3ba)"><path fill="#36d167" d="M 74.578125 18.484375 L 87.679688 17.375 C 90.011719 17.164062 92.042969 18.890625 92.226562 21.207031 C 92.441406 23.519531 90.703125 25.542969 88.367188 25.722656 L 75.265625 26.828125 C 72.933594 27.042969 70.902344 25.316406 70.714844 22.996094 C 70.636719 21.636719 71.183594 20.367188 72.117188 19.519531 C 72.796875 18.953125 73.644531 18.550781 74.578125 18.484375 Z M 74.578125 18.484375 " fill-opacity="1" fill-rule="nonzero"/></g></g></g></g></g></g></g></g></g></g><g clip-path="url(#aa56f721fc)"><g clip-path="url(#85a0240468)"><g clip-path="url(#d23fa56200)"><g clip-path="url(#3151938ebe)"><g clip-path="url(#74749cd30a)"><g clip-path="url(#a5d86009c7)"><g clip-path="url(#576a49ece0)"><g clip-path="url(#2fb3d9b4a3)"><g clip-path="url(#8198138d4d)"><g clip-path="url(#4116f21ed4)"><path fill="#36d167" d="M 89.515625 23.898438 C 78.167969 35.054688 65.417969 44.339844 51.832031 52.496094 C 44.992188 56.507812 37.960938 60.214844 30.425781 62.871094 C 26.242188 64.210938 17.789062 67.050781 14.910156 62.222656 C 11.804688 56.382812 21.679688 46.480469 25.445312 42.539062 C 39.398438 28.894531 55.5625 17.3125 73.378906 9.234375 C 80.46875 6.035156 87.78125 3.207031 95.296875 1.179688 C 91.570312 2.316406 87.921875 3.710938 84.328125 5.195312 C 62.8125 14.046875 43.542969 27.863281 27.660156 44.6875 C 24.769531 47.863281 17.578125 55.964844 18.179688 60.097656 C 18.480469 60.96875 20.074219 60.898438 21.035156 60.839844 C 23.691406 60.605469 26.289062 59.710938 28.859375 58.757812 C 32.34375 57.40625 35.78125 55.6875 39.128906 53.914062 C 49.222656 48.414062 58.707031 41.757812 67.644531 34.554688 C 73.585938 29.734375 79.300781 24.601562 84.414062 19.117188 C 84.421875 19.078125 89.515625 23.898438 89.515625 23.898438 Z M 89.515625 23.898438 " fill-opacity="1" fill-rule="nonzero"/></g></g></g></g></g></g></g></g></g></g><g clip-path="url(#9ff740b1bf)"><g clip-path="url(#bbfad8e3bd)"><g clip-path="url(#abed08a2c1)"><g clip-path="url(#8f3ede6f02)"><g clip-path="url(#1ec83e5dc2)"><g clip-path="url(#d23e2a001d)"><g clip-path="url(#52a73e2abc)"><g clip-path="url(#523f0de17c)"><g clip-path="url(#d876606475)"><g clip-path="url(#4d25507598)"><path fill="#36d167" d="M 74.578125 18.484375 L 87.679688 17.375 C 90.011719 17.164062 92.042969 18.890625 92.226562 21.207031 C 92.441406 23.519531 90.703125 25.542969 88.367188 25.722656 L 75.265625 26.828125 C 72.933594 27.042969 70.902344 25.316406 70.714844 22.996094 C 70.636719 21.636719 71.183594 20.367188 72.117188 19.519531 C 72.796875 18.953125 73.644531 18.550781 74.578125 18.484375 Z M 74.578125 18.484375 " fill-opacity="1" fill-rule="nonzero"/></g></g></g></g></g></g></g></g></g></g><g clip-path="url(#d2db4eaedc)"><g clip-path="url(#7f375fecdb)"><g transform="matrix(1, 0, 0, 1, 62, 1)"><g clip-path="url(#6ba0de7f12)"><g clip-path="url(#b746ac0090)"><g clip-path="url(#5a5bf33183)"><path fill="#ef7623" d="M 0.324219 0.726562 L 19.589844 0.726562 L 19.589844 19.992188 L 0.324219 19.992188 Z M 0.324219 0.726562 " fill-opacity="1" fill-rule="nonzero"/></g></g></g></g></g></g><g clip-path="url(#230e971d45)"><path fill="#002f87" d="M 8.167969 0.84375 L 21.230469 0.84375 L 21.230469 80.941406 L 8.167969 80.941406 Z M 62.609375 80.941406 L 48.769531 80.941406 L 33.625 51.9375 C 33.414062 51.9375 33.175781 51.964844 32.917969 52.007812 C 32.652344 52.035156 32.265625 52.046875 31.753906 52.046875 C 31.257812 52.046875 30.515625 52.046875 29.527344 52.046875 C 28.558594 52.046875 27.277344 52.046875 25.679688 52.046875 L 25.679688 42.460938 L 33.09375 42.460938 C 34.691406 42.460938 36.28125 42.195312 37.859375 41.648438 C 39.457031 41.113281 40.90625 40.230469 42.203125 39.007812 C 43.519531 37.765625 44.578125 36.039062 45.382812 33.828125 C 46.175781 31.625 46.582031 28.886719 46.582031 25.617188 C 46.582031 24.332031 46.386719 22.832031 46.015625 21.140625 C 45.664062 19.433594 44.921875 17.792969 43.792969 16.242188 C 42.679688 14.675781 41.109375 13.371094 39.0625 12.332031 C 37.03125 11.273438 34.347656 10.746094 31.011719 10.746094 L 25.679688 10.746094 L 25.679688 0.84375 L 31.222656 0.84375 C 34.628906 0.84375 38.011719 1.398438 41.355469 2.5 C 44.691406 3.582031 47.683594 5.214844 50.324219 7.398438 C 52.980469 9.566406 55.125 12.183594 56.75 15.257812 C 58.390625 18.339844 59.222656 21.792969 59.222656 25.617188 C 59.222656 31.421875 57.878906 36.355469 55.195312 40.417969 C 52.511719 44.460938 48.875 47.464844 44.285156 49.4375 Z M 62.609375 80.941406 " fill-opacity="1" fill-rule="nonzero"/><path fill="#002f87" d="M 7.792969 0.84375 L 20.855469 0.84375 L 20.855469 80.941406 L 7.792969 80.941406 Z M 62.238281 80.941406 L 48.394531 80.941406 L 33.25 51.9375 C 33.039062 51.9375 32.800781 51.964844 32.542969 52.007812 C 32.277344 52.035156 31.890625 52.046875 31.378906 52.046875 C 30.882812 52.046875 30.144531 52.046875 29.152344 52.046875 C 28.183594 52.046875 26.902344 52.046875 25.304688 52.046875 L 25.304688 42.460938 L 32.71875 42.460938 C 34.316406 42.460938 35.90625 42.195312 37.488281 41.648438 C 39.085938 41.113281 40.53125 40.230469 41.828125 39.007812 C 43.144531 37.765625 44.203125 36.039062 45.007812 33.828125 C 45.800781 31.625 46.207031 28.886719 46.207031 25.617188 C 46.207031 24.332031 46.011719 22.832031 45.640625 21.140625 C 45.289062 19.433594 44.546875 17.792969 43.417969 16.242188 C 42.304688 14.675781 40.734375 13.371094 38.6875 12.332031 C 36.65625 11.273438 33.972656 10.746094 30.636719 10.746094 L 25.304688 10.746094 L 25.304688 0.84375 L 30.847656 0.84375 C 34.257812 0.84375 37.636719 1.398438 40.980469 2.5 C 44.320312 3.582031 47.3125 5.214844 49.949219 7.398438 C 52.605469 9.566406 54.75 12.183594 56.375 15.257812 C 58.019531 18.339844 58.847656 21.792969 58.847656 25.617188 C 58.847656 31.421875 57.503906 36.355469 54.824219 40.417969 C 52.140625 44.460938 48.503906 47.464844 43.914062 49.4375 Z M 62.238281 80.941406 " fill-opacity="1" fill-rule="nonzero"/></g><g clip-path="url(#b62083e426)"><path fill="#002f87" d="M 8.121094 0.84375 L 21.183594 0.84375 L 21.183594 80.941406 L 8.121094 80.941406 Z M 62.5625 80.941406 L 48.722656 80.941406 L 33.578125 51.9375 C 33.363281 51.9375 33.125 51.964844 32.871094 52.007812 C 32.605469 52.035156 32.21875 52.046875 31.703125 52.046875 C 31.210938 52.046875 30.46875 52.046875 29.480469 52.046875 C 28.507812 52.046875 27.230469 52.046875 25.632812 52.046875 L 25.632812 42.460938 L 33.046875 42.460938 C 34.644531 42.460938 36.234375 42.195312 37.8125 41.648438 C 39.410156 41.113281 40.859375 40.230469 42.15625 39.007812 C 43.472656 37.765625 44.53125 36.039062 45.332031 33.828125 C 46.128906 31.625 46.535156 28.886719 46.535156 25.617188 C 46.535156 24.332031 46.339844 22.832031 45.96875 21.140625 C 45.617188 19.433594 44.875 17.792969 43.746094 16.242188 C 42.632812 14.675781 41.0625 13.371094 39.011719 12.332031 C 36.984375 11.273438 34.300781 10.746094 30.964844 10.746094 L 25.632812 10.746094 L 25.632812 0.84375 L 31.175781 0.84375 C 34.582031 0.84375 37.964844 1.398438 41.308594 2.5 C 44.644531 3.582031 47.636719 5.214844 50.277344 7.398438 C 52.933594 9.566406 55.078125 12.183594 56.703125 15.257812 C 58.34375 18.339844 59.171875 21.792969 59.171875 25.617188 C 59.171875 31.421875 57.832031 36.355469 55.148438 40.417969 C 52.464844 44.460938 48.828125 47.464844 44.238281 49.4375 Z M 62.5625 80.941406 " fill-opacity="1" fill-rule="nonzero"/></g><g clip-path="url(#937d0ce5fb)"><path fill="#002f87" d="M 7.746094 0.84375 L 20.808594 0.84375 L 20.808594 80.941406 L 7.746094 80.941406 Z M 62.1875 80.941406 L 48.347656 80.941406 L 33.203125 51.9375 C 32.988281 51.9375 32.75 51.964844 32.496094 52.007812 C 32.230469 52.035156 31.84375 52.046875 31.332031 52.046875 C 30.835938 52.046875 30.09375 52.046875 29.105469 52.046875 C 28.136719 52.046875 26.855469 52.046875 25.257812 52.046875 L 25.257812 42.460938 L 32.671875 42.460938 C 34.269531 42.460938 35.859375 42.195312 37.4375 41.648438 C 39.035156 41.113281 40.484375 40.230469 41.78125 39.007812 C 43.097656 37.765625 44.15625 36.039062 44.960938 33.828125 C 45.753906 31.625 46.160156 28.886719 46.160156 25.617188 C 46.160156 24.332031 45.964844 22.832031 45.59375 21.140625 C 45.242188 19.433594 44.5 17.792969 43.371094 16.242188 C 42.257812 14.675781 40.6875 13.371094 38.640625 12.332031 C 36.609375 11.273438 33.925781 10.746094 30.589844 10.746094 L 25.257812 10.746094 L 25.257812 0.84375 L 30.800781 0.84375 C 34.207031 0.84375 37.589844 1.398438 40.933594 2.5 C 44.269531 3.582031 47.261719 5.214844 49.902344 7.398438 C 52.558594 9.566406 54.703125 12.183594 56.328125 15.257812 C 57.96875 18.339844 58.800781 21.792969 58.800781 25.617188 C 58.800781 31.421875 57.457031 36.355469 54.773438 40.417969 C 52.089844 44.460938 48.453125 47.464844 43.863281 49.4375 Z M 62.1875 80.941406 " fill-opacity="1" fill-rule="nonzero"/></g><g clip-path="url(#8a7acaf4cc)"><g clip-path="url(#a92a53e8e2)"><g clip-path="url(#98d666ba07)"><g clip-path="url(#41ffc07ef8)"><g clip-path="url(#0bd2b00103)"><g clip-path="url(#0209ffb8bf)"><g clip-path="url(#38f3154454)"><g clip-path="url(#6c679f4160)"><g clip-path="url(#975204529f)"><g clip-path="url(#dcc9d244bc)"><path fill="#36d167" d="M 97.539062 15.796875 C 85.515625 27.6875 72.007812 37.59375 57.613281 46.289062 C 50.371094 50.566406 42.921875 54.519531 34.941406 57.347656 C 30.507812 58.78125 21.550781 61.804688 18.503906 56.65625 C 15.210938 50.433594 25.671875 39.871094 29.660156 35.671875 C 44.445312 21.125 61.566406 8.773438 80.441406 0.164062 C 87.957031 -3.253906 95.703125 -6.265625 103.664062 -8.429688 C 99.710938 -7.21875 95.851562 -5.730469 92.042969 -4.144531 C 69.25 5.292969 48.835938 20.023438 32.007812 37.960938 C 28.945312 41.351562 21.332031 49.984375 21.964844 54.390625 C 22.285156 55.320312 23.972656 55.246094 24.988281 55.183594 C 27.800781 54.933594 30.558594 53.980469 33.28125 52.964844 C 36.972656 51.523438 40.613281 49.6875 44.164062 47.796875 C 54.855469 41.933594 64.902344 34.835938 74.371094 27.160156 C 80.664062 22.019531 86.714844 16.542969 92.136719 10.695312 C 92.144531 10.65625 97.539062 15.796875 97.539062 15.796875 Z M 97.539062 15.796875 " fill-opacity="1" fill-rule="nonzero"/><path fill="#36d167" d="M 97.539062 15.796875 C 85.515625 27.6875 72.007812 37.59375 57.613281 46.289062 C 50.371094 50.566406 42.921875 54.519531 34.941406 57.347656 C 30.507812 58.78125 21.550781 61.804688 18.503906 56.65625 C 15.210938 50.433594 25.671875 39.871094 29.660156 35.671875 C 44.445312 21.125 61.566406 8.773438 80.441406 0.164062 C 87.957031 -3.253906 95.703125 -6.265625 103.664062 -8.429688 C 99.710938 -7.21875 95.851562 -5.730469 92.042969 -4.144531 C 69.25 5.292969 48.835938 20.023438 32.007812 37.960938 C 28.945312 41.351562 21.332031 49.984375 21.964844 54.390625 C 22.285156 55.320312 23.972656 55.246094 24.988281 55.183594 C 27.800781 54.933594 30.558594 53.980469 33.28125 52.964844 C 36.972656 51.523438 40.613281 49.6875 44.164062 47.796875 C 54.855469 41.933594 64.902344 34.835938 74.371094 27.160156 C 80.664062 22.019531 86.714844 16.542969 92.136719 10.695312 C 92.144531 10.65625 97.539062 15.796875 97.539062 15.796875 Z M 97.539062 15.796875 " fill-opacity="1" fill-rule="nonzero"/></g></g></g></g></g></g></g></g></g></g></svg>